<?xml version="1.0" encoding="utf-8"?>
<!-- Generator: Adobe Illustrator 21.0.0, SVG Export Plug-In . SVG Version: 6.00 Build 0)  -->
<svg version="1.1" id="Capa_1" xmlns="http://www.w3.org/2000/svg" xmlns:xlink="http://www.w3.org/1999/xlink" x="0px" y="0px"
	 viewBox="0 0 50 50" style="enable-background:new 0 0 50 50;" xml:space="preserve">
<style type="text/css">
	.st0{fill:#10485F;}
</style>
<g>
	<path class="st0" d="M-112.6,75.3v4.1h2.8V78h-1.4v-2.8h-1.4V75.3z"/>
	<path class="st0" d="M-121.5,96h1.4v11.1h-1.4V96z"/>
	<path class="st0" d="M-88.6,94l-1.1-4.5l-3.6,3.6l-1.8-1.8l3.6-3.6l-4.5-1.1l-1.3,1.3c-0.7-0.1-1.5-0.2-2.2-0.1l-4.4-3.6v1.6
		l-1.9-1.3v-1.2l2.1-1.4v-2.4h0.7c1.5,0,2.8-1,3.3-2.4s0-3-1.2-3.9l0,0v-0.7c0-5.3-4.3-9.7-9.7-9.7s-9.7,4.3-9.7,9.7v0.7l0,0
		c-1.1,0.8-1.6,2.2-1.3,3.5s1.3,2.4,2.7,2.6v2.8h6.9v-1.4h-5.5v-1.4h1.4v-4.6l2.2-2.2l0.5,0.3c1.8,1.1,4,1.1,5.8,0l0.5-0.3l2.2,2.2
		V81l-3.7,2.4h-6.7v1l-3.2,2.2l-6.1,1.8c-1.5,0.4-2.5,1.8-2.5,3.3v15.1h1.4V92c0-0.9,0.6-1.7,1.5-2l5.5-1.7l2.5,7.6l2.6-2.6l2.4,0.5
		v7.7h1.4v-7.7l2.7-0.4c-1.1,2.5-1,5.4,0.3,7.9l-0.9,0.9c-1,1-1,2.7,0,3.7s2.7,1,3.7,0l0.8-0.8c3.2,1.9,7.2,1.7,10.3-0.5
		c3-2.2,4.4-6,3.5-9.6L-88.6,94z M-100.9,76c0,1.1-0.9,2.1-2.1,2.1h-0.7V74h0.7C-101.8,73.9-100.9,74.9-100.9,76z M-117.5,78.1h-0.7
		c-1.1,0-2.1-0.9-2.1-2.1c0-1.1,0.9-2.1,2.1-2.1h0.7V78.1z M-117.5,72.6h-0.7c-0.2,0-0.5,0-0.7,0.1v-0.1c0-4.6,3.7-8.3,8.3-8.3
		s8.3,3.7,8.3,8.3v0.1c-0.2,0-0.5-0.1-0.7-0.1h-0.7c0-3.8-3.1-6.9-6.9-6.9S-117.5,68.7-117.5,72.6z M-107,71l-1.4,0.9
		c-1.3,0.8-3,0.8-4.3,0l-1.4-0.9l-2,2v-0.4c0-3.1,2.5-5.5,5.5-5.5s5.5,2.5,5.5,5.5V73L-107,71z M-102.8,90.3l0.3-0.2v-3l2.6,2.1h0.3
		c0.3,0,0.6-0.1,0.9-0.1c0.1,0,0.1,0,0.2,0l-1.7,1.7l0.8,2.9l-6.5,6.5C-107.5,96.6-106.2,92.4-102.8,90.3L-102.8,90.3z M-114.1,91.8
		l-1.5,1.5l-1.9-5.6l2.1-1.5v2.5l2.9,3.3L-114.1,91.8z M-110.6,92.2l-3.5-3.9V85h5.7l1.2-0.8v4.1L-110.6,92.2z M-108.8,92.3l3-3.5
		v-2.7l1.9,1.3v1.9c-1,0.7-1.9,1.5-2.6,2.6L-108.8,92.3z M-98.7,105.1c-1.3,0-2.6-0.3-3.7-0.9l6.7-6.7l2.9,0.8l2-2
		c0,0.3,0.1,0.6,0.1,0.9C-90.7,101.5-94.3,105.1-98.7,105.1z M-93.2,96.7l-2.9-0.8l-9.1,9.1c-0.5,0.5-1.3,0.5-1.8,0s-0.5-1.3,0-1.8
		l9.1-9.1l-0.8-2.9l3.1-3.1l1.4,0.3l-2.8,2.8l3.7,3.7l2.8-2.8l0.3,1.4L-93.2,96.7z"/>
</g>
<g>
	<path class="st0" d="M46.6,21.5H45l-2.3,1.2c-0.3-0.1-0.5-0.3-0.8-0.3l-2.9-0.7v-0.3c1.3-0.9,2.1-2.4,2.1-4v-1.2
		c0-2.7-2.1-5-4.7-5.1c-0.1,0-0.3,0-0.4,0l0.8-1.8L33,5.6L30.8,7c-0.8-0.5-1.7-0.8-2.6-1.1l-0.5-2.5h-5.3l-0.5,2.5
		C20.9,6.2,20,6.5,19.2,7L17,5.6l-3.7,3.7l0.7,1.8c0,0-0.1,0-0.1,0c-1.3,0-2.6,0.4-3.5,1.4c-1,0.9-1.5,2.2-1.5,3.5v1.4
		c0,1.6,0.8,3.1,2.1,4v0.3l-1.9,0.5l-3.5-2H3.4v14.4l6.9,2.3h1.3l0.2-0.6l2.1,1.3c0,1.1,1,2.1,2.1,2.1c0,1.1,1,2.1,2.1,2.1
		c0,1.1,1,2.1,2.1,2.1c0,1.2,1,2.1,2.2,2.1c0.4,0,0.9-0.1,1.2-0.4l0.6,0.5c0.4,0.3,0.9,0.5,1.4,0.5h0.1c1.2,0,2.1-0.9,2.1-2.1
		c1.1,0,2.1-0.9,2.1-2.1c1.1,0,2.1-0.9,2.1-2.1c1.2,0,2.1-1,2.1-2.1c0-0.1,0-0.1,0-0.2l12.6-6.3V21.5z M39.6,16.1v1.2
		c0,1.2-0.7,2.4-1.7,3l-0.3,0.2l0,2.2l3.5,0.9l-7.7,4v-1.9c0-0.9-0.4-1.8-1-2.4l2.4-0.6v-2.2l-0.3-0.2c-1.1-0.6-1.7-1.8-1.7-3v-1.4
		c0-1,0.4-1.8,1.1-2.5c0.7-0.7,1.6-1,2.5-1C38.1,12.5,39.6,14.2,39.6,16.1z M26.1,27.1l-3.2-1c-1.4-0.5-3-0.5-4.5-0.2L18,26v-0.2
		c0-1,0.7-1.8,1.6-2l4-1v-2.2l-0.3-0.2c-1.1-0.6-1.7-1.8-1.7-3v-1.4c0-1,0.4-1.8,1.1-2.5c0.7-0.7,1.6-1,2.5-1
		c1.9,0.1,3.4,1.7,3.4,3.7v1.2c0,1.2-0.7,2.4-1.7,3l-0.3,0.2l0,2.2l4,1c0.9,0.2,1.6,1.1,1.6,2v2.6l-0.2,0.1h-0.4l-4.3-1.2
		C26.7,27.2,26.4,27.1,26.1,27.1z M18.2,13.8c1.3-2.5,3.9-4.2,6.8-4.2c2.8,0,5.5,1.6,6.8,4.1c-0.3,0.7-0.5,1.4-0.5,2.2v1.4
		c0,1.6,0.8,3.1,2.1,4v0.3l-2.8,0.7l-2.8-0.7v-0.3c1.3-0.9,2.1-2.4,2.1-4v-1.2c0-2.7-2.1-5-4.7-5.1c-1.3,0-2.6,0.4-3.5,1.4
		c-1,0.9-1.5,2.2-1.5,3.5v1.4c0,1.6,0.8,3.1,2.1,4v0.3l-2.8,0.7l-2.8-0.7v-0.3c1.3-0.9,2.1-2.4,2.1-4v-1.2
		C18.7,15.3,18.5,14.5,18.2,13.8z M15,9.6l2.2-2.2l2,1.3l0.4-0.2c0.9-0.6,2-1,3-1.3L23,7.1l0.5-2.3h3.1L27,7.1l0.4,0.1
		c1.1,0.3,2.1,0.7,3,1.3l0.4,0.2l2-1.3L35,9.6l-0.8,1.9c-0.5,0.2-1,0.6-1.5,1c0,0-0.1,0.1-0.1,0.1C31,9.9,28.1,8.3,25,8.3
		c-3.2,0-6.1,1.7-7.7,4.3c-0.4-0.5-1-0.8-1.5-1.1L15,9.6z M12.5,22.8v-2.2l-0.3-0.2c-1.1-0.6-1.7-1.8-1.7-3v-1.4
		c0-1,0.4-1.8,1.1-2.5c0.7-0.7,1.6-1,2.5-1c1.9,0.1,3.4,1.7,3.4,3.7v1.2c0,1.2-0.7,2.4-1.7,3l-0.3,0.2l0,2.2l2.4,0.6
		c-0.6,0.6-1,1.5-1,2.4v0.5l-2.2,0.5l0.1-0.2l0-1.3l-3.7-2.1L12.5,22.8z M4.8,21.5h0.5l5,2.9L7.8,34.6l-3-1V21.5z M10.5,35.5L9.1,35
		l2.5-9.8l1.6,0.9v0.2L10.5,35.5L10.5,35.5z M15.2,37.5c0-0.2,0.1-0.4,0.2-0.6l1.2-1.2c0.1-0.1,0.3-0.2,0.6-0.2
		c0.4,0,0.8,0.4,0.8,0.8c0,0.2-0.1,0.4-0.2,0.6L16.6,38c-0.1,0.1-0.3,0.2-0.6,0.2C15.6,38.2,15.2,37.9,15.2,37.5z M17.3,39.6
		c0-0.2,0.1-0.4,0.2-0.6l1.2-1.2c0.1-0.1,0.3-0.2,0.6-0.2c0.4,0,0.8,0.4,0.8,0.8c0,0.2-0.1,0.4-0.2,0.6l-1.2,1.2
		c-0.1,0.1-0.3,0.2-0.6,0.2C17.7,40.3,17.3,40,17.3,39.6z M19.4,41.6c0-0.2,0.1-0.4,0.2-0.6l1.2-1.2c0.1-0.1,0.3-0.2,0.6-0.2
		c0.4,0,0.8,0.4,0.8,0.8c0,0.2-0.1,0.4-0.2,0.6l-1.2,1.2c-0.1,0.1-0.3,0.2-0.6,0.2C19.8,42.4,19.4,42.1,19.4,41.6z M22.3,44.5
		c-0.4,0-0.8-0.4-0.8-0.8c0-0.2,0.1-0.4,0.2-0.6L23,42c0.1-0.1,0.3-0.2,0.6-0.2c0.4,0,0.8,0.4,0.8,0.8c0,0.2-0.1,0.4-0.2,0.6
		l-1.2,1.2C22.7,44.4,22.5,44.5,22.3,44.5z M25.7,45.2h-0.1c-0.2,0-0.3-0.1-0.5-0.2l-0.5-0.5l0.5-0.5c0.2-0.2,0.3-0.4,0.4-0.6
		l0.6,0.5c0.2,0.1,0.3,0.3,0.3,0.6C26.4,44.9,26.1,45.2,25.7,45.2z M31.9,38.9h-0.1c-0.2,0-0.3-0.1-0.5-0.2l-3.8-3.2l-0.9,1.1
		l3.7,3.1c0.2,0.1,0.3,0.3,0.3,0.6c0,0.4-0.3,0.7-0.7,0.7h-0.2c-0.2,0-0.3-0.1-0.5-0.2l-3.8-3.2l-0.9,1.1l3.7,3.1
		c0.2,0.1,0.3,0.3,0.3,0.6c0,0.4-0.3,0.7-0.7,0.7c-0.3,0-0.5-0.1-0.7-0.3l-1.6-1.3c-0.3-0.7-1-1.2-1.9-1.2c0-1.1-1-2.1-2.1-2.1
		c0-1.1-1-2.1-2.1-2.1c0-1.2-1-2.1-2.2-2.1c-0.6,0-1.1,0.2-1.5,0.6l-1.2,1.2c-0.1,0.1-0.1,0.2-0.2,0.2l-2.1-1.3l1.9-6.6l4.7-1
		c1.2-0.3,2.5-0.2,3.7,0.2l1,0.3L20,29.5c-0.8,0.4-1.3,1.2-1.3,2.1v0.1c0,1.3,1,2.3,2.3,2.3c0.4,0,0.8-0.1,1.2-0.3l2.6-1.6
		c0.5-0.3,1.2-0.2,1.7,0.2l5.9,5.3c0.2,0.1,0.2,0.3,0.2,0.6C32.7,38.6,32.3,38.9,31.9,38.9z M45.2,30.8l-11.7,5.9
		c0,0-0.1-0.1-0.1-0.1l-5.9-5.3c-0.5-0.5-1.2-0.7-1.9-0.7c-0.5,0-1,0.1-1.4,0.4l-2.6,1.6c-0.1,0.1-0.3,0.1-0.5,0.1
		c-0.5,0-0.9-0.4-0.9-0.9v-0.1c0-0.4,0.2-0.7,0.5-0.8l3.9-1.9c0.7-0.3,1.5-0.4,2.2-0.2l4.4,1.3l1.1,0L45.2,23V30.8z"/>
</g>
</svg>
