<?xml version="1.0" encoding="utf-8"?>
<!-- Generator: Adobe Illustrator 21.0.0, SVG Export Plug-In . SVG Version: 6.00 Build 0)  -->
<svg version="1.1" id="Capa_1" xmlns="http://www.w3.org/2000/svg" xmlns:xlink="http://www.w3.org/1999/xlink" x="0px" y="0px"
	 viewBox="0 0 50 50" style="enable-background:new 0 0 50 50;" xml:space="preserve">
<style type="text/css">
	.st0{fill:#10485F;}
</style>
<g>
	<path class="st0" d="M-112.6,75.3v4.1h2.8V78h-1.4v-2.8h-1.4V75.3z"/>
	<path class="st0" d="M-121.5,96h1.4v11.1h-1.4V96z"/>
	<path class="st0" d="M-88.6,94l-1.1-4.5l-3.6,3.6l-1.8-1.8l3.6-3.6l-4.5-1.1l-1.3,1.3c-0.7-0.1-1.5-0.2-2.2-0.1l-4.4-3.6v1.6
		l-1.9-1.3v-1.2l2.1-1.4v-2.4h0.7c1.5,0,2.8-1,3.3-2.4s0-3-1.2-3.9l0,0v-0.7c0-5.3-4.3-9.7-9.7-9.7s-9.7,4.3-9.7,9.7v0.7l0,0
		c-1.1,0.8-1.6,2.2-1.3,3.5s1.3,2.4,2.7,2.6v2.8h6.9v-1.4h-5.5v-1.4h1.4v-4.6l2.2-2.2l0.5,0.3c1.8,1.1,4,1.1,5.8,0l0.5-0.3l2.2,2.2
		V81l-3.7,2.4h-6.7v1l-3.2,2.2l-6.1,1.8c-1.5,0.4-2.5,1.8-2.5,3.3v15.1h1.4V92c0-0.9,0.6-1.7,1.5-2l5.5-1.7l2.5,7.6l2.6-2.6l2.4,0.5
		v7.7h1.4v-7.7l2.7-0.4c-1.1,2.5-1,5.4,0.3,7.9l-0.9,0.9c-1,1-1,2.7,0,3.7s2.7,1,3.7,0l0.8-0.8c3.2,1.9,7.2,1.7,10.3-0.5
		c3-2.2,4.4-6,3.5-9.6L-88.6,94z M-100.9,76c0,1.1-0.9,2.1-2.1,2.1h-0.7V74h0.7C-101.8,73.9-100.9,74.9-100.9,76z M-117.5,78.1h-0.7
		c-1.1,0-2.1-0.9-2.1-2.1c0-1.1,0.9-2.1,2.1-2.1h0.7V78.1z M-117.5,72.6h-0.7c-0.2,0-0.5,0-0.7,0.1v-0.1c0-4.6,3.7-8.3,8.3-8.3
		s8.3,3.7,8.3,8.3v0.1c-0.2,0-0.5-0.1-0.7-0.1h-0.7c0-3.8-3.1-6.9-6.9-6.9S-117.5,68.7-117.5,72.6z M-107,71l-1.4,0.9
		c-1.3,0.8-3,0.8-4.3,0l-1.4-0.9l-2,2v-0.4c0-3.1,2.5-5.5,5.5-5.5s5.5,2.5,5.5,5.5V73L-107,71z M-102.8,90.3l0.3-0.2v-3l2.6,2.1h0.3
		c0.3,0,0.6-0.1,0.9-0.1c0.1,0,0.1,0,0.2,0l-1.7,1.7l0.8,2.9l-6.5,6.5C-107.5,96.6-106.2,92.4-102.8,90.3L-102.8,90.3z M-114.1,91.8
		l-1.5,1.5l-1.9-5.6l2.1-1.5v2.5l2.9,3.3L-114.1,91.8z M-110.6,92.2l-3.5-3.9V85h5.7l1.2-0.8v4.1L-110.6,92.2z M-108.8,92.3l3-3.5
		v-2.7l1.9,1.3v1.9c-1,0.7-1.9,1.5-2.6,2.6L-108.8,92.3z M-98.7,105.1c-1.3,0-2.6-0.3-3.7-0.9l6.7-6.7l2.9,0.8l2-2
		c0,0.3,0.1,0.6,0.1,0.9C-90.7,101.5-94.3,105.1-98.7,105.1z M-93.2,96.7l-2.9-0.8l-9.1,9.1c-0.5,0.5-1.3,0.5-1.8,0s-0.5-1.3,0-1.8
		l9.1-9.1l-0.8-2.9l3.1-3.1l1.4,0.3l-2.8,2.8l3.7,3.7l2.8-2.8l0.3,1.4L-93.2,96.7z"/>
</g>
<g id="Page-1">
	<g id="_x30_04---Printer">
		<path id="Shape" class="st0" d="M45.4,20.7C45.4,20.7,45.4,20.7,45.4,20.7c0-0.1-0.1-0.2-0.1-0.2l-5.8-6.4c-0.8-0.9-1.9-1.3-3-1.3
			h-3.3V5.9c0-0.8-0.6-1.4-1.4-1.4H18.2c-0.8,0-1.4,0.6-1.4,1.4v6.8h-3.3c-1.2,0-2.3,0.5-3,1.3l-5.8,6.4c0,0.1-0.1,0.1-0.1,0.2
			c0,0,0,0,0,0c0,0.1,0,0.1,0,0.2c0,0,0,0,0,0v12.9c0,2.3,1.8,4.1,4.1,4.1h4.8L11,41.2c-0.3,0.4-0.4,1-0.1,1.4
			c0.2,0.5,0.7,0.8,1.2,0.8h4L16,43.5c-0.2,0.4-0.2,0.9,0.1,1.3c0.3,0.4,0.7,0.6,1.1,0.6h15.6c0.5,0,0.9-0.2,1.1-0.6
			c0.3-0.4,0.3-0.9,0.1-1.3L34,43.4h4c0.5,0,1-0.3,1.2-0.8c0.2-0.5,0.2-1-0.1-1.4l-2.5-3.3h4.8c2.3,0,4.1-1.8,4.1-4.1V20.9
			c0,0,0,0,0,0C45.4,20.8,45.4,20.7,45.4,20.7z M18.2,5.9h13.6v10.9H18.2V5.9z M11.5,15c0.5-0.6,1.2-0.9,2-0.9h3.3v2.7h-0.7
			c-0.4,0-0.7,0.3-0.7,0.7c0,0.4,0.3,0.7,0.7,0.7h17.7c0.4,0,0.7-0.3,0.7-0.7c0-0.4-0.3-0.7-0.7-0.7h-0.7v-2.7h3.3
			c0.8,0,1.5,0.3,2,0.9l4.8,5.2H6.8L11.5,15z M35.2,36.1l-1.4-1.8v-1.1c0-1.1-0.9-2-2-2H18.2c-1.1,0-2,0.9-2,2v1.1l-1.4,1.8v-5
			c0-2.6,2.1-4.8,4.8-4.8h10.9c2.6,0,4.8,2.1,4.8,4.8V36.1z M32.5,33.9h-15v-0.7c0-0.4,0.3-0.7,0.7-0.7h13.6c0.4,0,0.7,0.3,0.7,0.7
			V33.9z M17.2,44.1l2.8-6.1h10l2.8,6.1H17.2z M33.4,42l-2.3-5l0,0c0-0.1-0.1-0.1-0.1-0.2c0,0,0,0,0,0c0,0-0.1-0.1-0.1-0.1
			c0,0,0,0-0.1,0c-0.1,0-0.2,0-0.2,0H19.5c-0.1,0-0.2,0-0.2,0c0,0,0,0-0.1,0c-0.1,0-0.1,0.1-0.1,0.1c0,0,0,0,0,0
			C19,36.9,19,36.9,18.9,37l0,0l-2.3,5h-4.6l5.1-6.8h15.7l5.1,6.8H33.4z M44.1,33.9c0,1.5-1.2,2.7-2.7,2.7h-4.8v-5.5
			c0-3.4-2.7-6.1-6.1-6.1H19.5c-3.4,0-6.1,2.7-6.1,6.1v5.5H8.6c-1.5,0-2.7-1.2-2.7-2.7V21.6h38.2V33.9z"/>
		<path id="Shape_1_" class="st0" d="M40.7,27.7c1.1,0,2-0.9,2-2c0-1.1-0.9-2-2-2c-1.1,0-2,0.9-2,2C38.6,26.8,39.5,27.7,40.7,27.7z
			 M40.7,25c0.4,0,0.7,0.3,0.7,0.7s-0.3,0.7-0.7,0.7S40,26.1,40,25.7S40.3,25,40.7,25z"/>
		<circle id="Oval" class="st0" cx="40.7" cy="29.8" r="0.7"/>
		<circle id="Oval_1_" class="st0" cx="40.7" cy="31.8" r="0.7"/>
		<circle id="Oval_2_" class="st0" cx="40.7" cy="33.9" r="0.7"/>
		<path id="Shape_2_" class="st0" d="M22.3,40.7h5.5c0.4,0,0.7-0.3,0.7-0.7c0-0.4-0.3-0.7-0.7-0.7h-5.5c-0.4,0-0.7,0.3-0.7,0.7
			C21.6,40.4,21.9,40.7,22.3,40.7z"/>
		<path id="Shape_3_" class="st0" d="M29.1,41.4h-8.2c-0.4,0-0.7,0.3-0.7,0.7s0.3,0.7,0.7,0.7h8.2c0.4,0,0.7-0.3,0.7-0.7
			S29.5,41.4,29.1,41.4z"/>
		<path id="Shape_4_" class="st0" d="M8,25c0.4,0,0.7-0.3,0.7-0.7v-0.7C8.6,23.3,8.3,23,8,23s-0.7,0.3-0.7,0.7v0.7
			C7.3,24.7,7.6,25,8,25z"/>
		<path id="Shape_5_" class="st0" d="M8,31.8c0.4,0,0.7-0.3,0.7-0.7V27c0-0.4-0.3-0.7-0.7-0.7S7.3,26.7,7.3,27v4.1
			C7.3,31.5,7.6,31.8,8,31.8z"/>
	</g>
</g>
</svg>
