<?xml version="1.0" encoding="utf-8"?>
<!-- Generator: Adobe Illustrator 19.0.0, SVG Export Plug-In . SVG Version: 6.00 Build 0)  -->
<svg version="1.1" id="Layer_1" xmlns="http://www.w3.org/2000/svg" xmlns:xlink="http://www.w3.org/1999/xlink" x="0px" y="0px"
	 viewBox="-395 273.3 50 50" style="enable-background:new -395 273.3 50 50;" xml:space="preserve">
<style type="text/css">
	.st0{fill:#FFFFFF;}
</style>
<g>
	<g>
		<path class="st0" d="M-356.8,303.2c-0.9-0.9-2-1.4-3.1-1.4c-1.1,0-2.2,0.5-3.2,1.4l-2.9,2.9c-0.2-0.1-0.5-0.3-0.7-0.4
			c-0.3-0.2-0.7-0.3-0.9-0.5c-2.8-1.8-5.3-4-7.7-7c-1.2-1.5-1.9-2.7-2.5-4c0.8-0.7,1.5-1.4,2.2-2.1c0.3-0.3,0.5-0.5,0.8-0.8
			c2-2,2-4.5,0-6.4l-2.5-2.5c-0.3-0.3-0.6-0.6-0.9-0.9c-0.6-0.6-1.1-1.2-1.8-1.7c-0.9-0.9-2-1.4-3.1-1.4c-1.1,0-2.2,0.5-3.2,1.4
			c0,0,0,0,0,0l-3.2,3.2c-1.2,1.2-1.9,2.6-2,4.3c-0.2,2.7,0.6,5.3,1.2,6.9c1.5,4.1,3.8,7.8,7.1,11.9c4.1,4.9,9,8.7,14.6,11.4
			c2.1,1,5,2.2,8.2,2.4c0.2,0,0.4,0,0.6,0c2.1,0,4-0.8,5.4-2.3c0,0,0,0,0,0c0.5-0.6,1-1.1,1.6-1.7c0.4-0.4,0.8-0.8,1.2-1.2
			c0.9-1,1.4-2.1,1.4-3.2c0-1.2-0.5-2.3-1.4-3.2L-356.8,303.2z M-353.4,313C-353.4,313-353.4,313-353.4,313
			c-0.4,0.4-0.7,0.7-1.1,1.1c-0.6,0.6-1.2,1.2-1.8,1.9c-0.9,1-2,1.5-3.5,1.5c-0.1,0-0.3,0-0.4,0c-2.8-0.2-5.3-1.3-7.3-2.2
			c-5.3-2.6-9.9-6.2-13.8-10.8c-3.2-3.8-5.3-7.4-6.7-11.2c-0.9-2.3-1.2-4.1-1-5.8c0.1-1.1,0.5-2,1.3-2.8l3.2-3.2
			c0.5-0.4,0.9-0.7,1.4-0.7c0.6,0,1.1,0.4,1.4,0.7c0,0,0,0,0,0c0.6,0.5,1.1,1.1,1.7,1.7c0.3,0.3,0.6,0.6,0.9,0.9l2.5,2.5
			c1,1,1,1.9,0,2.9c-0.3,0.3-0.5,0.5-0.8,0.8c-0.8,0.8-1.5,1.5-2.3,2.3c0,0,0,0,0,0c-0.8,0.8-0.7,1.6-0.5,2.1c0,0,0,0.1,0,0.1
			c0.7,1.6,1.6,3.1,3,4.9l0,0c2.6,3.2,5.3,5.6,8.3,7.5c0.4,0.2,0.8,0.4,1.1,0.6c0.3,0.2,0.7,0.3,0.9,0.5c0,0,0.1,0,0.1,0.1
			c0.3,0.2,0.6,0.2,0.9,0.2c0.8,0,1.3-0.5,1.4-0.6l3.2-3.2c0.3-0.3,0.8-0.7,1.4-0.7c0.6,0,1.1,0.4,1.3,0.7c0,0,0,0,0,0l5.1,5.1
			C-352.5,311.1-352.5,312.1-353.4,313L-353.4,313z"/>
		<path class="st0" d="M-367.8,286.4c2.4,0.4,4.7,1.6,6.4,3.3c1.8,1.8,2.9,4,3.3,6.4c0.1,0.6,0.6,1,1.2,1c0.1,0,0.1,0,0.2,0
			c0.7-0.1,1.1-0.8,1-1.5c-0.5-3-1.9-5.6-4-7.8c-2.1-2.1-4.8-3.5-7.8-4c-0.7-0.1-1.3,0.3-1.5,1
			C-368.9,285.6-368.5,286.3-367.8,286.4L-367.8,286.4z"/>
		<path class="st0" d="M-347.6,295.4c-0.8-4.9-3.1-9.3-6.6-12.8c-3.5-3.5-7.9-5.8-12.8-6.6c-0.7-0.1-1.3,0.3-1.4,1
			c-0.1,0.7,0.3,1.3,1,1.5c4.3,0.7,8.3,2.8,11.4,5.9c3.1,3.1,5.2,7.1,5.9,11.4c0.1,0.6,0.6,1,1.2,1c0.1,0,0.1,0,0.2,0
			C-347.9,296.7-347.4,296-347.6,295.4L-347.6,295.4z"/>
	</g>
</g>
</svg>
