<?xml version="1.0" encoding="utf-8"?>
<!-- Generator: Adobe Illustrator 21.0.0, SVG Export Plug-In . SVG Version: 6.00 Build 0)  -->
<svg version="1.1" id="Capa_1" xmlns="http://www.w3.org/2000/svg" xmlns:xlink="http://www.w3.org/1999/xlink" x="0px" y="0px"
	 viewBox="0 0 50 50" style="enable-background:new 0 0 50 50;" xml:space="preserve">
<style type="text/css">
	.st0{fill:#10485F;}
</style>
<g>
	<g>
		<rect x="8.7" y="30.4" class="st0" width="1.4" height="1.4"/>
		<rect x="11.4" y="30.4" class="st0" width="1.4" height="1.4"/>
		<rect x="14.1" y="30.4" class="st0" width="1.4" height="1.4"/>
		<rect x="8.9" y="38.4" class="st0" width="9.7" height="1.4"/>
		<rect x="8.9" y="34.6" class="st0" width="9.7" height="1.4"/>
	</g>
	<g>
		<path class="st0" d="M3.4,23v23.6h20.7V28.7L18.2,23H3.4z M22.7,45.3h-18V24.3h13l5.1,5L22.7,45.3L22.7,45.3z"/>
		<path class="st0" d="M31.8,3.4l-5.8,5.8V27h20.7V3.4H31.8z M45.3,25.7h-18V9.7l5-5h13V25.7z"/>
		<path class="st0" d="M39.7,35.3l0.9,0.9l1.6-1.6c-0.9,5.9-6,10.5-12.2,10.5v1.4c7,0,12.8-5.3,13.6-12.2l1.8,1.8l0.9-0.9L43.1,32
			L39.7,35.3z"/>
		<path class="st0" d="M10.3,14.7l-0.9-0.9l-1.6,1.6C8.6,9.3,13.7,4.7,19.9,4.7V3.4c-7,0-12.8,5.3-13.6,12.2l-1.8-1.8l-0.9,0.9
			L6.9,18L10.3,14.7z"/>
	</g>
	<g>
		<rect x="39.9" y="10.8" class="st0" width="1.4" height="1.4"/>
		<rect x="37.2" y="10.8" class="st0" width="1.4" height="1.4"/>
		<rect x="34.6" y="10.8" class="st0" width="1.4" height="1.4"/>
		<rect x="31.4" y="18.8" class="st0" width="9.7" height="1.4"/>
		<rect x="31.4" y="15" class="st0" width="9.7" height="1.4"/>
	</g>
</g>
</svg>
