<?xml version="1.0" encoding="utf-8"?>
<!-- Generator: Adobe Illustrator 21.0.0, SVG Export Plug-In . SVG Version: 6.00 Build 0)  -->
<svg version="1.1" id="Capa_1" xmlns="http://www.w3.org/2000/svg" xmlns:xlink="http://www.w3.org/1999/xlink" x="0px" y="0px"
	 viewBox="0 0 50 50" style="enable-background:new 0 0 50 50;" xml:space="preserve">
<style type="text/css">
	.st0{fill:#10485F;}
</style>
<g>
	<path class="st0" d="M44.5,23.7c-0.6-0.6-1.4-0.9-2.3-1c-1,0-1.9,0.3-2.5,1l-4.6,4.5c-0.1-0.2-0.2-0.3-0.3-0.4
		c-0.6-0.7-1.4-1-2.3-1h-6.4c-1.2,0-2.4-0.2-3.5-0.5c-2.9-0.8-5.7-0.2-8,1.7c-1,0.8-1.6,1.6-2.1,2.2l-1.1-1.1
		c-0.2-0.1-0.4-0.2-0.6-0.2c0,0,0,0,0,0c-0.2,0-0.4,0.1-0.6,0.2l-5.6,5.8c-0.1,0.2-0.2,0.4-0.2,0.6c0,0.2,0.1,0.4,0.2,0.6l9.4,9
		c0.2,0.1,0.4,0.2,0.6,0.2c0.2,0,0.4-0.1,0.6-0.2l5.5-5.7c0.2-0.2,0.2-0.4,0.2-0.6c0-0.2-0.1-0.4-0.2-0.6l-0.5-0.5l1.1-0.1
		c0.7-0.1,1.3-0.1,2-0.1h9.7c1.6,0,2.9-0.3,4-1c0,0,0,0,0,0c0.4-0.3,0.7-0.6,1-0.9l6.5-7.7C45.8,26.4,45.8,24.8,44.5,23.7z
		 M14.7,43.2l-8.2-7.8l4.4-4.6l8.2,8L14.7,43.2z M43.5,26.7l-6.5,7.7c-0.2,0.2-0.4,0.5-0.7,0.6c-0.8,0.5-1.8,0.8-3.1,0.8h-9.7
		c-0.7,0-1.5,0-2.2,0.1l-2.4,0.3l-5.1-4.9c0.4-0.5,1-1.4,1.9-2.1c1.9-1.6,4.2-2.1,6.6-1.4c1.3,0.3,2.6,0.5,3.9,0.5h6.4
		c1.1,0,1.5,1,1.5,1.6c0,0.4-0.1,0.8-0.4,1.1c-0.3,0.3-0.6,0.5-1.1,0.5H27c-0.4,0-0.8,0.4-0.8,0.8c0,0.4,0.4,0.8,0.8,0.8h5.6
		c0.9,0,1.8-0.4,2.3-1c0.5-0.6,0.7-1.3,0.8-2.1l5.3-5.2c0.8-0.8,1.9-0.6,2.6,0C43.8,25.2,44.2,25.8,43.5,26.7z"/>
	<path class="st0" d="M24.4,32.1c-0.1-0.4-0.5-0.7-1-0.6c-0.4,0.1-0.7,0.5-0.6,1l0,0c0.1,0.4,0.4,0.6,0.8,0.6c0.1,0,0.1,0,0.2,0
		C24.3,33,24.6,32.5,24.4,32.1L24.4,32.1z"/>
	<path class="st0" d="M10,21.8h7.9c0.4,0,0.8-0.1,1.1-0.4c0.3,0.2,0.7,0.4,1.1,0.4H28c0.4,0,0.8-0.1,1.1-0.4
		c0.3,0.2,0.7,0.4,1.1,0.4h7.9c1.1,0,2-0.9,2-2v-3.7c0-1.6-0.9-3.1-2.3-3.8c0.7-0.8,1.1-1.8,1.1-3c0-2.6-2.1-4.7-4.7-4.7
		c-2.6,0-4.7,2.1-4.7,4.7c0,1.1,0.4,2.2,1.1,3c-0.6,0.3-1.1,0.7-1.5,1.3c-0.4-0.5-0.9-1-1.5-1.3c0.7-0.8,1.1-1.8,1.1-3
		c0-2.6-2.1-4.7-4.7-4.7s-4.7,2.1-4.7,4.7c0,1.1,0.4,2.2,1.1,3c-0.6,0.3-1.1,0.7-1.5,1.3c-0.4-0.5-0.9-1-1.5-1.3
		c0.7-0.8,1.1-1.8,1.1-3c0-2.6-2.1-4.7-4.7-4.7c-2.6,0-4.7,2.1-4.7,4.7c0,1.1,0.4,2.2,1.1,3C8.9,13.1,8,14.6,8,16.2v3.7
		C8,21,8.9,21.8,10,21.8z M34.2,6.4c1.7,0,3,1.4,3,3c0,1.7-1.4,3-3,3c-1.7,0-3-1.4-3-3C31.1,7.8,32.5,6.4,34.2,6.4z M32.1,13.6
		c0.6,0.3,1.3,0.5,2.1,0.5c0.8,0,1.5-0.2,2.1-0.5c1.3,0.2,2.2,1.3,2.2,2.6v3.7c0,0.2-0.2,0.3-0.3,0.3h-7.9c-0.2,0-0.3-0.2-0.3-0.3
		v-3.7C29.9,14.9,30.8,13.8,32.1,13.6z M24,6.4c1.7,0,3,1.4,3,3c0,1.7-1.4,3-3,3c-1.7,0-3-1.4-3-3S22.4,6.4,24,6.4z M21.9,13.6
		c0.6,0.3,1.3,0.5,2.1,0.5c0.8,0,1.5-0.2,2.1-0.5c1.3,0.2,2.2,1.3,2.2,2.6v3.7c0,0.2-0.2,0.3-0.3,0.3h-7.9c-0.2,0-0.3-0.2-0.3-0.3
		v-3.7C19.8,14.9,20.7,13.8,21.9,13.6z M13.9,6.4c1.7,0,3,1.4,3,3c0,1.7-1.4,3-3,3s-3-1.4-3-3C10.8,7.8,12.2,6.4,13.9,6.4z
		 M9.6,16.2c0-1.3,0.9-2.4,2.2-2.6c0.6,0.3,1.3,0.5,2.1,0.5s1.5-0.2,2.1-0.5c1.3,0.2,2.2,1.3,2.2,2.6v3.7c0,0.2-0.2,0.3-0.3,0.3H10
		c-0.2,0-0.3-0.2-0.3-0.3V16.2z"/>
</g>
</svg>
