<?xml version="1.0" encoding="utf-8"?>
<!-- Generator: Adobe Illustrator 21.0.0, SVG Export Plug-In . SVG Version: 6.00 Build 0)  -->
<svg version="1.1" id="Capa_1" xmlns="http://www.w3.org/2000/svg" xmlns:xlink="http://www.w3.org/1999/xlink" x="0px" y="0px"
	 viewBox="0 0 50 50" style="enable-background:new 0 0 50 50;" xml:space="preserve">
<style type="text/css">
	.st0{fill:#10485F;}
</style>
<g>
	<path class="st0" d="M-112.6,75.3v4.1h2.8v-1.4h-1.4v-2.8H-112.6z"/>
	<path class="st0" d="M-121.5,96h1.4v11.1h-1.4V96z"/>
	<path class="st0" d="M-88.6,94l-1.1-4.5l-3.6,3.6l-1.8-1.8l3.6-3.6l-4.5-1.1l-1.3,1.3c-0.7-0.1-1.5-0.2-2.2-0.1l-4.4-3.6v1.6
		l-1.9-1.3v-1.2l2.1-1.4v-2.4h0.7c1.5,0,2.8-1,3.3-2.4c0.5-1.4,0-3-1.2-3.9h0v-0.7c0-5.3-4.3-9.7-9.7-9.7s-9.7,4.3-9.7,9.7v0.7h0
		c-1.1,0.8-1.6,2.2-1.3,3.5s1.3,2.4,2.7,2.6v2.8h6.9v-1.4h-5.5v-1.4h1.4v-4.6l2.2-2.2l0.5,0.3c1.8,1.1,4,1.1,5.8,0l0.5-0.3l2.2,2.2
		v6.3l-3.7,2.4h-6.7v1l-3.2,2.2l-6.1,1.8c-1.5,0.4-2.5,1.8-2.5,3.3v15.1h1.4V92c0-0.9,0.6-1.7,1.5-2l5.5-1.7l2.5,7.6l2.6-2.6
		l2.4,0.5v7.7h1.4v-7.7l2.7-0.4c-1.1,2.5-1,5.4,0.3,7.9l-0.9,0.9c-1,1-1,2.7,0,3.7c1,1,2.7,1,3.7,0l0.8-0.8
		c3.2,1.9,7.2,1.7,10.3-0.5c3-2.2,4.4-6,3.5-9.6L-88.6,94z M-100.9,76c0,1.1-0.9,2.1-2.1,2.1h-0.7v-4.1h0.7
		C-101.8,73.9-100.9,74.9-100.9,76z M-117.5,78.1h-0.7c-1.1,0-2.1-0.9-2.1-2.1c0-1.1,0.9-2.1,2.1-2.1h0.7V78.1z M-117.5,72.6h-0.7
		c-0.2,0-0.5,0-0.7,0.1v-0.1c0-4.6,3.7-8.3,8.3-8.3s8.3,3.7,8.3,8.3v0.1c-0.2,0-0.5-0.1-0.7-0.1h-0.7c0-3.8-3.1-6.9-6.9-6.9
		S-117.5,68.7-117.5,72.6z M-107,71l-1.4,0.9c-1.3,0.8-3,0.8-4.3,0l-1.4-0.9l-2,2v-0.4c0-3.1,2.5-5.5,5.5-5.5s5.5,2.5,5.5,5.5V73
		L-107,71z M-102.8,90.3l0.3-0.2v-3l2.6,2.1l0.3,0c0.3,0,0.6-0.1,0.9-0.1c0.1,0,0.1,0,0.2,0l-1.7,1.7l0.8,2.9l-6.5,6.5
		C-107.5,96.6-106.2,92.4-102.8,90.3L-102.8,90.3z M-114.1,91.8l-1.5,1.5l-1.9-5.6l2.1-1.5v2.5l2.9,3.3L-114.1,91.8z M-110.6,92.2
		l-3.5-3.9V85h5.7l1.2-0.8v4.1L-110.6,92.2z M-108.8,92.3l3-3.5v-2.7l1.9,1.3v1.9c-1,0.7-1.9,1.5-2.6,2.6L-108.8,92.3z M-98.7,105.1
		c-1.3,0-2.6-0.3-3.7-0.9l6.7-6.7l2.9,0.8l2-2c0,0.3,0.1,0.6,0.1,0.9C-90.7,101.5-94.3,105.1-98.7,105.1z M-93.2,96.7l-2.9-0.8
		l-9.1,9.1c-0.5,0.5-1.3,0.5-1.8,0c-0.5-0.5-0.5-1.3,0-1.8l9.1-9.1l-0.8-2.9l3.1-3.1l1.4,0.3l-2.8,2.8l3.7,3.7l2.8-2.8l0.3,1.4
		L-93.2,96.7z"/>
</g>
<g>
	<circle class="st0" cx="29.2" cy="20.8" r="0.7"/>
	<circle class="st0" cx="20.8" cy="20.8" r="0.7"/>
	<path class="st0" d="M27.8,25h-1.4c0,0.8-0.6,1.4-1.4,1.4s-1.4-0.6-1.4-1.4h-1.4c0,1.5,1.3,2.8,2.8,2.8S27.8,26.5,27.8,25z"/>
	<path class="st0" d="M36.9,35.7l-7.2-2.9c-0.8-0.3-1.3-1.1-1.3-1.9v-0.5c2.1-1.5,3.8-3.6,4.7-6h0.2c1.9,0,3.5-1.6,3.5-3.5v-5
		c0.8-0.3,1.4-1.1,1.4-2c0-1.1-0.8-2-1.9-2.1c-1.5-5-6.1-8.4-11.3-8.4c-5.2,0-9.8,3.4-11.3,8.4c-1.1,0.1-1.9,1-1.9,2.1
		c0,0.9,0.6,1.7,1.4,2v5c0,1.9,1.6,3.5,3.5,3.5h0.2c0.9,2.4,2.6,4.5,4.7,6v0.5c0,0.9-0.5,1.6-1.3,1.9l-7.2,2.9
		c-4.2,1.7-6.9,5.7-6.9,10.3v0.7h37.6v-0.7C43.8,41.4,41.1,37.4,36.9,35.7z M19.2,38.2l0.5,1.4h-5.5l-0.5-1.4H19.2z M13.8,36.9
		l4.2-1.7l0.7,1.7H13.8z M20.1,42.4h-5.6V41h5.6V42.4z M14.5,43.8h5.6v1.4h-5.6V43.8z M19.3,34.6l1-0.4c1,1.6,2.8,2.6,4.7,2.6
		c1.9,0,3.7-1,4.7-2.6l1,0.4l-2.2,5.6v5h-7v-5L19.3,34.6z M32,35.1l4.2,1.7h-4.9L32,35.1z M35.5,42.4h-5.6V41h5.6V42.4z M29.9,43.8
		h5.6v1.4h-5.6V43.8z M35.7,39.6h-5.5l0.5-1.4h5.4L35.7,39.6z M15.8,17.4c-0.5,0.1-0.9,0.3-1.3,0.6v-1.8
		C14.9,16.7,15.4,17.1,15.8,17.4L15.8,17.4z M16.2,15.9h17.6c-2,1.8-4.6,2.8-7.3,2.8h-3.1C20.8,18.7,18.2,17.7,16.2,15.9L16.2,15.9z
		 M35.5,16.3V18c-0.4-0.3-0.8-0.5-1.3-0.6C34.6,17.1,35.1,16.7,35.5,16.3L35.5,16.3z M33.7,22.9c0.3-1,0.4-2.1,0.4-3.2v-0.8
		c0.8,0.3,1.4,1.1,1.4,2C35.5,21.9,34.7,22.7,33.7,22.9z M18.7,6.9l0.7,3.6l1.4-0.3L20,6.1c0.7-0.4,1.5-0.7,2.4-0.9l0.6,5.3l1.4-0.2
		l-0.6-5.4c0.4-0.1,0.9-0.1,1.3-0.1s0.9,0,1.3,0.1l-0.6,5.4l1.4,0.2l0.6-5.3c0.8,0.2,1.6,0.5,2.4,0.9l-0.8,4.2l1.4,0.3l0.7-3.6
		c1.6,1.2,2.9,2.9,3.6,4.9H15.1C15.8,9.8,17.1,8.1,18.7,6.9L18.7,6.9z M13.8,13.1h22.3c0.4,0,0.7,0.3,0.7,0.7s-0.3,0.7-0.7,0.7H13.8
		c-0.4,0-0.7-0.3-0.7-0.7S13.5,13.1,13.8,13.1L13.8,13.1z M14.5,20.8c0-0.9,0.6-1.7,1.4-2v0.8c0,1.1,0.1,2.2,0.4,3.2
		C15.3,22.7,14.5,21.9,14.5,20.8z M17.3,19.7v-1.2c1.8,1.1,4,1.7,6.1,1.7h3.1c2.2,0,4.3-0.6,6.1-1.7v1.2c0,4.9-3.1,9.2-7.7,10.9
		C20.4,28.9,17.3,24.6,17.3,19.7L17.3,19.7z M24.8,31.9L25,32l0.2-0.1c0.7-0.2,1.3-0.5,1.9-0.8c0.1,1,0.6,1.9,1.4,2.4
		c-0.8,1.2-2.1,1.9-3.5,1.9s-2.7-0.7-3.5-1.9c0.8-0.6,1.3-1.5,1.4-2.4C23.5,31.4,24.1,31.7,24.8,31.9L24.8,31.9z M12.1,37.7l1,2.8
		v4.8H7.6C7.8,42.1,9.5,39.3,12.1,37.7z M36.9,45.2v-4.8l1-2.8c2.6,1.6,4.3,4.4,4.5,7.5H36.9z"/>
	<path class="st0" d="M23.7,44.2l1.2,0.7l2.7-4.5h-2.1l1.5-2.4l-1.2-0.7l-2.7,4.5h2.1L23.7,44.2z"/>
</g>
</svg>
