<?xml version="1.0" encoding="utf-8"?>
<!-- Generator: Adobe Illustrator 21.0.0, SVG Export Plug-In . SVG Version: 6.00 Build 0)  -->
<svg version="1.1" id="Capa_1" xmlns="http://www.w3.org/2000/svg" xmlns:xlink="http://www.w3.org/1999/xlink" x="0px" y="0px"
	 viewBox="0 0 50 50" style="enable-background:new 0 0 50 50;" xml:space="preserve">
<style type="text/css">
	.st0{fill:#10485F;}
</style>
<g>
	<path class="st0" d="M-112.6,75.3v4.1h2.8v-1.4h-1.4v-2.8H-112.6z"/>
	<path class="st0" d="M-121.5,96h1.4v11.1h-1.4V96z"/>
	<path class="st0" d="M-88.6,94l-1.1-4.5l-3.6,3.6l-1.8-1.8l3.6-3.6l-4.5-1.1l-1.3,1.3c-0.7-0.1-1.5-0.2-2.2-0.1l-4.4-3.6v1.6
		l-1.9-1.3v-1.2l2.1-1.4v-2.4h0.7c1.5,0,2.8-1,3.3-2.4c0.5-1.4,0-3-1.2-3.9h0v-0.7c0-5.3-4.3-9.7-9.7-9.7s-9.7,4.3-9.7,9.7v0.7h0
		c-1.1,0.8-1.6,2.2-1.3,3.5s1.3,2.4,2.7,2.6v2.8h6.9v-1.4h-5.5v-1.4h1.4v-4.6l2.2-2.2l0.5,0.3c1.8,1.1,4,1.1,5.8,0l0.5-0.3l2.2,2.2
		v6.3l-3.7,2.4h-6.7v1l-3.2,2.2l-6.1,1.8c-1.5,0.4-2.5,1.8-2.5,3.3v15.1h1.4V92c0-0.9,0.6-1.7,1.5-2l5.5-1.7l2.5,7.6l2.6-2.6
		l2.4,0.5v7.7h1.4v-7.7l2.7-0.4c-1.1,2.5-1,5.4,0.3,7.9l-0.9,0.9c-1,1-1,2.7,0,3.7c1,1,2.7,1,3.7,0l0.8-0.8
		c3.2,1.9,7.2,1.7,10.3-0.5c3-2.2,4.4-6,3.5-9.6L-88.6,94z M-100.9,76c0,1.1-0.9,2.1-2.1,2.1h-0.7v-4.1h0.7
		C-101.8,73.9-100.9,74.9-100.9,76z M-117.5,78.1h-0.7c-1.1,0-2.1-0.9-2.1-2.1c0-1.1,0.9-2.1,2.1-2.1h0.7V78.1z M-117.5,72.6h-0.7
		c-0.2,0-0.5,0-0.7,0.1v-0.1c0-4.6,3.7-8.3,8.3-8.3s8.3,3.7,8.3,8.3v0.1c-0.2,0-0.5-0.1-0.7-0.1h-0.7c0-3.8-3.1-6.9-6.9-6.9
		S-117.5,68.7-117.5,72.6z M-107,71l-1.4,0.9c-1.3,0.8-3,0.8-4.3,0l-1.4-0.9l-2,2v-0.4c0-3.1,2.5-5.5,5.5-5.5s5.5,2.5,5.5,5.5V73
		L-107,71z M-102.8,90.3l0.3-0.2v-3l2.6,2.1l0.3,0c0.3,0,0.6-0.1,0.9-0.1c0.1,0,0.1,0,0.2,0l-1.7,1.7l0.8,2.9l-6.5,6.5
		C-107.5,96.6-106.2,92.4-102.8,90.3L-102.8,90.3z M-114.1,91.8l-1.5,1.5l-1.9-5.6l2.1-1.5v2.5l2.9,3.3L-114.1,91.8z M-110.6,92.2
		l-3.5-3.9V85h5.7l1.2-0.8v4.1L-110.6,92.2z M-108.8,92.3l3-3.5v-2.7l1.9,1.3v1.9c-1,0.7-1.9,1.5-2.6,2.6L-108.8,92.3z M-98.7,105.1
		c-1.3,0-2.6-0.3-3.7-0.9l6.7-6.7l2.9,0.8l2-2c0,0.3,0.1,0.6,0.1,0.9C-90.7,101.5-94.3,105.1-98.7,105.1z M-93.2,96.7l-2.9-0.8
		l-9.1,9.1c-0.5,0.5-1.3,0.5-1.8,0c-0.5-0.5-0.5-1.3,0-1.8l9.1-9.1l-0.8-2.9l3.1-3.1l1.4,0.3l-2.8,2.8l3.7,3.7l2.8-2.8l0.3,1.4
		L-93.2,96.7z"/>
</g>
<g>
	<path class="st0" d="M7.1,17.1H10v1.4H7.1V17.1z"/>
	<path class="st0" d="M45,14.3c1.2,0,2.1-1,2.1-2.1V5c0-1.2-1-2.1-2.1-2.1H35c-1.2,0-2.1,1-2.1,2.1v7.2c0,1.2,1,2.1,2.1,2.1h2.1v1.4
		h-1.4v1.4h3.6v7.2h-3c-0.6-0.6-1.3-1-2.1-1.2c0-0.1,0-0.1,0-0.2c0-3.2-2.6-5.7-5.7-5.7c-2,0-3.8,1-4.8,2.6
		c-0.7-0.3-1.5-0.5-2.3-0.5c-2.4,0-4.5,1.5-5.3,3.7c-0.5,0.1-1,0.3-1.5,0.6H9.3v-2.1h2.9c1.2,0,2.1-1,2.1-2.1V5c0-1.2-1-2.1-2.1-2.1
		H5c-1.2,0-2.1,1-2.1,2.1v14.3c0,1.2,1,2.1,2.1,2.1h2.9V25H13c-0.3,0.4-0.5,0.9-0.7,1.4H9.3v7.9H6.4c-1.2,0-2.1,1-2.1,2.1v6.4H2.8
		V45c0,1.2,1,2.1,2.1,2.1h11.4c1.2,0,2.1-1,2.1-2.1v-2.1h-1.4v-6.4c0-1.2-1-2.1-2.1-2.1h-4.3v-6.4h1.4c0,2.8,2.2,5,5,5h15.7
		c2.5,0,4.6-1.9,4.9-4.3h2.9v5.7h-5v12.9h11.4V34.3h-5v-7.2h-4.4c-0.1-0.5-0.2-1-0.4-1.4h3.4v-8.6h3.6v-1.4h-1.4v-1.4H45z
		 M12.8,14.3H4.3V7.1h8.6V14.3z M5,4.3h7.2c0.4,0,0.7,0.3,0.7,0.7v0.7H4.3V5C4.3,4.6,4.6,4.3,5,4.3z M4.3,19.3v-3.6h8.6v3.6
		c0,0.4-0.3,0.7-0.7,0.7H5C4.6,20,4.3,19.7,4.3,19.3z M17.1,45c0,0.4-0.3,0.7-0.7,0.7H5c-0.4,0-0.7-0.3-0.7-0.7v-0.7h12.9V45z
		 M15.7,36.4v6.4h-10v-6.4c0-0.4,0.3-0.7,0.7-0.7H15C15.4,35.7,15.7,36,15.7,36.4z M37.2,45.7v-4.3h8.6v4.3H37.2z M45.7,40h-8.6
		v-4.3h8.6V40z M32.9,31.4H17.1c-2,0-3.6-1.6-3.6-3.6c0-1.8,1.4-3.3,3.1-3.5l0.5-0.1l0.1-0.5c0.5-1.8,2.2-3.1,4.1-3.1
		c0.8,0,1.6,0.2,2.2,0.6l0.7,0.4l0.3-0.7c0.7-1.5,2.2-2.5,3.9-2.5c2.4,0,4.3,1.9,4.3,4.3c0,0.2,0,0.4-0.1,0.7l-0.1,0.7l0.7,0.1
		c1.7,0.3,3,1.8,3,3.5C36.4,29.8,34.8,31.4,32.9,31.4z M35,4.3h10c0.4,0,0.7,0.3,0.7,0.7v5H34.3V5C34.3,4.6,34.6,4.3,35,4.3z
		 M34.3,12.1v-0.7h11.4v0.7c0,0.4-0.3,0.7-0.7,0.7H35C34.6,12.8,34.3,12.5,34.3,12.1z M41.5,15.7h-2.9v-1.4h2.9V15.7z"/>
	<path class="st0" d="M38.6,37.2H40v1.4h-1.4V37.2z"/>
	<path class="st0" d="M42.9,42.9h1.4v1.4h-1.4V42.9z"/>
	<path class="st0" d="M41.5,37.2h2.9v1.4h-2.9V37.2z"/>
	<path class="st0" d="M38.6,42.9h2.9v1.4h-2.9V42.9z"/>
</g>
</svg>
