<?xml version="1.0" encoding="utf-8"?>
<!-- Generator: Adobe Illustrator 21.0.0, SVG Export Plug-In . SVG Version: 6.00 Build 0)  -->
<svg version="1.1" id="Capa_1" xmlns="http://www.w3.org/2000/svg" xmlns:xlink="http://www.w3.org/1999/xlink" x="0px" y="0px"
	 viewBox="0 0 50 50" style="enable-background:new 0 0 50 50;" xml:space="preserve">
<style type="text/css">
	.st0{fill:#10485F;}
</style>
<g>
	<g>
		<g>
			<path class="st0" d="M21,13.9c-0.6,0.5-1.4,0.5-2.2,0.6c-0.9,0-2,0.1-2.9,0.9s-1.2,1.8-1.4,2.7c-0.2,0.8-0.3,1.5-1,2
				c-0.1,0.1-0.1,0.2,0,0.4c1.9,2.3,3.4,3.6,5,4.2c1.6,0.6,3.1,0.5,5,0.2c0,0,0.1,0,0.1-0.1s0.1-0.1,0.1-0.1c0.7-1.8,1-3.3,0.8-5
				c-0.3-1.6-1.3-3.4-3.2-5.7C21.3,13.8,21.1,13.8,21,13.9z M23.4,24.2c-3.5,0.6-5.6,0.3-9.2-4c0.6-0.6,0.8-1.4,0.9-2.1
				c0.2-0.9,0.4-1.7,1.2-2.4c0.8-0.7,1.7-0.7,2.6-0.7c0.8,0,1.6-0.1,2.3-0.5C24.7,18.8,24.6,20.9,23.4,24.2z"/>
			<path class="st0" d="M15.5,19.4c-0.1-0.1-0.3,0-0.3,0.1c0,0,0,0.1,0,0.1c-0.1,0.1,0,0.3,0.1,0.3c0.1,0,0.2,0,0.3,0
				c0,0,0.1-0.1,0.1-0.1c0,0,0-0.1,0-0.1C15.7,19.6,15.6,19.5,15.5,19.4z"/>
			<path class="st0" d="M21.9,16.7C21.9,16.7,21.9,16.7,21.9,16.7c0.1-0.1,0.1-0.2,0.1-0.4c0,0,0-0.1-0.1-0.1
				c-0.1-0.1-0.2-0.1-0.4-0.1c-0.1,0.1-0.1,0.2-0.1,0.4c0,0,0,0.1,0.1,0.1C21.6,16.7,21.8,16.8,21.9,16.7z"/>
			<path class="st0" d="M15.8,19c0,0,0.1-0.1,0.1-0.1c0-0.2,0.1-0.3,0.1-0.5c0.2-0.8,0.3-1.5,0.9-1.9c0.1-0.1,0.1-0.2,0-0.4
				c-0.1-0.1-0.2-0.1-0.4,0c-0.7,0.6-0.9,1.4-1.1,2.2c0,0.2-0.1,0.3-0.1,0.5c0,0.1,0,0.3,0.2,0.3C15.7,19.1,15.8,19.1,15.8,19z"/>
			<path class="st0" d="M22.6,23.3c-0.8,0.1-1.7,0.2-2.6,0c-0.1,0-0.3,0.1-0.3,0.2c0,0.1,0.1,0.3,0.2,0.3c1,0.2,2.1,0.1,2.9-0.1
				c0,0,0,0,0,0c0,0,0,0,0,0c0,0,0,0,0,0c0,0,0,0,0,0c0,0,0,0,0,0c0,0,0,0,0,0c0,0,0,0,0,0c0,0,0,0,0,0c0,0,0,0,0,0c0,0,0,0,0,0
				c0,0,0,0,0,0c0,0,0,0,0,0c0,0,0,0,0,0c0,0,0,0,0,0c0,0,0,0,0,0c0,0,0,0,0,0c0,0,0,0,0,0c0,0,0,0,0,0c0,0,0,0,0,0c0,0,0,0,0,0
				c0.3-0.8,0.6-1.8,0.6-2.8c0-1.2-0.4-2.4-1.3-3.8c-0.1-0.1-0.2-0.2-0.3-0.1c-0.1,0.1-0.2,0.2-0.1,0.3c0.8,1.3,1.2,2.5,1.2,3.6
				C23.1,21.7,22.9,22.6,22.6,23.3z"/>
		</g>
	</g>
</g>
<g>
	<path class="st0" d="M10.6,18.4c-0.5,0-0.9,0.4-0.9,0.9c0,0.5,0.4,0.9,0.9,0.9c0.5,0,0.9-0.4,0.9-0.9C11.4,18.8,11,18.4,10.6,18.4z
		"/>
	<path class="st0" d="M35,28.9c-0.2-0.2-0.4-0.3-0.6-0.3c0,0-0.3,0-0.6,0.3l-0.6,0.6l-2-2c4.4-6.2,3.8-14.8-1.7-20.2
		c-6.1-6.1-16.1-6.1-22.2,0c-6.1,6.1-6.1,16.1,0,22.2c5.4,5.4,14,6.1,20.2,1.7l2,2l-0.6,0.6c-0.3,0.3-0.3,0.9,0,1.2l11,11
		c1.7,1.7,4.5,1.7,6.2,0c1.7-1.7,1.7-4.5,0-6.2L35,28.9z M30.7,32l-1.9-1.9c0.2-0.2,0.4-0.4,0.6-0.6c0.2-0.2,0.4-0.4,0.6-0.6
		l1.9,1.9L30.7,32z M8.5,28.2C3,22.8,3,13.9,8.5,8.5C13.9,3,22.8,3,28.2,8.5c5.4,5.4,5.5,14.3,0,19.8C22.7,33.8,13.9,33.6,8.5,28.2z
		 M34.4,30.7l2.5,2.5l-3.7,3.7l-2.5-2.5L34.4,30.7z M44.8,44.8c-1,1-2.7,1-3.7,0l-6.7-6.7l3.7-3.7l6.7,6.7
		C45.9,42.2,45.9,43.8,44.8,44.8z"/>
	<path class="st0" d="M27,9.7c-4.8-4.8-12.5-4.8-17.3,0C5,14.5,5,22.2,9.7,27c4.8,4.8,12.5,4.8,17.3,0C31.8,22.2,31.8,14.5,27,9.7z
		 M25.8,25.8c-4.1,4.1-10.7,4.1-14.8,0C6.9,21.7,6.9,15,11,11c4.1-4.1,10.7-4.1,14.8,0C29.9,15,29.9,21.7,25.8,25.8z"/>
	<path class="st0" d="M18.4,9.6c-2.3,0-4.5,0.9-6.2,2.6c-1,1-1.7,2.1-2.1,3.4c-0.2,0.5,0.1,1,0.5,1.1c0.5,0.2,1-0.1,1.1-0.5
		c0.3-1,0.9-1.9,1.7-2.7c1.3-1.3,3.1-2,4.9-2c0.5,0,0.9-0.4,0.9-0.9S18.8,9.6,18.4,9.6z"/>
</g>
</svg>
