<?xml version="1.0" encoding="utf-8"?>
<!-- Generator: Adobe Illustrator 21.0.0, SVG Export Plug-In . SVG Version: 6.00 Build 0)  -->
<svg version="1.1" id="Capa_1" xmlns="http://www.w3.org/2000/svg" xmlns:xlink="http://www.w3.org/1999/xlink" x="0px" y="0px"
	 viewBox="0 0 50 50" style="enable-background:new 0 0 50 50;" xml:space="preserve">
<style type="text/css">
	.st0{fill:#10485F;}
</style>
<g>
	<path class="st0" d="M-112.6,75.3v4.1h2.8v-1.4h-1.4v-2.8H-112.6z"/>
	<path class="st0" d="M-121.5,96h1.4v11.1h-1.4V96z"/>
	<path class="st0" d="M-88.6,94l-1.1-4.5l-3.6,3.6l-1.8-1.8l3.6-3.6l-4.5-1.1l-1.3,1.3c-0.7-0.1-1.5-0.2-2.2-0.1l-4.4-3.6v1.6
		l-1.9-1.3v-1.2l2.1-1.4v-2.4h0.7c1.5,0,2.8-1,3.3-2.4c0.5-1.4,0-3-1.2-3.9h0v-0.7c0-5.3-4.3-9.7-9.7-9.7s-9.7,4.3-9.7,9.7v0.7h0
		c-1.1,0.8-1.6,2.2-1.3,3.5s1.3,2.4,2.7,2.6v2.8h6.9v-1.4h-5.5v-1.4h1.4v-4.6l2.2-2.2l0.5,0.3c1.8,1.1,4,1.1,5.8,0l0.5-0.3l2.2,2.2
		v6.3l-3.7,2.4h-6.7v1l-3.2,2.2l-6.1,1.8c-1.5,0.4-2.5,1.8-2.5,3.3v15.1h1.4V92c0-0.9,0.6-1.7,1.5-2l5.5-1.7l2.5,7.6l2.6-2.6
		l2.4,0.5v7.7h1.4v-7.7l2.7-0.4c-1.1,2.5-1,5.4,0.3,7.9l-0.9,0.9c-1,1-1,2.7,0,3.7c1,1,2.7,1,3.7,0l0.8-0.8
		c3.2,1.9,7.2,1.7,10.3-0.5c3-2.2,4.4-6,3.5-9.6L-88.6,94z M-100.9,76c0,1.1-0.9,2.1-2.1,2.1h-0.7v-4.1h0.7
		C-101.8,73.9-100.9,74.9-100.9,76z M-117.5,78.1h-0.7c-1.1,0-2.1-0.9-2.1-2.1c0-1.1,0.9-2.1,2.1-2.1h0.7V78.1z M-117.5,72.6h-0.7
		c-0.2,0-0.5,0-0.7,0.1v-0.1c0-4.6,3.7-8.3,8.3-8.3s8.3,3.7,8.3,8.3v0.1c-0.2,0-0.5-0.1-0.7-0.1h-0.7c0-3.8-3.1-6.9-6.9-6.9
		S-117.5,68.7-117.5,72.6z M-107,71l-1.4,0.9c-1.3,0.8-3,0.8-4.3,0l-1.4-0.9l-2,2v-0.4c0-3.1,2.5-5.5,5.5-5.5s5.5,2.5,5.5,5.5V73
		L-107,71z M-102.8,90.3l0.3-0.2v-3l2.6,2.1l0.3,0c0.3,0,0.6-0.1,0.9-0.1c0.1,0,0.1,0,0.2,0l-1.7,1.7l0.8,2.9l-6.5,6.5
		C-107.5,96.6-106.2,92.4-102.8,90.3L-102.8,90.3z M-114.1,91.8l-1.5,1.5l-1.9-5.6l2.1-1.5v2.5l2.9,3.3L-114.1,91.8z M-110.6,92.2
		l-3.5-3.9V85h5.7l1.2-0.8v4.1L-110.6,92.2z M-108.8,92.3l3-3.5v-2.7l1.9,1.3v1.9c-1,0.7-1.9,1.5-2.6,2.6L-108.8,92.3z M-98.7,105.1
		c-1.3,0-2.6-0.3-3.7-0.9l6.7-6.7l2.9,0.8l2-2c0,0.3,0.1,0.6,0.1,0.9C-90.7,101.5-94.3,105.1-98.7,105.1z M-93.2,96.7l-2.9-0.8
		l-9.1,9.1c-0.5,0.5-1.3,0.5-1.8,0c-0.5-0.5-0.5-1.3,0-1.8l9.1-9.1l-0.8-2.9l3.1-3.1l1.4,0.3l-2.8,2.8l3.7,3.7l2.8-2.8l0.3,1.4
		L-93.2,96.7z"/>
</g>
<g>
	<g>
		<g>
			<path class="st0" d="M44.4,24.3V8.5c0-2-1.6-3.6-3.6-3.6H9.2c-2,0-3.6,1.6-3.6,3.6v10.8c-1.2,0-2.2,1-2.2,2.2V43
				c0,1.2,1,2.2,2.2,2.2h15.8c1.2,0,2.2-1,2.2-2.2h6c0.7,0,1.3-0.3,1.7-0.8c0.4-0.5,0.5-1.2,0.4-1.9l-1.4-5.2h4.1V43
				c0,1.2,1,2.2,2.2,2.2h7.9c1.2,0,2.2-1,2.2-2.2V26.4C46.5,25.2,45.6,24.3,44.4,24.3z M22.1,43c0,0.4-0.3,0.7-0.7,0.7H5.6
				c-0.4,0-0.7-0.3-0.7-0.7v-1.4h17.2V43z M22.1,40.1H4.9V24.3h17.2V40.1z M22.1,22.8H4.9v-1.4c0-0.4,0.3-0.7,0.7-0.7h15.8
				c0.4,0,0.7,0.3,0.7,0.7V22.8z M30.3,40.6c0.1,0.2,0,0.4-0.1,0.6c-0.1,0.2-0.3,0.3-0.6,0.3h-6v-1.4h6.6L30.3,40.6z M23.6,38.6
				v-3.6h5.2l1,3.6H23.6z M34.3,33.6H23.6v-4.3h10.8V33.6z M34.3,26.4v1.4H23.6v-6.5c0-1.2-1-2.2-2.2-2.2H7V8.5c0-1.2,1-2.2,2.2-2.2
				h31.6c1.2,0,2.2,1,2.2,2.2v15.8h-6.5C35.3,24.3,34.3,25.2,34.3,26.4z M45.1,43c0,0.4-0.3,0.7-0.7,0.7h-7.9
				c-0.4,0-0.7-0.3-0.7-0.7v-1.4h9.3V43z M45.1,40.1h-9.3V29.3h9.3V40.1z M45.1,27.9h-9.3v-1.4c0-0.4,0.3-0.7,0.7-0.7h7.9
				c0.4,0,0.7,0.3,0.7,0.7V27.9z"/>
		</g>
	</g>
	<g>
		<g>
			
				<rect x="7.2" y="32.9" transform="matrix(0.7071 -0.7071 0.7071 0.7071 -21.0771 16.3511)" class="st0" width="4.1" height="1.4"/>
		</g>
	</g>
	<g>
		<g>
			
				<rect x="8.9" y="32.2" transform="matrix(0.7071 -0.7071 0.7071 0.7071 -18.8865 20.2035)" class="st0" width="12.2" height="1.4"/>
		</g>
	</g>
	<g>
		<g>
			
				<rect x="11.2" y="27.9" transform="matrix(0.7071 -0.7071 0.7071 0.7071 -16.0505 18.4335)" class="st0" width="6.1" height="1.4"/>
		</g>
	</g>
	<g>
		<g>
			
				<rect x="37.2" y="32.5" transform="matrix(0.7071 -0.7071 0.7071 0.7071 -11.8843 37.8291)" class="st0" width="5.1" height="1.4"/>
		</g>
	</g>
	<g>
		<g>
			
				<rect x="38.6" y="35.4" transform="matrix(0.7071 -0.7071 0.7071 0.7071 -13.4973 39.6869)" class="st0" width="5.1" height="1.4"/>
		</g>
	</g>
	<g>
		<g>
			<rect x="22" y="14.9" transform="matrix(0.7071 -0.7071 0.7071 0.7071 -3.7537 22.2647)" class="st0" width="6.1" height="1.4"/>
		</g>
	</g>
	<g>
		<g>
			
				<rect x="28.4" y="13.5" transform="matrix(0.7071 -0.7071 0.7071 0.7071 -0.8446 26.4149)" class="st0" width="6.1" height="1.4"/>
		</g>
	</g>
	<g>
		<g>
			
				<rect x="24.4" y="18.5" transform="matrix(0.7071 -0.7071 0.7071 0.7071 -5.8727 24.3324)" class="st0" width="4.1" height="1.4"/>
		</g>
	</g>
	<g>
		<g>
			<rect x="28" y="9.9" transform="matrix(0.7071 -0.7071 0.7071 0.7071 1.2698 24.3484)" class="st0" width="4.1" height="1.4"/>
		</g>
	</g>
	<g>
		<g>
			<rect x="8.5" y="7.8" class="st0" width="1.4" height="1.4"/>
		</g>
	</g>
	<g>
		<g>
			<rect x="11.4" y="7.8" class="st0" width="1.4" height="1.4"/>
		</g>
	</g>
	<g>
		<g>
			<rect x="14.2" y="7.8" class="st0" width="1.4" height="1.4"/>
		</g>
	</g>
</g>
</svg>
