<?xml version="1.0" encoding="utf-8"?>
<!-- Generator: Adobe Illustrator 21.0.0, SVG Export Plug-In . SVG Version: 6.00 Build 0)  -->
<svg version="1.1" id="Capa_1" xmlns="http://www.w3.org/2000/svg" xmlns:xlink="http://www.w3.org/1999/xlink" x="0px" y="0px"
	 viewBox="0 0 50 50" style="enable-background:new 0 0 50 50;" xml:space="preserve">
<style type="text/css">
	.st0{fill:#10485F;}
</style>
<g>
	<path class="st0" d="M-112.6,75.3v4.1h2.8V78h-1.4v-2.8h-1.4V75.3z"/>
	<path class="st0" d="M-121.5,96h1.4v11.1h-1.4V96z"/>
	<path class="st0" d="M-88.6,94l-1.1-4.5l-3.6,3.6l-1.8-1.8l3.6-3.6l-4.5-1.1l-1.3,1.3c-0.7-0.1-1.5-0.2-2.2-0.1l-4.4-3.6v1.6
		l-1.9-1.3v-1.2l2.1-1.4v-2.4h0.7c1.5,0,2.8-1,3.3-2.4s0-3-1.2-3.9l0,0v-0.7c0-5.3-4.3-9.7-9.7-9.7s-9.7,4.3-9.7,9.7v0.7l0,0
		c-1.1,0.8-1.6,2.2-1.3,3.5s1.3,2.4,2.7,2.6v2.8h6.9v-1.4h-5.5v-1.4h1.4v-4.6l2.2-2.2l0.5,0.3c1.8,1.1,4,1.1,5.8,0l0.5-0.3l2.2,2.2
		V81l-3.7,2.4h-6.7v1l-3.2,2.2l-6.1,1.8c-1.5,0.4-2.5,1.8-2.5,3.3v15.1h1.4V92c0-0.9,0.6-1.7,1.5-2l5.5-1.7l2.5,7.6l2.6-2.6l2.4,0.5
		v7.7h1.4v-7.7l2.7-0.4c-1.1,2.5-1,5.4,0.3,7.9l-0.9,0.9c-1,1-1,2.7,0,3.7s2.7,1,3.7,0l0.8-0.8c3.2,1.9,7.2,1.7,10.3-0.5
		c3-2.2,4.4-6,3.5-9.6L-88.6,94z M-100.9,76c0,1.1-0.9,2.1-2.1,2.1h-0.7V74h0.7C-101.8,73.9-100.9,74.9-100.9,76z M-117.5,78.1h-0.7
		c-1.1,0-2.1-0.9-2.1-2.1c0-1.1,0.9-2.1,2.1-2.1h0.7V78.1z M-117.5,72.6h-0.7c-0.2,0-0.5,0-0.7,0.1v-0.1c0-4.6,3.7-8.3,8.3-8.3
		s8.3,3.7,8.3,8.3v0.1c-0.2,0-0.5-0.1-0.7-0.1h-0.7c0-3.8-3.1-6.9-6.9-6.9S-117.5,68.7-117.5,72.6z M-107,71l-1.4,0.9
		c-1.3,0.8-3,0.8-4.3,0l-1.4-0.9l-2,2v-0.4c0-3.1,2.5-5.5,5.5-5.5s5.5,2.5,5.5,5.5V73L-107,71z M-102.8,90.3l0.3-0.2v-3l2.6,2.1h0.3
		c0.3,0,0.6-0.1,0.9-0.1c0.1,0,0.1,0,0.2,0l-1.7,1.7l0.8,2.9l-6.5,6.5C-107.5,96.6-106.2,92.4-102.8,90.3L-102.8,90.3z M-114.1,91.8
		l-1.5,1.5l-1.9-5.6l2.1-1.5v2.5l2.9,3.3L-114.1,91.8z M-110.6,92.2l-3.5-3.9V85h5.7l1.2-0.8v4.1L-110.6,92.2z M-108.8,92.3l3-3.5
		v-2.7l1.9,1.3v1.9c-1,0.7-1.9,1.5-2.6,2.6L-108.8,92.3z M-98.7,105.1c-1.3,0-2.6-0.3-3.7-0.9l6.7-6.7l2.9,0.8l2-2
		c0,0.3,0.1,0.6,0.1,0.9C-90.7,101.5-94.3,105.1-98.7,105.1z M-93.2,96.7l-2.9-0.8l-9.1,9.1c-0.5,0.5-1.3,0.5-1.8,0s-0.5-1.3,0-1.8
		l9.1-9.1l-0.8-2.9l3.1-3.1l1.4,0.3l-2.8,2.8l3.7,3.7l2.8-2.8l0.3,1.4L-93.2,96.7z"/>
</g>
<g>
	<g>
		<g>
			<path class="st0" d="M27.9,11.3C25.8,9.2,23,8.1,20,8.1c-3,0-5.7,1.2-7.8,3.2c-4.3,4.3-4.3,11.3,0,15.7c2.1,2.1,4.9,3.2,7.8,3.2
				c3,0,5.7-1.2,7.8-3.2c2.1-2.1,3.2-4.9,3.2-7.8C31.1,16.2,30,13.4,27.9,11.3z M13.1,12.2c1.9-1.9,4.3-2.9,6.9-2.9s5.1,1,6.9,2.9
				c1.5,1.5,2.4,3.3,2.7,5.3l-3.4,3.4c-0.3-0.2-0.7-0.3-1.1-0.3c-0.8,0-1.5,0.4-1.9,1l-5-1.6c0,0,0,0,0,0c0-1.2-1-2.2-2.2-2.2
				c-1.2,0-2.2,1-2.2,2.2c0,0.4,0.1,0.8,0.3,1.1l-2.6,2.7C9.4,20.1,10,15.4,13.1,12.2z M26.2,22.8c0,0.5-0.4,1-1,1s-1-0.4-1-1
				s0.4-1,1-1C25.7,21.9,26.2,22.3,26.2,22.8z M17,20c0,0.5-0.4,1-1,1c-0.5,0-1-0.4-1-1c0-0.5,0.4-1,1-1C16.6,19,17,19.4,17,20z
				 M27,26.1C25.1,27.9,22.7,29,20,29s-5.1-1-6.9-2.9c-0.4-0.4-0.7-0.8-1-1.2l2.9-3c0.3,0.2,0.7,0.3,1,0.3c0.8,0,1.5-0.4,1.9-1
				l5,1.6c0,0,0,0,0,0c0,1.2,1,2.2,2.2,2.2c1.2,0,2.2-1,2.2-2.2c0-0.4-0.1-0.7-0.3-1.1l2.7-2.6C29.8,21.8,28.8,24.2,27,26.1z"/>
		</g>
	</g>
	<g>
		<g>
			<path class="st0" d="M14.5,12.7l0.8,1c2-1.7,4.7-2.2,7.2-1.4l0.4-1.2C20,10.1,16.7,10.7,14.5,12.7z"/>
		</g>
	</g>
	<g>
		<g>
			<path class="st0" d="M24.5,11.9L23.8,13c0.3,0.2,0.7,0.4,1,0.7l0.8-1C25.2,12.4,24.9,12.1,24.5,11.9z"/>
		</g>
	</g>
	<g>
		<g>
			<path class="st0" d="M21.5,26.2c-1.4,0.3-2.9,0.2-4.2-0.4l-0.5,1.2c1,0.4,2.1,0.6,3.2,0.6c0.6,0,1.2-0.1,1.8-0.2L21.5,26.2z"/>
		</g>
	</g>
	<g>
		<g>
			<path class="st0" d="M35.8,29.3l-0.9,0.9l-2.3-2.4c2.7-3.9,3.3-8.8,1.9-13.2l1.8-1.8c0.3,0.2,0.7,0.3,1.1,0.3
				c1.2,0,2.2-1,2.2-2.2c0-0.4-0.1-0.7-0.2-1L43.3,6v2h1.3V3.9h-4.1v1.3h1.9l-3.8,3.7c-0.3-0.2-0.7-0.3-1.1-0.3
				c-1.2,0-2.2,1-2.2,2.2c0,0.4,0.1,0.8,0.3,1.1l-1.4,1.4c-0.7-1.8-1.8-3.4-3.3-4.9c-6-6-15.6-6-21.6,0c-5.3,5.3-5.9,13.6-1.7,19.5
				L6.4,29c-0.3-0.2-0.7-0.3-1-0.3c-1.2,0-2.2,1-2.2,2.2c0,1.2,1,2.2,2.2,2.2s2.2-1,2.2-2.2c0-0.4-0.1-0.8-0.3-1.1l0.9-1
				c0.3,0.4,0.6,0.7,1,1.1c3,3,6.9,4.5,10.8,4.5c3,0,6-0.9,8.6-2.6l2.3,2.4l-0.9,0.9l11,11l5.9-5.9L35.8,29.3z M37.4,9.8
				c0.5,0,1,0.4,1,1c0,0.5-0.4,1-1,1c-0.5,0-1-0.4-1-1C36.5,10.2,36.9,9.8,37.4,9.8z M5.4,31.9c-0.5,0-1-0.4-1-1c0-0.5,0.4-1,1-1
				c0.5,0,1,0.4,1,1C6.4,31.5,5.9,31.9,5.4,31.9z M10.1,29.1c-5.5-5.5-5.5-14.3,0-19.8c2.7-2.7,6.3-4.1,9.9-4.1s7.2,1.4,9.9,4.1
				c5.5,5.5,5.5,14.3,0,19.8C24.5,34.5,15.6,34.5,10.1,29.1z M29.6,31c0.4-0.3,0.8-0.7,1.2-1.1c0.4-0.4,0.7-0.8,1-1.2l2.1,2.3
				l-2.2,2.2L29.6,31z M41,44.4l-9.2-9.2l4.1-4.1l9.2,9.2L41,44.4z"/>
		</g>
	</g>
	<g>
		<g>
			<polygon class="st0" points="35.8,32.9 34,34.7 34.9,35.6 35.8,34.7 39.3,38.2 40.2,37.3 			"/>
		</g>
	</g>
	<g>
		<g>
			
				<rect x="40.7" y="38.6" transform="matrix(0.7071 -0.7071 0.7071 0.7071 -15.6605 40.6979)" class="st0" width="1.3" height="1.3"/>
		</g>
	</g>
	<g>
		<g>
			<rect x="10" y="35.1" class="st0" width="1.3" height="1.4"/>
		</g>
	</g>
	<g>
		<g>
			<rect x="10" y="42.8" class="st0" width="1.3" height="1.4"/>
		</g>
	</g>
	<g>
		<g>
			<rect x="20.4" y="37.7" class="st0" width="1.3" height="1.4"/>
		</g>
	</g>
	<g>
		<g>
			<rect x="38.4" y="26.4" class="st0" width="1.3" height="1.4"/>
		</g>
	</g>
	<g>
		<g>
			<rect x="39.9" y="15.4" class="st0" width="1.3" height="1.4"/>
		</g>
	</g>
	<g>
		<g>
			<rect x="44" y="21.2" class="st0" width="1.3" height="1.4"/>
		</g>
	</g>
</g>
</svg>
