<?xml version="1.0" encoding="utf-8"?>
<!-- Generator: Adobe Illustrator 21.0.0, SVG Export Plug-In . SVG Version: 6.00 Build 0)  -->
<svg version="1.1" id="Capa_1" xmlns="http://www.w3.org/2000/svg" xmlns:xlink="http://www.w3.org/1999/xlink" x="0px" y="0px"
	 viewBox="0 0 50 50" style="enable-background:new 0 0 50 50;" xml:space="preserve">
<style type="text/css">
	.st0{fill:#10485F;}
</style>
<g>
	<path class="st0" d="M-112.6,75.3v4.1h2.8V78h-1.4v-2.8h-1.4V75.3z"/>
	<path class="st0" d="M-121.5,96h1.4v11.1h-1.4V96z"/>
	<path class="st0" d="M-88.6,94l-1.1-4.5l-3.6,3.6l-1.8-1.8l3.6-3.6l-4.5-1.1l-1.3,1.3c-0.7-0.1-1.5-0.2-2.2-0.1l-4.4-3.6v1.6
		l-1.9-1.3v-1.2l2.1-1.4v-2.4h0.7c1.5,0,2.8-1,3.3-2.4s0-3-1.2-3.9l0,0v-0.7c0-5.3-4.3-9.7-9.7-9.7s-9.7,4.3-9.7,9.7v0.7l0,0
		c-1.1,0.8-1.6,2.2-1.3,3.5s1.3,2.4,2.7,2.6v2.8h6.9v-1.4h-5.5v-1.4h1.4v-4.6l2.2-2.2l0.5,0.3c1.8,1.1,4,1.1,5.8,0l0.5-0.3l2.2,2.2
		V81l-3.7,2.4h-6.7v1l-3.2,2.2l-6.1,1.8c-1.5,0.4-2.5,1.8-2.5,3.3v15.1h1.4V92c0-0.9,0.6-1.7,1.5-2l5.5-1.7l2.5,7.6l2.6-2.6l2.4,0.5
		v7.7h1.4v-7.7l2.7-0.4c-1.1,2.5-1,5.4,0.3,7.9l-0.9,0.9c-1,1-1,2.7,0,3.7s2.7,1,3.7,0l0.8-0.8c3.2,1.9,7.2,1.7,10.3-0.5
		c3-2.2,4.4-6,3.5-9.6L-88.6,94z M-100.9,76c0,1.1-0.9,2.1-2.1,2.1h-0.7V74h0.7C-101.8,73.9-100.9,74.9-100.9,76z M-117.5,78.1h-0.7
		c-1.1,0-2.1-0.9-2.1-2.1c0-1.1,0.9-2.1,2.1-2.1h0.7V78.1z M-117.5,72.6h-0.7c-0.2,0-0.5,0-0.7,0.1v-0.1c0-4.6,3.7-8.3,8.3-8.3
		s8.3,3.7,8.3,8.3v0.1c-0.2,0-0.5-0.1-0.7-0.1h-0.7c0-3.8-3.1-6.9-6.9-6.9S-117.5,68.7-117.5,72.6z M-107,71l-1.4,0.9
		c-1.3,0.8-3,0.8-4.3,0l-1.4-0.9l-2,2v-0.4c0-3.1,2.5-5.5,5.5-5.5s5.5,2.5,5.5,5.5V73L-107,71z M-102.8,90.3l0.3-0.2v-3l2.6,2.1h0.3
		c0.3,0,0.6-0.1,0.9-0.1c0.1,0,0.1,0,0.2,0l-1.7,1.7l0.8,2.9l-6.5,6.5C-107.5,96.6-106.2,92.4-102.8,90.3L-102.8,90.3z M-114.1,91.8
		l-1.5,1.5l-1.9-5.6l2.1-1.5v2.5l2.9,3.3L-114.1,91.8z M-110.6,92.2l-3.5-3.9V85h5.7l1.2-0.8v4.1L-110.6,92.2z M-108.8,92.3l3-3.5
		v-2.7l1.9,1.3v1.9c-1,0.7-1.9,1.5-2.6,2.6L-108.8,92.3z M-98.7,105.1c-1.3,0-2.6-0.3-3.7-0.9l6.7-6.7l2.9,0.8l2-2
		c0,0.3,0.1,0.6,0.1,0.9C-90.7,101.5-94.3,105.1-98.7,105.1z M-93.2,96.7l-2.9-0.8l-9.1,9.1c-0.5,0.5-1.3,0.5-1.8,0s-0.5-1.3,0-1.8
		l9.1-9.1l-0.8-2.9l3.1-3.1l1.4,0.3l-2.8,2.8l3.7,3.7l2.8-2.8l0.3,1.4L-93.2,96.7z"/>
</g>
<g>
	<g>
		<g>
			<path class="st0" d="M45.6,33.9V21.6c0-1.5-1.2-2.7-2.7-2.7h-17v-0.3c0-0.4-0.1-0.8-0.4-1.1c0.2-0.2,0.3-0.5,0.4-0.8
				c0.7-0.4,1.1-1.2,1.1-2c0-0.4-0.1-0.8-0.3-1.1c0.2-0.3,0.3-0.7,0.3-1.1c0-0.8-0.4-1.6-1.1-2c0-0.1,0-0.2,0-0.2
				c0-1.2-0.9-2.1-2-2.3c-0.4-0.7-1.2-1.1-2-1.1c-0.1,0-0.2,0-0.3,0c-0.5-0.4-1-0.6-1.6-0.6c-0.1,0-0.2,0-0.2,0
				c-0.5-0.4-1.1-0.6-1.7-0.6c-0.6,0-1.2,0.2-1.7,0.6c-0.1,0-0.2,0-0.2,0c-0.6,0-1.1,0.2-1.6,0.6C13.9,7,13.2,7.4,12.8,8
				c-1.1,0.2-2,1.1-2,2.3c0,0.1,0,0.2,0,0.2c-0.7,0.4-1.1,1.1-1.1,2c0,0.4,0.1,0.8,0.3,1.1c-0.2,0.3-0.3,0.7-0.3,1.1
				c0,0.8,0.4,1.6,1.1,2c0,0.2,0.1,0.3,0.2,0.5c-0.4,0.3-0.7,0.8-0.7,1.4v1.1c0,1,0.8,1.7,1.7,1.7h0.3l0,0.3c0.1,0.7,0.5,1.3,1,1.7
				l0.2,0.2v1.8c0,0.2-0.1,0.4-0.3,0.4l-4.8,1.5c-1.2,0.4-2,1.5-2,2.7v8c0,0.8,0.3,1.5,0.7,2.1H5.7c-0.7,0-1.3,0.6-1.3,1.3v1.4
				c0,0.7,0.6,1.3,1.3,1.3h38.6c0.7,0,1.3-0.6,1.3-1.3v-1.4c0-0.7-0.6-1.3-1.3-1.3h-7l-0.5-3.5h6.1C44.4,36.7,45.6,35.4,45.6,33.9z
				 M12.1,20.1c-0.3,0-0.5-0.2-0.5-0.5v-1.1c0-0.2,0.1-0.3,0.2-0.4L12.1,20.1L12.1,20.1z M12.2,16.3C12.2,16.3,12.2,16.3,12.2,16.3
				c0-0.4-0.1-0.6-0.4-0.7c-0.4-0.1-0.7-0.5-0.7-0.9c0-0.3,0.1-0.5,0.3-0.7c0.2-0.2,0.2-0.6,0-0.9c-0.1-0.1-0.3-0.4-0.3-0.7
				c0-0.4,0.3-0.8,0.7-1c0.2,0,0.3-0.2,0.4-0.3c0.1-0.2,0.1-0.4,0-0.5c0-0.1-0.1-0.2-0.1-0.4c0-0.5,0.4-1,1-1c0,0,0.1,0,0.1,0
				c0.3,0,0.6-0.2,0.6-0.4c0.1-0.4,0.5-0.7,0.9-0.7c0,0,0,0,0,0c0.2,0,0.3-0.1,0.5-0.2c0.2-0.2,0.6-0.4,0.9-0.4c0.1,0,0.2,0,0.3,0
				c0.2,0,0.4,0,0.6-0.2c0.3-0.3,0.7-0.4,1.1-0.4c0.4,0,0.8,0.2,1.1,0.4c0.2,0.1,0.4,0.2,0.6,0.2c0.1,0,0.2,0,0.3,0
				c0.4,0,0.7,0.2,0.9,0.4c0.2,0.2,0.4,0.3,0.7,0.2c0.1,0,0.2-0.1,0.3-0.1c0.4,0,0.8,0.3,0.9,0.7c0.1,0.3,0.4,0.4,0.6,0.4
				c0,0,0.1,0,0.1,0c0.5,0,1,0.5,1,1c0,0.1,0,0.3-0.1,0.4c-0.1,0.2-0.1,0.4,0,0.5s0.2,0.3,0.4,0.3c0.4,0.1,0.7,0.5,0.7,1
				c0,0.3-0.1,0.5-0.3,0.7c-0.2,0.2-0.2,0.6,0,0.9c0.1,0.1,0.3,0.4,0.3,0.7c0,0.4-0.3,0.8-0.7,0.9c-0.3,0.1-0.5,0.4-0.4,0.7
				c0,0,0,0,0,0.1c0,0.2-0.1,0.4-0.3,0.4c0,0-0.6,0-0.6,0l-0.4-2.2c-0.1-0.3-0.4-0.6-0.7-0.5c0,0-0.1,0-0.1,0l0,0
				c-0.3,0-0.6-0.2-0.8-0.5c-0.1-0.2-0.3-0.3-0.5-0.3c-0.2,0-0.4,0.1-0.5,0.3c-0.2,0.3-0.5,0.5-0.8,0.5c-0.3,0-0.7-0.2-0.8-0.5
				c-0.1-0.2-0.3-0.3-0.5-0.3c-0.2,0-0.4,0.1-0.5,0.3C17.7,13.9,17.4,14,17,14c-0.3,0-0.7-0.2-0.8-0.5c-0.1-0.2-0.3-0.3-0.5-0.3
				c-0.2,0-0.4,0.1-0.5,0.3c-0.2,0.3-0.5,0.4-0.8,0.5l0,0c0,0-0.1,0-0.1,0c-0.3,0-0.6,0.2-0.7,0.5l-0.4,2.2c0,0-0.6,0-0.6,0
				C12.3,16.7,12.2,16.5,12.2,16.3z M24.6,18.5v0.3h-0.3l0.1-0.7C24.5,18.2,24.6,18.4,24.6,18.5z M13.1,18.1L13.1,18.1
				c0.7,0,1.2-0.4,1.3-1l0.3-1.8c0.3-0.1,0.7-0.2,0.9-0.4c0.4,0.3,0.9,0.5,1.4,0.5c0.5,0,1-0.2,1.4-0.5c0.4,0.3,0.9,0.5,1.4,0.5
				c0.5,0,1-0.2,1.4-0.5c0.3,0.2,0.6,0.4,0.9,0.4l0.3,1.8c0.1,0.4,0.4,0.8,0.7,0.9L23,18.8h-0.7c-1.5,0-2.7,1.2-2.7,2.7v2.9
				c-0.1,0-0.2,0.1-0.4,0.1h-2.1c-0.2,0-0.5-0.1-0.6-0.2l-2.2-1.8c-0.3-0.2-0.5-0.6-0.5-1L13.1,18.1z M13.7,27.1
				c0.7-0.2,1.2-0.9,1.2-1.7v-0.7l0.7,0.6c0.4,0.3,0.9,0.5,1.5,0.5h2.1c0.1,0,0.2,0,0.4,0v4.2C19.2,30,18.8,30,18.4,30
				c-2.2,0-4.2-1-5.5-2.7L13.7,27.1z M7.7,30.1c0-0.7,0.4-1.3,1.1-1.5l2.7-0.8c1.6,2.2,4.1,3.5,6.8,3.5c0.4,0,0.8,0,1.2-0.1v2.7
				c0,1.5,1.2,2.7,2.7,2.7H25v3.5c0,0,0,0,0,0h-3.5v-0.7c0-1.5-1.2-2.7-2.7-2.7h-6.9c0,0,0,0,0,0v-4.1c0-0.4-0.3-0.6-0.6-0.6
				s-0.6,0.3-0.6,0.6v4.1c0,0.7,0.6,1.3,1.3,1.3h4.2v2.2H9.9c-1.2,0-2.1-0.9-2.1-2.1V30.1z M20.2,39.5v0.7h-2.8V38h1.4
				C19.6,38,20.2,38.7,20.2,39.5z M44.3,41.5C44.3,41.5,44.3,41.5,44.3,41.5l0,1.4c0,0,0,0,0,0H5.7c0,0,0,0,0,0v-1.4c0,0,0,0,0,0
				H44.3z M26.3,40.2C26.3,40.2,26.3,40.2,26.3,40.2l0-3.5h2l-0.5,3.5L26.3,40.2L26.3,40.2z M29.2,40.2l1.1-8.4
				c0-0.4,0.4-0.6,0.7-0.6h3.1c0.4,0,0.7,0.3,0.7,0.6l1.1,8.4H29.2z M36.7,35.4C36.7,35.4,36.7,35.4,36.7,35.4l-0.6-3.8
				c-0.1-1-1-1.8-2-1.8H31c-1,0-1.9,0.8-2,1.8l-0.5,3.8c0,0-0.1,0-0.1,0h-6.2c-0.8,0-1.4-0.6-1.4-1.4V21.6c0-0.8,0.6-1.4,1.4-1.4
				h20.7c0.8,0,1.4,0.6,1.4,1.4v12.4c0,0.8-0.6,1.4-1.4,1.4H36.7z"/>
		</g>
	</g>
	<g>
		<g>
			<path class="st0" d="M32.6,24.4c-1.1,0-2,0.9-2,2c0,1.1,0.9,2,2,2c1.1,0,2-0.9,2-2C34.6,25.3,33.7,24.4,32.6,24.4z M32.6,27.1
				c-0.4,0-0.7-0.3-0.7-0.7s0.3-0.7,0.7-0.7c0.4,0,0.7,0.3,0.7,0.7C33.3,26.8,33,27.1,32.6,27.1z"/>
		</g>
	</g>
</g>
</svg>
