<?xml version="1.0" encoding="utf-8"?>
<!-- Generator: Adobe Illustrator 21.0.0, SVG Export Plug-In . SVG Version: 6.00 Build 0)  -->
<svg version="1.1" id="Capa_1" xmlns="http://www.w3.org/2000/svg" xmlns:xlink="http://www.w3.org/1999/xlink" x="0px" y="0px"
	 viewBox="0 0 50 50" style="enable-background:new 0 0 50 50;" xml:space="preserve">
<style type="text/css">
	.st0{fill:#10485F;}
</style>
<g>
	<path class="st0" d="M-112.6,75.3v4.1h2.8V78h-1.4v-2.8h-1.4V75.3z"/>
	<path class="st0" d="M-121.5,96h1.4v11.1h-1.4V96z"/>
	<path class="st0" d="M-88.6,94l-1.1-4.5l-3.6,3.6l-1.8-1.8l3.6-3.6l-4.5-1.1l-1.3,1.3c-0.7-0.1-1.5-0.2-2.2-0.1l-4.4-3.6v1.6
		l-1.9-1.3v-1.2l2.1-1.4v-2.4h0.7c1.5,0,2.8-1,3.3-2.4s0-3-1.2-3.9l0,0v-0.7c0-5.3-4.3-9.7-9.7-9.7s-9.7,4.3-9.7,9.7v0.7l0,0
		c-1.1,0.8-1.6,2.2-1.3,3.5s1.3,2.4,2.7,2.6v2.8h6.9v-1.4h-5.5v-1.4h1.4v-4.6l2.2-2.2l0.5,0.3c1.8,1.1,4,1.1,5.8,0l0.5-0.3l2.2,2.2
		V81l-3.7,2.4h-6.7v1l-3.2,2.2l-6.1,1.8c-1.5,0.4-2.5,1.8-2.5,3.3v15.1h1.4V92c0-0.9,0.6-1.7,1.5-2l5.5-1.7l2.5,7.6l2.6-2.6l2.4,0.5
		v7.7h1.4v-7.7l2.7-0.4c-1.1,2.5-1,5.4,0.3,7.9l-0.9,0.9c-1,1-1,2.7,0,3.7s2.7,1,3.7,0l0.8-0.8c3.2,1.9,7.2,1.7,10.3-0.5
		c3-2.2,4.4-6,3.5-9.6L-88.6,94z M-100.9,76c0,1.1-0.9,2.1-2.1,2.1h-0.7V74h0.7C-101.8,73.9-100.9,74.9-100.9,76z M-117.5,78.1h-0.7
		c-1.1,0-2.1-0.9-2.1-2.1c0-1.1,0.9-2.1,2.1-2.1h0.7V78.1z M-117.5,72.6h-0.7c-0.2,0-0.5,0-0.7,0.1v-0.1c0-4.6,3.7-8.3,8.3-8.3
		s8.3,3.7,8.3,8.3v0.1c-0.2,0-0.5-0.1-0.7-0.1h-0.7c0-3.8-3.1-6.9-6.9-6.9S-117.5,68.7-117.5,72.6z M-107,71l-1.4,0.9
		c-1.3,0.8-3,0.8-4.3,0l-1.4-0.9l-2,2v-0.4c0-3.1,2.5-5.5,5.5-5.5s5.5,2.5,5.5,5.5V73L-107,71z M-102.8,90.3l0.3-0.2v-3l2.6,2.1h0.3
		c0.3,0,0.6-0.1,0.9-0.1c0.1,0,0.1,0,0.2,0l-1.7,1.7l0.8,2.9l-6.5,6.5C-107.5,96.6-106.2,92.4-102.8,90.3L-102.8,90.3z M-114.1,91.8
		l-1.5,1.5l-1.9-5.6l2.1-1.5v2.5l2.9,3.3L-114.1,91.8z M-110.6,92.2l-3.5-3.9V85h5.7l1.2-0.8v4.1L-110.6,92.2z M-108.8,92.3l3-3.5
		v-2.7l1.9,1.3v1.9c-1,0.7-1.9,1.5-2.6,2.6L-108.8,92.3z M-98.7,105.1c-1.3,0-2.6-0.3-3.7-0.9l6.7-6.7l2.9,0.8l2-2
		c0,0.3,0.1,0.6,0.1,0.9C-90.7,101.5-94.3,105.1-98.7,105.1z M-93.2,96.7l-2.9-0.8l-9.1,9.1c-0.5,0.5-1.3,0.5-1.8,0s-0.5-1.3,0-1.8
		l9.1-9.1l-0.8-2.9l3.1-3.1l1.4,0.3l-2.8,2.8l3.7,3.7l2.8-2.8l0.3,1.4L-93.2,96.7z"/>
</g>
<g>
	<path class="st0" d="M18,23.1c-4.9,0-8.9,4-8.9,8.9s4,8.9,8.9,8.9s8.9-4,8.9-8.9S22.9,23.1,18,23.1z M18,39.5
		c-4.2,0-7.6-3.4-7.6-7.6s3.4-7.6,7.6-7.6s7.6,3.4,7.6,7.6S22.2,39.5,18,39.5z"/>
	<path class="st0" d="M20.1,29.2l2.2,2.8l-2.2,2.8l1,0.8l2.8-3.6l-2.8-3.6L20.1,29.2z"/>
	<path class="st0" d="M15,28.4L12.2,32l2.8,3.6l1-0.8L13.8,32l2.2-2.8L15,28.4z"/>
	<path class="st0" d="M16.8,36.3l1.3-8.9l1.3,0.2L18,36.5L16.8,36.3z"/>
	<path class="st0" d="M41.4,5.4H19.9c-1.7,0-3.2,1.4-3.2,3.2v10.8h-1.1L15.1,21c-1,0.3-1.9,0.7-2.8,1.2l-1.6-0.8l-3.3,3.3l0.8,1.6
		c-0.5,0.9-0.9,1.8-1.2,2.8l-1.6,0.5v4.7L7,34.9c0.3,1,0.7,1.9,1.2,2.8l-0.8,1.6l3.3,3.3l1.6-0.8c0.9,0.5,1.8,0.9,2.8,1.2l0.5,1.6
		h4.7l0.5-1.6c1-0.3,1.9-0.7,2.8-1.2l1.6,0.8l3.3-3.3l-0.8-1.6c0.5-0.9,0.9-1.8,1.2-2.8l1.6-0.5v-1.1h10.8c1.7,0,3.2-1.4,3.2-3.2
		V8.6C44.6,6.8,43.2,5.4,41.4,5.4L41.4,5.4z M43.3,8.6V13h-3.2c-1.6-2.4-4.1-4.1-6.9-4.8V6.7h8.2C42.5,6.7,43.3,7.5,43.3,8.6z
		 M30.2,29.4L29,29.1c-0.3-1-0.7-1.9-1.2-2.8l0.8-1.6l-3.3-3.3l-1.6,0.8c-0.9-0.5-1.8-0.9-2.8-1.2l-0.4-1.1v-0.5
		c0-5.6,4.5-10.1,10.1-10.1c1.9,0,3.8,0.6,5.3,1.5l-3.7,4.5c-0.5-0.2-1.1-0.3-1.6-0.3c-2.4,0-4.4,2-4.4,4.4s2,4.4,4.4,4.4
		c2.4,0,4.4-2,4.4-4.4c0-0.6-0.1-1.1-0.3-1.6l4.5-3.7c1,1.5,1.5,3.4,1.5,5.3c0,5.6-4.5,10.1-10.1,10.1H30.2z M33.9,19.3
		c0,1.7-1.4,3.2-3.2,3.2s-3.2-1.4-3.2-3.2c0-1.7,1.4-3.2,3.2-3.2c0.3,0,0.5,0,0.8,0.1c-0.3,0.4-0.5,0.8-0.6,1.2c-0.1,0-0.1,0-0.2,0
		c-1,0-1.9,0.9-1.9,1.9s0.9,1.9,1.9,1.9s1.9-0.9,1.9-1.9c0-0.1,0-0.1,0-0.2c0.4-0.1,0.8-0.3,1.2-0.6C33.8,18.8,33.9,19,33.9,19.3z
		 M31.3,19.3c0,0.3-0.3,0.6-0.6,0.6s-0.6-0.3-0.6-0.6c0-0.3,0.3-0.6,0.6-0.6v0.6H31.3z M33.2,17.4c-0.3,0.3-0.7,0.5-1.1,0.6
		c0.1-0.4,0.3-0.8,0.6-1.1l4.4-5.4c0.6,0.5,1.1,1,1.5,1.5L33.2,17.4z M18,8.6c0-1,0.9-1.9,1.9-1.9h12V8c-0.4,0-0.8-0.1-1.3-0.1
		c-6.3,0-11.4,5.1-11.4,11.4H18V8.6z M29.4,33.4L28,33.9l-0.1,0.3c-0.3,1.1-0.7,2.1-1.3,3.1l-0.2,0.3l0.7,1.4l-2,2l-1.4-0.7
		l-0.3,0.2c-1,0.6-2,1-3.1,1.3L20,41.9l-0.5,1.5h-2.9l-0.5-1.5l-0.3-0.1c-1.1-0.3-2.1-0.7-3.1-1.3l-0.3-0.2L11,41l-2-2l0.7-1.4
		l-0.2-0.3c-0.6-1-1-2-1.3-3.1l-0.1-0.3l-1.5-0.5v-2.9L8.1,30l0.1-0.3c0.3-1.1,0.7-2.1,1.3-3.1l0.2-0.3L9,24.9l2-2l1.4,0.7l0.3-0.2
		c1-0.6,2-1,3.1-1.3l0.3-0.1l0.5-1.4h2.9L20,22l0.3,0.1c1.1,0.3,2.1,0.7,3.1,1.3l0.3,0.2l1.4-0.7l2,2l-0.7,1.4l0.2,0.3
		c0.6,1,1,2,1.3,3.1L28,30l1.5,0.5V33.4z M41.4,32H30.7v-1.3c6.3,0,11.4-5.1,11.4-11.4c0-1.8-0.4-3.5-1.2-5.1h2.5v15.8
		C43.3,31.1,42.5,32,41.4,32z"/>
	<path class="st0" d="M40.8,11.7c1,0,1.9-0.9,1.9-1.9s-0.9-1.9-1.9-1.9c-1,0-1.9,0.9-1.9,1.9S39.8,11.7,40.8,11.7z M40.8,9.2
		c0.3,0,0.6,0.3,0.6,0.6c0,0.3-0.3,0.6-0.6,0.6c-0.3,0-0.6-0.3-0.6-0.6C40.2,9.5,40.5,9.2,40.8,9.2z"/>
	<circle class="st0" cx="19.9" cy="8.6" r="0.6"/>
	<circle class="st0" cx="41.4" cy="30.1" r="0.6"/>
	<path class="st0" d="M30.7,10.5c-4.9,0-8.9,4-8.9,8.9h1.3c0-4.2,3.4-7.6,7.6-7.6V10.5z"/>
</g>
</svg>
