<?xml version="1.0" encoding="utf-8"?>
<!-- Generator: Adobe Illustrator 21.0.0, SVG Export Plug-In . SVG Version: 6.00 Build 0)  -->
<svg version="1.1" id="Capa_1" xmlns="http://www.w3.org/2000/svg" xmlns:xlink="http://www.w3.org/1999/xlink" x="0px" y="0px"
	 viewBox="0 0 50 50" style="enable-background:new 0 0 50 50;" xml:space="preserve">
<style type="text/css">
	.st0{fill:#10485F;}
</style>
<g>
	<path class="st0" d="M-112.6,75.3v4.1h2.8V78h-1.4v-2.8h-1.4V75.3z"/>
	<path class="st0" d="M-121.5,96h1.4v11.1h-1.4V96z"/>
	<path class="st0" d="M-88.6,94l-1.1-4.5l-3.6,3.6l-1.8-1.8l3.6-3.6l-4.5-1.1l-1.3,1.3c-0.7-0.1-1.5-0.2-2.2-0.1l-4.4-3.6v1.6
		l-1.9-1.3v-1.2l2.1-1.4v-2.4h0.7c1.5,0,2.8-1,3.3-2.4s0-3-1.2-3.9l0,0v-0.7c0-5.3-4.3-9.7-9.7-9.7s-9.7,4.3-9.7,9.7v0.7l0,0
		c-1.1,0.8-1.6,2.2-1.3,3.5s1.3,2.4,2.7,2.6v2.8h6.9v-1.4h-5.5v-1.4h1.4v-4.6l2.2-2.2l0.5,0.3c1.8,1.1,4,1.1,5.8,0l0.5-0.3l2.2,2.2
		V81l-3.7,2.4h-6.7v1l-3.2,2.2l-6.1,1.8c-1.5,0.4-2.5,1.8-2.5,3.3v15.1h1.4V92c0-0.9,0.6-1.7,1.5-2l5.5-1.7l2.5,7.6l2.6-2.6l2.4,0.5
		v7.7h1.4v-7.7l2.7-0.4c-1.1,2.5-1,5.4,0.3,7.9l-0.9,0.9c-1,1-1,2.7,0,3.7s2.7,1,3.7,0l0.8-0.8c3.2,1.9,7.2,1.7,10.3-0.5
		c3-2.2,4.4-6,3.5-9.6L-88.6,94z M-100.9,76c0,1.1-0.9,2.1-2.1,2.1h-0.7V74h0.7C-101.8,73.9-100.9,74.9-100.9,76z M-117.5,78.1h-0.7
		c-1.1,0-2.1-0.9-2.1-2.1c0-1.1,0.9-2.1,2.1-2.1h0.7V78.1z M-117.5,72.6h-0.7c-0.2,0-0.5,0-0.7,0.1v-0.1c0-4.6,3.7-8.3,8.3-8.3
		s8.3,3.7,8.3,8.3v0.1c-0.2,0-0.5-0.1-0.7-0.1h-0.7c0-3.8-3.1-6.9-6.9-6.9S-117.5,68.7-117.5,72.6z M-107,71l-1.4,0.9
		c-1.3,0.8-3,0.8-4.3,0l-1.4-0.9l-2,2v-0.4c0-3.1,2.5-5.5,5.5-5.5s5.5,2.5,5.5,5.5V73L-107,71z M-102.8,90.3l0.3-0.2v-3l2.6,2.1h0.3
		c0.3,0,0.6-0.1,0.9-0.1c0.1,0,0.1,0,0.2,0l-1.7,1.7l0.8,2.9l-6.5,6.5C-107.5,96.6-106.2,92.4-102.8,90.3L-102.8,90.3z M-114.1,91.8
		l-1.5,1.5l-1.9-5.6l2.1-1.5v2.5l2.9,3.3L-114.1,91.8z M-110.6,92.2l-3.5-3.9V85h5.7l1.2-0.8v4.1L-110.6,92.2z M-108.8,92.3l3-3.5
		v-2.7l1.9,1.3v1.9c-1,0.7-1.9,1.5-2.6,2.6L-108.8,92.3z M-98.7,105.1c-1.3,0-2.6-0.3-3.7-0.9l6.7-6.7l2.9,0.8l2-2
		c0,0.3,0.1,0.6,0.1,0.9C-90.7,101.5-94.3,105.1-98.7,105.1z M-93.2,96.7l-2.9-0.8l-9.1,9.1c-0.5,0.5-1.3,0.5-1.8,0s-0.5-1.3,0-1.8
		l9.1-9.1l-0.8-2.9l3.1-3.1l1.4,0.3l-2.8,2.8l3.7,3.7l2.8-2.8l0.3,1.4L-93.2,96.7z"/>
</g>
<g id="Desk-2">
	<path class="st0" d="M45.3,20.8h-2.1V8.9c0-0.4-0.3-0.7-0.7-0.7h-4.9V6.1c0-0.4-0.3-0.7-0.7-0.7h-5.6c-0.4,0-0.7,0.3-0.7,0.7v14.7
		h-8.7L20,18h5.7c1.2,0,2.1-0.9,2.1-2.1V6.1c0-1.2-0.9-2.1-2.1-2.1H8.9C7.7,4,6.8,4.9,6.8,6.1v9.8c0,1.2,0.9,2.1,2.1,2.1h5.7
		l-1.9,2.8h-8c-0.4,0-0.7,0.3-0.7,0.7v2.8C4,24.7,4.3,25,4.7,25h0.7v20.3c0,0.4,0.3,0.7,0.7,0.7h2.8c0.4,0,0.7-0.3,0.7-0.7V25h18.2
		v20.3c0,0.4,0.3,0.7,0.7,0.7h15.4c0.4,0,0.7-0.3,0.7-0.7V25h0.7c0.4,0,0.7-0.3,0.7-0.7v-2.8C46,21.1,45.7,20.8,45.3,20.8z
		 M41.8,9.6v11.2h-1.4V9.6H41.8z M39,9.6v11.2h-1.4V9.6H39z M36.2,20.8h-1.4v-14h1.4V20.8z M32,6.8h1.4v14H32V6.8z M8.2,15.9V6.1
		c0-0.4,0.3-0.7,0.7-0.7h16.8c0.4,0,0.7,0.3,0.7,0.7v9.8c0,0.4-0.3,0.7-0.7,0.7H8.9C8.5,16.6,8.2,16.3,8.2,15.9z M16.3,18h2.1
		l1.9,2.8h-5.8L16.3,18z M8.2,44.6H6.8V25h1.4V44.6z M29.2,32h14v5.6h-14V32z M29.2,44.6V39h14v5.6H29.2z M43.2,30.6h-14V25h14V30.6
		z M44.6,23.6H5.4v-1.4h39.2V23.6z"/>
	<path class="st0" d="M34.8,26.4h2.8v1.4h-2.8V26.4z"/>
	<path class="st0" d="M34.8,33.4h2.8v1.4h-2.8V33.4z"/>
	<path class="st0" d="M34.8,40.4h2.8v1.4h-2.8V40.4z"/>
	<path class="st0" d="M24.3,6.8h-2.1v1.4h1.4v1.4H25V7.5C25,7.1,24.7,6.8,24.3,6.8z"/>
	<path class="st0" d="M23.6,10.3H25v1.4h-1.4V10.3z"/>
</g>
</svg>
