<?xml version="1.0" encoding="utf-8"?>
<!-- Generator: Adobe Illustrator 21.0.0, SVG Export Plug-In . SVG Version: 6.00 Build 0)  -->
<svg version="1.1" id="Capa_1" xmlns="http://www.w3.org/2000/svg" xmlns:xlink="http://www.w3.org/1999/xlink" x="0px" y="0px"
	 viewBox="0 0 50 50" style="enable-background:new 0 0 50 50;" xml:space="preserve">
<style type="text/css">
	.st0{fill:#10485F;}
</style>
<g>
	<path class="st0" d="M-112.6,75.3v4.1h2.8V78h-1.4v-2.8h-1.4V75.3z"/>
	<path class="st0" d="M-121.5,96h1.4v11.1h-1.4V96z"/>
	<path class="st0" d="M-88.6,94l-1.1-4.5l-3.6,3.6l-1.8-1.8l3.6-3.6l-4.5-1.1l-1.3,1.3c-0.7-0.1-1.5-0.2-2.2-0.1l-4.4-3.6v1.6
		l-1.9-1.3v-1.2l2.1-1.4v-2.4h0.7c1.5,0,2.8-1,3.3-2.4s0-3-1.2-3.9l0,0v-0.7c0-5.3-4.3-9.7-9.7-9.7s-9.7,4.3-9.7,9.7v0.7l0,0
		c-1.1,0.8-1.6,2.2-1.3,3.5s1.3,2.4,2.7,2.6v2.8h6.9v-1.4h-5.5v-1.4h1.4v-4.6l2.2-2.2l0.5,0.3c1.8,1.1,4,1.1,5.8,0l0.5-0.3l2.2,2.2
		V81l-3.7,2.4h-6.7v1l-3.2,2.2l-6.1,1.8c-1.5,0.4-2.5,1.8-2.5,3.3v15.1h1.4V92c0-0.9,0.6-1.7,1.5-2l5.5-1.7l2.5,7.6l2.6-2.6l2.4,0.5
		v7.7h1.4v-7.7l2.7-0.4c-1.1,2.5-1,5.4,0.3,7.9l-0.9,0.9c-1,1-1,2.7,0,3.7s2.7,1,3.7,0l0.8-0.8c3.2,1.9,7.2,1.7,10.3-0.5
		c3-2.2,4.4-6,3.5-9.6L-88.6,94z M-100.9,76c0,1.1-0.9,2.1-2.1,2.1h-0.7V74h0.7C-101.8,73.9-100.9,74.9-100.9,76z M-117.5,78.1h-0.7
		c-1.1,0-2.1-0.9-2.1-2.1c0-1.1,0.9-2.1,2.1-2.1h0.7V78.1z M-117.5,72.6h-0.7c-0.2,0-0.5,0-0.7,0.1v-0.1c0-4.6,3.7-8.3,8.3-8.3
		s8.3,3.7,8.3,8.3v0.1c-0.2,0-0.5-0.1-0.7-0.1h-0.7c0-3.8-3.1-6.9-6.9-6.9S-117.5,68.7-117.5,72.6z M-107,71l-1.4,0.9
		c-1.3,0.8-3,0.8-4.3,0l-1.4-0.9l-2,2v-0.4c0-3.1,2.5-5.5,5.5-5.5s5.5,2.5,5.5,5.5V73L-107,71z M-102.8,90.3l0.3-0.2v-3l2.6,2.1h0.3
		c0.3,0,0.6-0.1,0.9-0.1c0.1,0,0.1,0,0.2,0l-1.7,1.7l0.8,2.9l-6.5,6.5C-107.5,96.6-106.2,92.4-102.8,90.3L-102.8,90.3z M-114.1,91.8
		l-1.5,1.5l-1.9-5.6l2.1-1.5v2.5l2.9,3.3L-114.1,91.8z M-110.6,92.2l-3.5-3.9V85h5.7l1.2-0.8v4.1L-110.6,92.2z M-108.8,92.3l3-3.5
		v-2.7l1.9,1.3v1.9c-1,0.7-1.9,1.5-2.6,2.6L-108.8,92.3z M-98.7,105.1c-1.3,0-2.6-0.3-3.7-0.9l6.7-6.7l2.9,0.8l2-2
		c0,0.3,0.1,0.6,0.1,0.9C-90.7,101.5-94.3,105.1-98.7,105.1z M-93.2,96.7l-2.9-0.8l-9.1,9.1c-0.5,0.5-1.3,0.5-1.8,0s-0.5-1.3,0-1.8
		l9.1-9.1l-0.8-2.9l3.1-3.1l1.4,0.3l-2.8,2.8l3.7,3.7l2.8-2.8l0.3,1.4L-93.2,96.7z"/>
</g>
<g>
	<path class="st0" d="M9.4,29.8h1.2v10.8H9.4V29.8z"/>
	<path class="st0" d="M11.8,29.8H13v10.8h-1.2V29.8z"/>
	<path class="st0" d="M14.2,29.8h1.2v10.8h-1.2V29.8z"/>
	<path class="st0" d="M16.6,38.2h1.2v2.4h-1.2V38.2z"/>
	<path class="st0" d="M19,38.2h1.2v2.4H19V38.2z"/>
	<path class="st0" d="M42,34l-1.8-1.6c0-0.2,0-0.5,0-0.7c0-0.2,0-0.4,0-0.7l2.2-2l-0.8-2.5l-2.9-0.3c-0.2-0.4-0.5-0.7-0.8-1.1
		l0.6-2.9l-2.1-1.5l-2.5,1.4c-0.4-0.2-0.8-0.3-1.3-0.4l-1.2-2.7h-2.6l-1.2,2.7c-0.4,0.1-0.9,0.3-1.3,0.4l-0.7-0.4v-16H5.8v38.5h19.8
		v-2.7l0.7-0.4c0.4,0.2,0.8,0.3,1.3,0.4l1.2,2.7h2.6l1.2-2.7c0.4-0.1,0.9-0.3,1.3-0.4l2.1,1.2c1.7,1.3,4.2,1.4,6,0.2l0.7-0.5
		l-3.3-2.5l1.5-2L44,40l0.2-1C44.5,37.1,43.7,35.1,42,34L42,34z M26.2,23.5l0.3-0.1c0.5-0.2,1.1-0.4,1.6-0.5l0.3-0.1l1.1-2.5h1
		l1.1,2.5l0.3,0.1c0.6,0.1,1.1,0.3,1.6,0.5l0.3,0.1l2.4-1.4c0.3,0.2,0.6,0.4,0.8,0.6l-0.6,2.7l0.2,0.2c0.4,0.4,0.7,0.9,1,1.4
		l0.2,0.3l2.8,0.3c0.1,0.3,0.2,0.6,0.3,1L39,30.5l0,0.3c0,0.3,0,0.6,0,0.9c0,0.3,0,0.6,0,0.9l0,0.3l0.2,0.2c-0.1,0-0.1,0-0.2,0
		c-0.7,0-1.5,0.2-2.1,0.5l-1.5-1c0.3-2-0.6-4.1-2.3-5.2c-1.7-1.2-3.9-1.3-5.7-0.3L26.1,26c0.2-0.9,0.1-1.8-0.2-2.7L26.2,23.5z
		 M34.3,31.6l-5.7-3.9c1.3-0.5,2.7-0.3,3.9,0.5C33.6,29,34.3,30.3,34.3,31.6z M7,7h17.4v3.6H13V9.4H7V7z M7,10.6h4.8v1.2H7V10.6z
		 M7,13h6v-1.2h11.4v4.8H13v-1.2H7V13z M7,16.6h4.8v1.2H7V16.6z M24.4,43H7V19h6v-1.2h11.4v3.3l0,0c-1.8-1.5-4.3-1.6-6.2-0.4
		l-0.7,0.5l3.3,2.5l-1.5,2l-3.3-2.4l-0.2,1c-0.3,1.9,0.5,3.9,2.1,5l0,0l1.9,1.7c0,0.2,0,0.5,0,0.7c0,0.2,0,0.4,0,0.7l-2.2,2l0.1,0.3
		c0.1,0.6,0.3,1.2,0.6,1.8l0.1,0.3l2.9,0.3c0.2,0.4,0.5,0.7,0.8,1.1L21.6,41l0.3,0.2c0.5,0.4,1,0.8,1.5,1.1l0.3,0.2l0.7-0.4V43z
		 M33.9,39.8l-0.3,0.1c-0.5,0.2-1.1,0.4-1.6,0.5l-0.3,0.1L30.6,43h-1l-1.1-2.5l-0.3-0.1c-0.6-0.1-1.1-0.3-1.6-0.5l-0.3-0.1l-2.4,1.4
		c-0.3-0.2-0.6-0.4-0.8-0.6l0.6-2.7l-0.2-0.2c-0.4-0.4-0.7-0.9-1-1.4L22.1,36l-2.8-0.3c-0.1-0.3-0.2-0.6-0.3-1l2.1-1.9l0-0.3
		c0-0.3,0-0.6,0-0.9c0-0.3,0-0.6,0-0.9l0-0.3l-0.3-0.3c0.1,0,0.1,0,0.2,0c0.7,0,1.4-0.2,2.1-0.4l1.6,1.1c0,0.3-0.1,0.5-0.1,0.8
		c0,1.9,1,3.7,2.7,4.7c1.7,1,3.7,1,5.4,0.1l1.3,0.9c0,0.2-0.1,0.5-0.1,0.7c0,0.1,0,0.2,0,0.2c0,0.2,0,0.3,0,0.5c0,0,0,0.1,0,0.1
		c0,0.1,0,0.2,0.1,0.3c0,0,0,0.1,0,0.1c0,0.1,0.1,0.2,0.1,0.3c0,0,0,0.1,0,0.1c0,0.1,0,0.1,0,0.2L33.9,39.8z M25.9,31.7l5.7,3.9
		c-1.3,0.5-2.7,0.3-3.9-0.5C26.5,34.3,25.8,33,25.9,31.7L25.9,31.7z M40.5,35.9l-2.9,3.9l2.8,2.1c-1.3,0.5-2.8,0.2-3.9-0.6
		c-0.1-0.1-0.2-0.1-0.2-0.2c0,0-0.1-0.1-0.1-0.1c-0.1-0.1-0.1-0.2-0.2-0.2c0-0.1-0.1-0.1-0.1-0.2c0,0-0.1-0.1-0.1-0.1
		c0-0.1-0.1-0.1-0.1-0.2c0-0.1-0.1-0.1-0.1-0.2c0-0.1-0.1-0.1-0.1-0.2c0-0.1,0-0.1-0.1-0.2c0-0.1-0.1-0.1-0.1-0.2
		c0-0.1,0-0.1-0.1-0.2c0-0.1,0-0.1,0-0.2c0-0.1,0-0.2,0-0.3c0-0.1,0-0.1,0-0.2c0-0.1,0-0.3,0-0.4c0-0.1,0-0.2,0-0.3
		c0-0.2,0.1-0.4,0.1-0.6c0-0.1,0-0.1,0-0.2l0.1-0.4l-12.1-8.4l-0.3,0.2c-1.2,0.6-2.6,0.6-3.7,0c-1.2-0.6-2-1.8-2.1-3.1l2.5,1.9
		l2.9-3.9l-2.8-2.1c1.4-0.5,3-0.2,4.1,0.8c1.1,1,1.5,2.6,1.1,4l-0.1,0.4l12.1,8.4l0.3-0.2c1.2-0.6,2.6-0.6,3.8,0
		c1.2,0.6,2,1.8,2.1,3.1L40.5,35.9z"/>
</g>
</svg>
