<?xml version="1.0" encoding="utf-8"?>
<!-- Generator: Adobe Illustrator 21.0.0, SVG Export Plug-In . SVG Version: 6.00 Build 0)  -->
<svg version="1.1" id="Capa_1" xmlns="http://www.w3.org/2000/svg" xmlns:xlink="http://www.w3.org/1999/xlink" x="0px" y="0px"
	 viewBox="0 0 50 50" style="enable-background:new 0 0 50 50;" xml:space="preserve">
<style type="text/css">
	.st0{fill:#10485F;}
</style>
<g>
	<path class="st0" d="M-112.6,75.3v4.1h2.8V78h-1.4v-2.8h-1.4V75.3z"/>
	<path class="st0" d="M-121.5,96h1.4v11.1h-1.4V96z"/>
	<path class="st0" d="M-88.6,94l-1.1-4.5l-3.6,3.6l-1.8-1.8l3.6-3.6l-4.5-1.1l-1.3,1.3c-0.7-0.1-1.5-0.2-2.2-0.1l-4.4-3.6v1.6
		l-1.9-1.3v-1.2l2.1-1.4v-2.4h0.7c1.5,0,2.8-1,3.3-2.4s0-3-1.2-3.9l0,0v-0.7c0-5.3-4.3-9.7-9.7-9.7s-9.7,4.3-9.7,9.7v0.7l0,0
		c-1.1,0.8-1.6,2.2-1.3,3.5s1.3,2.4,2.7,2.6v2.8h6.9v-1.4h-5.5v-1.4h1.4v-4.6l2.2-2.2l0.5,0.3c1.8,1.1,4,1.1,5.8,0l0.5-0.3l2.2,2.2
		V81l-3.7,2.4h-6.7v1l-3.2,2.2l-6.1,1.8c-1.5,0.4-2.5,1.8-2.5,3.3v15.1h1.4V92c0-0.9,0.6-1.7,1.5-2l5.5-1.7l2.5,7.6l2.6-2.6l2.4,0.5
		v7.7h1.4v-7.7l2.7-0.4c-1.1,2.5-1,5.4,0.3,7.9l-0.9,0.9c-1,1-1,2.7,0,3.7s2.7,1,3.7,0l0.8-0.8c3.2,1.9,7.2,1.7,10.3-0.5
		c3-2.2,4.4-6,3.5-9.6L-88.6,94z M-100.9,76c0,1.1-0.9,2.1-2.1,2.1h-0.7V74h0.7C-101.8,73.9-100.9,74.9-100.9,76z M-117.5,78.1h-0.7
		c-1.1,0-2.1-0.9-2.1-2.1c0-1.1,0.9-2.1,2.1-2.1h0.7V78.1z M-117.5,72.6h-0.7c-0.2,0-0.5,0-0.7,0.1v-0.1c0-4.6,3.7-8.3,8.3-8.3
		s8.3,3.7,8.3,8.3v0.1c-0.2,0-0.5-0.1-0.7-0.1h-0.7c0-3.8-3.1-6.9-6.9-6.9S-117.5,68.7-117.5,72.6z M-107,71l-1.4,0.9
		c-1.3,0.8-3,0.8-4.3,0l-1.4-0.9l-2,2v-0.4c0-3.1,2.5-5.5,5.5-5.5s5.5,2.5,5.5,5.5V73L-107,71z M-102.8,90.3l0.3-0.2v-3l2.6,2.1h0.3
		c0.3,0,0.6-0.1,0.9-0.1c0.1,0,0.1,0,0.2,0l-1.7,1.7l0.8,2.9l-6.5,6.5C-107.5,96.6-106.2,92.4-102.8,90.3L-102.8,90.3z M-114.1,91.8
		l-1.5,1.5l-1.9-5.6l2.1-1.5v2.5l2.9,3.3L-114.1,91.8z M-110.6,92.2l-3.5-3.9V85h5.7l1.2-0.8v4.1L-110.6,92.2z M-108.8,92.3l3-3.5
		v-2.7l1.9,1.3v1.9c-1,0.7-1.9,1.5-2.6,2.6L-108.8,92.3z M-98.7,105.1c-1.3,0-2.6-0.3-3.7-0.9l6.7-6.7l2.9,0.8l2-2
		c0,0.3,0.1,0.6,0.1,0.9C-90.7,101.5-94.3,105.1-98.7,105.1z M-93.2,96.7l-2.9-0.8l-9.1,9.1c-0.5,0.5-1.3,0.5-1.8,0s-0.5-1.3,0-1.8
		l9.1-9.1l-0.8-2.9l3.1-3.1l1.4,0.3l-2.8,2.8l3.7,3.7l2.8-2.8l0.3,1.4L-93.2,96.7z"/>
</g>
<g>
	<path class="st0" d="M8.4,6.3c-1,0-1.8,0.8-1.8,1.8c0,1,0.8,1.8,1.8,1.8s1.8-0.8,1.8-1.8C10.3,7.1,9.4,6.3,8.4,6.3z M8.4,8.7
		c-0.3,0-0.6-0.3-0.6-0.6c0-0.3,0.3-0.6,0.6-0.6C8.8,7.5,9,7.8,9,8.1C9,8.4,8.8,8.7,8.4,8.7z"/>
	<path class="st0" d="M13.1,6.3c-1,0-1.8,0.8-1.8,1.8c0,1,0.8,1.8,1.8,1.8s1.8-0.8,1.8-1.8C14.9,7.1,14.1,6.3,13.1,6.3z M13.1,8.7
		c-0.3,0-0.6-0.3-0.6-0.6c0-0.3,0.3-0.6,0.6-0.6c0.3,0,0.6,0.3,0.6,0.6C13.6,8.4,13.4,8.7,13.1,8.7z"/>
	<path class="st0" d="M17.7,6.3c-1,0-1.8,0.8-1.8,1.8c0,1,0.8,1.8,1.8,1.8s1.8-0.8,1.8-1.8C19.5,7.1,18.7,6.3,17.7,6.3z M17.7,8.7
		c-0.3,0-0.6-0.3-0.6-0.6c0-0.3,0.3-0.6,0.6-0.6c0.3,0,0.6,0.3,0.6,0.6C18.3,8.4,18,8.7,17.7,8.7z"/>
	<path class="st0" d="M45.5,16.1c0.3,0,0.6-0.3,0.6-0.6l0-8.9c0-1.5-1.2-2.7-2.7-2.7H6.6c-1.5,0-2.7,1.2-2.7,2.7v29.9
		c0,1.4,1,2.5,2.3,2.7c0.1,0,0.3,0,0.4,0h12v2.2h-1.9c-1.2,0-2.3,1-2.3,2.3v1.3c0,0.6,0.5,1,1,1h2.9c0.3,0,0.6-0.3,0.6-0.6
		c0-0.3-0.3-0.6-0.6-0.6h-2.7v-1.1c0-0.6,0.5-1,1-1h16.4c0.6,0,1,0.5,1,1v1.1H22.3c-0.3,0-0.6,0.3-0.6,0.6c0,0.3,0.3,0.6,0.6,0.6
		h12.1c0.6,0,1-0.5,1-1v-1.3c0-1.2-1-2.3-2.3-2.3h-1.9v-2.2h12c0.1,0,0.3,0,0.4,0c1.3-0.2,2.3-1.3,2.3-2.7V19.3
		c0-0.3-0.3-0.6-0.6-0.6c-0.3,0-0.6,0.3-0.6,0.6V33H25.5V12.3h19.3v3.2C44.8,15.8,45.1,16.1,45.5,16.1z M5.2,12.3h19.1v20.6H5.2
		V12.3z M30.1,41.5H19.9v-2.2h10.2V41.5z M44.8,34.2v2.3c0,0.8-0.6,1.4-1.3,1.5c0,0-0.1,0-0.2,0H6.6c-0.1,0-0.1,0-0.2,0
		c-0.7-0.1-1.3-0.7-1.3-1.5v-2.3H44.8z M24.9,11.1H5.2V6.6c0-0.8,0.7-1.5,1.5-1.5h36.7c0.8,0,1.5,0.7,1.5,1.5v4.5H24.9z"/>
	<path class="st0" d="M7.7,14.8h3.1c0.3,0,0.6-0.3,0.6-0.6c0-0.3-0.3-0.6-0.6-0.6H7.7c-0.3,0-0.6,0.3-0.6,0.6
		C7.1,14.5,7.4,14.8,7.7,14.8z"/>
	<path class="st0" d="M13,14.8h1.5c0.3,0,0.6-0.3,0.6-0.6c0-0.3-0.3-0.6-0.6-0.6H13c-0.3,0-0.6,0.3-0.6,0.6
		C12.4,14.5,12.7,14.8,13,14.8z"/>
	<path class="st0" d="M12.4,15.7h-2.1c-0.3,0-0.6,0.3-0.6,0.6c0,0.3,0.3,0.6,0.6,0.6h2.1c0.3,0,0.6-0.3,0.6-0.6
		C13.1,16,12.8,15.7,12.4,15.7z"/>
	<path class="st0" d="M22.2,18h-2.1c-0.3,0-0.6,0.3-0.6,0.6s0.3,0.6,0.6,0.6h2.1c0.3,0,0.6-0.3,0.6-0.6S22.5,18,22.2,18z"/>
	<path class="st0" d="M13.7,16.3c0,0.3,0.3,0.6,0.6,0.6h4.9c0.3,0,0.6-0.3,0.6-0.6c0-0.3-0.3-0.6-0.6-0.6h-4.9
		C14,15.7,13.7,16,13.7,16.3z"/>
	<path class="st0" d="M11.7,18.6c0,0.3,0.3,0.6,0.6,0.6h1.1c0.3,0,0.6-0.3,0.6-0.6S13.8,18,13.4,18h-1.1C12,18,11.7,18.3,11.7,18.6z
		"/>
	<path class="st0" d="M18.2,19.2c0.3,0,0.6-0.3,0.6-0.6S18.6,18,18.2,18h-3c-0.3,0-0.6,0.3-0.6,0.6s0.3,0.6,0.6,0.6H18.2z"/>
	<path class="st0" d="M11.5,26.6c0-0.3-0.3-0.6-0.6-0.6H7.7c-0.3,0-0.6,0.3-0.6,0.6c0,0.3,0.3,0.6,0.6,0.6h3.1
		C11.2,27.2,11.5,27,11.5,26.6z"/>
	<path class="st0" d="M13,26c-0.3,0-0.6,0.3-0.6,0.6c0,0.3,0.3,0.6,0.6,0.6h1.5c0.3,0,0.6-0.3,0.6-0.6c0-0.3-0.3-0.6-0.6-0.6H13z"/>
	<path class="st0" d="M13.1,28.8c0-0.3-0.3-0.6-0.6-0.6h-2.1c-0.3,0-0.6,0.3-0.6,0.6c0,0.3,0.3,0.6,0.6,0.6h2.1
		C12.8,29.4,13.1,29.1,13.1,28.8z"/>
	<path class="st0" d="M13.4,30.4h-1.1c-0.3,0-0.6,0.3-0.6,0.6c0,0.3,0.3,0.6,0.6,0.6h1.1c0.3,0,0.6-0.3,0.6-0.6
		C14.1,30.7,13.8,30.4,13.4,30.4z"/>
	<path class="st0" d="M22.2,30.4h-2.1c-0.3,0-0.6,0.3-0.6,0.6c0,0.3,0.3,0.6,0.6,0.6h2.1c0.3,0,0.6-0.3,0.6-0.6
		C22.8,30.7,22.5,30.4,22.2,30.4z"/>
	<path class="st0" d="M19.9,28.8c0-0.3-0.3-0.6-0.6-0.6h-4.9c-0.3,0-0.6,0.3-0.6,0.6c0,0.3,0.3,0.6,0.6,0.6h4.9
		C19.6,29.4,19.9,29.1,19.9,28.8z"/>
	<path class="st0" d="M18.2,30.4h-3c-0.3,0-0.6,0.3-0.6,0.6c0,0.3,0.3,0.6,0.6,0.6h3c0.3,0,0.6-0.3,0.6-0.6
		C18.8,30.7,18.6,30.4,18.2,30.4z"/>
	<path class="st0" d="M7.7,22.1h1.7c0.3,0,0.6-0.3,0.6-0.6c0-0.3-0.3-0.6-0.6-0.6H7.7c-0.3,0-0.6,0.3-0.6,0.6
		C7.1,21.8,7.4,22.1,7.7,22.1z"/>
	<path class="st0" d="M18.2,21.4c0-0.3-0.3-0.6-0.6-0.6h-6.3c-0.3,0-0.6,0.3-0.6,0.6c0,0.3,0.3,0.6,0.6,0.6h6.3
		C17.9,22.1,18.2,21.8,18.2,21.4z"/>
	<path class="st0" d="M17,23.6c0-0.3-0.3-0.6-0.6-0.6h-6c-0.3,0-0.6,0.3-0.6,0.6c0,0.3,0.3,0.6,0.6,0.6h6C16.7,24.2,17,24,17,23.6z"
		/>
	<path class="st0" d="M18.1,24.2h1.2c0.3,0,0.6-0.3,0.6-0.6c0-0.3-0.3-0.6-0.6-0.6h-1.2c-0.3,0-0.6,0.3-0.6,0.6
		C17.5,24,17.8,24.2,18.1,24.2z"/>
	<path class="st0" d="M32.2,27.8h-4c-0.3,0-0.6,0.3-0.6,0.6c0,0.3,0.3,0.6,0.6,0.6h4c0.3,0,0.6-0.3,0.6-0.6
		C32.8,28.1,32.5,27.8,32.2,27.8z"/>
	<path class="st0" d="M42.2,27.8h-7.8c-0.3,0-0.6,0.3-0.6,0.6c0,0.3,0.3,0.6,0.6,0.6h7.8c0.3,0,0.6-0.3,0.6-0.6
		C42.9,28.1,42.6,27.8,42.2,27.8z"/>
	<path class="st0" d="M32.2,30.2h-4c-0.3,0-0.6,0.3-0.6,0.6c0,0.3,0.3,0.6,0.6,0.6h4c0.3,0,0.6-0.3,0.6-0.6
		C32.8,30.5,32.5,30.2,32.2,30.2z"/>
	<path class="st0" d="M42.2,30.2h-7.8c-0.3,0-0.6,0.3-0.6,0.6c0,0.3,0.3,0.6,0.6,0.6h7.8c0.3,0,0.6-0.3,0.6-0.6
		C42.9,30.5,42.6,30.2,42.2,30.2z"/>
	<path class="st0" d="M42.9,15.1c0-0.9-0.7-1.6-1.6-1.6H29.2c-0.9,0-1.6,0.7-1.6,1.6v8.4v0V25c0,0.9,0.7,1.6,1.6,1.6h12.1
		c0.9,0,1.6-0.7,1.6-1.6V15.1z M41.6,25c0,0.2-0.2,0.4-0.4,0.4H29.2c-0.2,0-0.4-0.2-0.4-0.4v-1.2l4.5-4.5l3.1,3.5
		c0.2,0.3,0.6,0.3,0.9,0.1c0.3-0.2,0.3-0.6,0.1-0.9l-0.3-0.3l1.4-1.4l3.1,3.5V25z M41.6,21.9l-2.4-2.7c-0.2-0.2-0.4-0.3-0.7-0.3
		c-0.3,0-0.5,0.1-0.7,0.3l-1.5,1.5l-2.2-2.5c-0.2-0.2-0.4-0.3-0.7-0.3c-0.3,0-0.5,0.1-0.7,0.3L28.8,22v-6.9c0-0.2,0.2-0.4,0.4-0.4
		h12.1c0.2,0,0.4,0.2,0.4,0.4V21.9z"/>
</g>
</svg>
