<?xml version="1.0" encoding="utf-8"?>
<!-- Generator: Adobe Illustrator 21.0.0, SVG Export Plug-In . SVG Version: 6.00 Build 0)  -->
<svg version="1.1" id="Capa_1" xmlns="http://www.w3.org/2000/svg" xmlns:xlink="http://www.w3.org/1999/xlink" x="0px" y="0px"
	 viewBox="0 0 50 50" style="enable-background:new 0 0 50 50;" xml:space="preserve">
<style type="text/css">
	.st0{fill:#10485F;}
</style>
<g>
	<path class="st0" d="M-112.6,75.3v4.1h2.8V78h-1.4v-2.8h-1.4V75.3z"/>
	<path class="st0" d="M-121.5,96h1.4v11.1h-1.4V96z"/>
	<path class="st0" d="M-88.6,94l-1.1-4.5l-3.6,3.6l-1.8-1.8l3.6-3.6l-4.5-1.1l-1.3,1.3c-0.7-0.1-1.5-0.2-2.2-0.1l-4.4-3.6v1.6
		l-1.9-1.3v-1.2l2.1-1.4v-2.4h0.7c1.5,0,2.8-1,3.3-2.4s0-3-1.2-3.9l0,0v-0.7c0-5.3-4.3-9.7-9.7-9.7s-9.7,4.3-9.7,9.7v0.7l0,0
		c-1.1,0.8-1.6,2.2-1.3,3.5s1.3,2.4,2.7,2.6v2.8h6.9v-1.4h-5.5v-1.4h1.4v-4.6l2.2-2.2l0.5,0.3c1.8,1.1,4,1.1,5.8,0l0.5-0.3l2.2,2.2
		V81l-3.7,2.4h-6.7v1l-3.2,2.2l-6.1,1.8c-1.5,0.4-2.5,1.8-2.5,3.3v15.1h1.4V92c0-0.9,0.6-1.7,1.5-2l5.5-1.7l2.5,7.6l2.6-2.6l2.4,0.5
		v7.7h1.4v-7.7l2.7-0.4c-1.1,2.5-1,5.4,0.3,7.9l-0.9,0.9c-1,1-1,2.7,0,3.7s2.7,1,3.7,0l0.8-0.8c3.2,1.9,7.2,1.7,10.3-0.5
		c3-2.2,4.4-6,3.5-9.6L-88.6,94z M-100.9,76c0,1.1-0.9,2.1-2.1,2.1h-0.7V74h0.7C-101.8,73.9-100.9,74.9-100.9,76z M-117.5,78.1h-0.7
		c-1.1,0-2.1-0.9-2.1-2.1c0-1.1,0.9-2.1,2.1-2.1h0.7V78.1z M-117.5,72.6h-0.7c-0.2,0-0.5,0-0.7,0.1v-0.1c0-4.6,3.7-8.3,8.3-8.3
		s8.3,3.7,8.3,8.3v0.1c-0.2,0-0.5-0.1-0.7-0.1h-0.7c0-3.8-3.1-6.9-6.9-6.9S-117.5,68.7-117.5,72.6z M-107,71l-1.4,0.9
		c-1.3,0.8-3,0.8-4.3,0l-1.4-0.9l-2,2v-0.4c0-3.1,2.5-5.5,5.5-5.5s5.5,2.5,5.5,5.5V73L-107,71z M-102.8,90.3l0.3-0.2v-3l2.6,2.1h0.3
		c0.3,0,0.6-0.1,0.9-0.1c0.1,0,0.1,0,0.2,0l-1.7,1.7l0.8,2.9l-6.5,6.5C-107.5,96.6-106.2,92.4-102.8,90.3L-102.8,90.3z M-114.1,91.8
		l-1.5,1.5l-1.9-5.6l2.1-1.5v2.5l2.9,3.3L-114.1,91.8z M-110.6,92.2l-3.5-3.9V85h5.7l1.2-0.8v4.1L-110.6,92.2z M-108.8,92.3l3-3.5
		v-2.7l1.9,1.3v1.9c-1,0.7-1.9,1.5-2.6,2.6L-108.8,92.3z M-98.7,105.1c-1.3,0-2.6-0.3-3.7-0.9l6.7-6.7l2.9,0.8l2-2
		c0,0.3,0.1,0.6,0.1,0.9C-90.7,101.5-94.3,105.1-98.7,105.1z M-93.2,96.7l-2.9-0.8l-9.1,9.1c-0.5,0.5-1.3,0.5-1.8,0s-0.5-1.3,0-1.8
		l9.1-9.1l-0.8-2.9l3.1-3.1l1.4,0.3l-2.8,2.8l3.7,3.7l2.8-2.8l0.3,1.4L-93.2,96.7z"/>
</g>
<g>
	<g>
		<g>
			<path class="st0" d="M43.1,12.8h-7.9V8.4c0-0.5-0.4-0.9-0.9-0.9H15.7c-0.5,0-0.9,0.4-0.9,0.9v4.4H6.9c-1.6,0-3,1.3-3,3V30
				c0,1.6,1.3,3,3,3h7.9v8.6c0,0.5,0.4,0.9,0.9,0.9h18.7c0.5,0,0.9-0.4,0.9-0.9V33h7.9c1.6,0,3-1.3,3-3V15.8
				C46.1,14.2,44.8,12.8,43.1,12.8z M35.2,14.6h2.1v2.5h-2.1V14.6z M16.5,9.3h16.9v7.8H16.5V9.3z M12.6,14.6h2.1v2.5h-2.1
				C12.6,17.1,12.6,14.6,12.6,14.6z M33.5,40.7H16.5V28.9h16.9L33.5,40.7L33.5,40.7z M44.3,30L44.3,30c0,0.7-0.5,1.2-1.2,1.2h-7.9
				v-2.3h1.6c0.5,0,0.9-0.4,0.9-0.9s-0.4-0.9-0.9-0.9h-2.5H15.7h-2.5c-0.5,0-0.9,0.4-0.9,0.9s0.4,0.9,0.9,0.9h1.6v2.3H6.9
				c-0.7,0-1.2-0.5-1.2-1.2V15.8c0-0.7,0.5-1.2,1.2-1.2h4V18c0,0.5,0.4,0.9,0.9,0.9h26.5c0.5,0,0.9-0.4,0.9-0.9v-3.4h4
				c0.7,0,1.2,0.5,1.2,1.2V30z"/>
		</g>
	</g>
	<g>
		<g>
			<circle class="st0" cx="9.6" cy="22" r="1.1"/>
		</g>
	</g>
	<g>
		<g>
			<path class="st0" d="M24.7,35.7h-4.2c-0.5,0-0.9,0.4-0.9,0.9c0,0.5,0.4,0.9,0.9,0.9h4.2c0.5,0,0.9-0.4,0.9-0.9
				C25.6,36.1,25.2,35.7,24.7,35.7z"/>
		</g>
	</g>
	<g>
		<g>
			<path class="st0" d="M29.4,31.2h-8.9c-0.5,0-0.9,0.4-0.9,0.9c0,0.5,0.4,0.9,0.9,0.9h8.9c0.5,0,0.9-0.4,0.9-0.9
				C30.3,31.6,29.9,31.2,29.4,31.2z"/>
		</g>
	</g>
</g>
</svg>
