<?xml version="1.0" encoding="utf-8"?>
<!-- Generator: Adobe Illustrator 21.0.0, SVG Export Plug-In . SVG Version: 6.00 Build 0)  -->
<svg version="1.1" id="Capa_1" xmlns="http://www.w3.org/2000/svg" xmlns:xlink="http://www.w3.org/1999/xlink" x="0px" y="0px"
	 viewBox="0 0 50 50" style="enable-background:new 0 0 50 50;" xml:space="preserve">
<style type="text/css">
	.st0{fill:#10485F;}
</style>
<g>
	<path class="st0" d="M-112.6,75.3v4.1h2.8V78h-1.4v-2.8h-1.4V75.3z"/>
	<path class="st0" d="M-121.5,96h1.4v11.1h-1.4V96z"/>
	<path class="st0" d="M-88.6,94l-1.1-4.5l-3.6,3.6l-1.8-1.8l3.6-3.6l-4.5-1.1l-1.3,1.3c-0.7-0.1-1.5-0.2-2.2-0.1l-4.4-3.6v1.6
		l-1.9-1.3v-1.2l2.1-1.4v-2.4h0.7c1.5,0,2.8-1,3.3-2.4s0-3-1.2-3.9l0,0v-0.7c0-5.3-4.3-9.7-9.7-9.7s-9.7,4.3-9.7,9.7v0.7l0,0
		c-1.1,0.8-1.6,2.2-1.3,3.5s1.3,2.4,2.7,2.6v2.8h6.9v-1.4h-5.5v-1.4h1.4v-4.6l2.2-2.2l0.5,0.3c1.8,1.1,4,1.1,5.8,0l0.5-0.3l2.2,2.2
		V81l-3.7,2.4h-6.7v1l-3.2,2.2l-6.1,1.8c-1.5,0.4-2.5,1.8-2.5,3.3v15.1h1.4V92c0-0.9,0.6-1.7,1.5-2l5.5-1.7l2.5,7.6l2.6-2.6l2.4,0.5
		v7.7h1.4v-7.7l2.7-0.4c-1.1,2.5-1,5.4,0.3,7.9l-0.9,0.9c-1,1-1,2.7,0,3.7s2.7,1,3.7,0l0.8-0.8c3.2,1.9,7.2,1.7,10.3-0.5
		c3-2.2,4.4-6,3.5-9.6L-88.6,94z M-100.9,76c0,1.1-0.9,2.1-2.1,2.1h-0.7V74h0.7C-101.8,73.9-100.9,74.9-100.9,76z M-117.5,78.1h-0.7
		c-1.1,0-2.1-0.9-2.1-2.1c0-1.1,0.9-2.1,2.1-2.1h0.7V78.1z M-117.5,72.6h-0.7c-0.2,0-0.5,0-0.7,0.1v-0.1c0-4.6,3.7-8.3,8.3-8.3
		s8.3,3.7,8.3,8.3v0.1c-0.2,0-0.5-0.1-0.7-0.1h-0.7c0-3.8-3.1-6.9-6.9-6.9S-117.5,68.7-117.5,72.6z M-107,71l-1.4,0.9
		c-1.3,0.8-3,0.8-4.3,0l-1.4-0.9l-2,2v-0.4c0-3.1,2.5-5.5,5.5-5.5s5.5,2.5,5.5,5.5V73L-107,71z M-102.8,90.3l0.3-0.2v-3l2.6,2.1h0.3
		c0.3,0,0.6-0.1,0.9-0.1c0.1,0,0.1,0,0.2,0l-1.7,1.7l0.8,2.9l-6.5,6.5C-107.5,96.6-106.2,92.4-102.8,90.3L-102.8,90.3z M-114.1,91.8
		l-1.5,1.5l-1.9-5.6l2.1-1.5v2.5l2.9,3.3L-114.1,91.8z M-110.6,92.2l-3.5-3.9V85h5.7l1.2-0.8v4.1L-110.6,92.2z M-108.8,92.3l3-3.5
		v-2.7l1.9,1.3v1.9c-1,0.7-1.9,1.5-2.6,2.6L-108.8,92.3z M-98.7,105.1c-1.3,0-2.6-0.3-3.7-0.9l6.7-6.7l2.9,0.8l2-2
		c0,0.3,0.1,0.6,0.1,0.9C-90.7,101.5-94.3,105.1-98.7,105.1z M-93.2,96.7l-2.9-0.8l-9.1,9.1c-0.5,0.5-1.3,0.5-1.8,0s-0.5-1.3,0-1.8
		l9.1-9.1l-0.8-2.9l3.1-3.1l1.4,0.3l-2.8,2.8l3.7,3.7l2.8-2.8l0.3,1.4L-93.2,96.7z"/>
</g>
<g>
	<path class="st0" d="M44.4,20.7c-0.2-0.2-0.4-0.3-0.6-0.3h-1.7v-9.3c0-0.6-0.5-1.2-1.2-1.2H20.8l-1.6-2.7c-0.2-0.3-0.6-0.6-1-0.6
		h-9C8.5,6.6,8,7.2,8,7.8v12.6H6.2c-0.2,0-0.5,0.1-0.6,0.3c-0.2,0.2-0.2,0.4-0.2,0.7l3.2,21.3c0.1,0.4,0.4,0.7,0.8,0.7h31.2
		c0.4,0,0.8-0.3,0.8-0.7l3.2-21.3C44.7,21.1,44.6,20.9,44.4,20.7z M9.3,8h8.8l1.6,2.7c0.2,0.3,0.6,0.6,1,0.6h20v9.2h-0.7v-2.6h-0.7
		v-2h-0.7v-2H11.3v2h-0.7v2H9.9v2.6H9.3V8z M11.3,19.1h27.5v1.3H11.3V19.1z M11.9,17.1h26.2v0.7H11.9V17.1z M37.5,15.8H12.6v-0.7
		h24.9V15.8z M40.2,42.1H9.8L6.7,21.7H8h2h30.2h2h1.2L40.2,42.1z"/>
	<path class="st0" d="M23,38.8h13.8v-9.2H23C23,29.6,23,38.8,23,38.8z M24.3,30.9h11.1v6.6H24.3C24.3,37.5,24.3,30.9,24.3,30.9z"/>
	<path class="st0" d="M26.3,33.5h2.6c0.4,0,0.7-0.3,0.7-0.7s-0.3-0.7-0.7-0.7h-2.6c-0.4,0-0.7,0.3-0.7,0.7S25.9,33.5,26.3,33.5z"/>
	<path class="st0" d="M31.6,33.5h0.7c0.4,0,0.7-0.3,0.7-0.7s-0.3-0.7-0.7-0.7h-0.7c-0.4,0-0.7,0.3-0.7,0.7S31.2,33.5,31.6,33.5z"/>
	<path class="st0" d="M33.5,34.8h-7.2c-0.4,0-0.7,0.3-0.7,0.7c0,0.4,0.3,0.7,0.7,0.7h7.2c0.4,0,0.7-0.3,0.7-0.7
		C34.2,35.1,33.9,34.8,33.5,34.8z"/>
</g>
</svg>
