<?xml version="1.0" encoding="utf-8"?>
<!-- Generator: Adobe Illustrator 21.0.0, SVG Export Plug-In . SVG Version: 6.00 Build 0)  -->
<svg version="1.1" id="Capa_1" xmlns="http://www.w3.org/2000/svg" xmlns:xlink="http://www.w3.org/1999/xlink" x="0px" y="0px"
	 viewBox="0 0 50 50" style="enable-background:new 0 0 50 50;" xml:space="preserve">
<style type="text/css">
	.st0{fill:#10485F;}
</style>
<g>
	<path class="st0" d="M-112.6,75.3v4.1h2.8V78h-1.4v-2.8h-1.4V75.3z"/>
	<path class="st0" d="M-121.5,96h1.4v11.1h-1.4V96z"/>
	<path class="st0" d="M-88.6,94l-1.1-4.5l-3.6,3.6l-1.8-1.8l3.6-3.6l-4.5-1.1l-1.3,1.3c-0.7-0.1-1.5-0.2-2.2-0.1l-4.4-3.6v1.6
		l-1.9-1.3v-1.2l2.1-1.4v-2.4h0.7c1.5,0,2.8-1,3.3-2.4s0-3-1.2-3.9l0,0v-0.7c0-5.3-4.3-9.7-9.7-9.7s-9.7,4.3-9.7,9.7v0.7l0,0
		c-1.1,0.8-1.6,2.2-1.3,3.5s1.3,2.4,2.7,2.6v2.8h6.9v-1.4h-5.5v-1.4h1.4v-4.6l2.2-2.2l0.5,0.3c1.8,1.1,4,1.1,5.8,0l0.5-0.3l2.2,2.2
		V81l-3.7,2.4h-6.7v1l-3.2,2.2l-6.1,1.8c-1.5,0.4-2.5,1.8-2.5,3.3v15.1h1.4V92c0-0.9,0.6-1.7,1.5-2l5.5-1.7l2.5,7.6l2.6-2.6l2.4,0.5
		v7.7h1.4v-7.7l2.7-0.4c-1.1,2.5-1,5.4,0.3,7.9l-0.9,0.9c-1,1-1,2.7,0,3.7s2.7,1,3.7,0l0.8-0.8c3.2,1.9,7.2,1.7,10.3-0.5
		c3-2.2,4.4-6,3.5-9.6L-88.6,94z M-100.9,76c0,1.1-0.9,2.1-2.1,2.1h-0.7V74h0.7C-101.8,73.9-100.9,74.9-100.9,76z M-117.5,78.1h-0.7
		c-1.1,0-2.1-0.9-2.1-2.1c0-1.1,0.9-2.1,2.1-2.1h0.7V78.1z M-117.5,72.6h-0.7c-0.2,0-0.5,0-0.7,0.1v-0.1c0-4.6,3.7-8.3,8.3-8.3
		s8.3,3.7,8.3,8.3v0.1c-0.2,0-0.5-0.1-0.7-0.1h-0.7c0-3.8-3.1-6.9-6.9-6.9S-117.5,68.7-117.5,72.6z M-107,71l-1.4,0.9
		c-1.3,0.8-3,0.8-4.3,0l-1.4-0.9l-2,2v-0.4c0-3.1,2.5-5.5,5.5-5.5s5.5,2.5,5.5,5.5V73L-107,71z M-102.8,90.3l0.3-0.2v-3l2.6,2.1h0.3
		c0.3,0,0.6-0.1,0.9-0.1c0.1,0,0.1,0,0.2,0l-1.7,1.7l0.8,2.9l-6.5,6.5C-107.5,96.6-106.2,92.4-102.8,90.3L-102.8,90.3z M-114.1,91.8
		l-1.5,1.5l-1.9-5.6l2.1-1.5v2.5l2.9,3.3L-114.1,91.8z M-110.6,92.2l-3.5-3.9V85h5.7l1.2-0.8v4.1L-110.6,92.2z M-108.8,92.3l3-3.5
		v-2.7l1.9,1.3v1.9c-1,0.7-1.9,1.5-2.6,2.6L-108.8,92.3z M-98.7,105.1c-1.3,0-2.6-0.3-3.7-0.9l6.7-6.7l2.9,0.8l2-2
		c0,0.3,0.1,0.6,0.1,0.9C-90.7,101.5-94.3,105.1-98.7,105.1z M-93.2,96.7l-2.9-0.8l-9.1,9.1c-0.5,0.5-1.3,0.5-1.8,0s-0.5-1.3,0-1.8
		l9.1-9.1l-0.8-2.9l3.1-3.1l1.4,0.3l-2.8,2.8l3.7,3.7l2.8-2.8l0.3,1.4L-93.2,96.7z"/>
</g>
<g>
	<g>
		<g>
			<path class="st0" d="M45.6,14.9C45.6,14.9,45.6,14.9,45.6,14.9L45.6,14.9l-2.7-0.4c-0.4-0.1-0.7-0.4-0.6-0.8
				c0-0.2,0.1-0.4,0.3-0.5l2.2-1.7c0.3-0.2,0.4-0.7,0.1-1l-2.5-3.4c-0.2-0.3-0.7-0.4-1-0.1l-2.2,1.7c-0.3,0.2-0.8,0.2-1-0.1
				C38.1,8.5,38,8.3,38,8.1l0.4-2.7c0.1-0.4-0.2-0.7-0.6-0.8c0,0,0,0,0,0L33.7,4c-0.4-0.1-0.7,0.2-0.8,0.6c0,0,0,0,0,0l-0.4,2.7
				c-0.1,0.4-0.4,0.7-0.8,0.6c-0.2,0-0.4-0.1-0.5-0.3l-1.7-2.2c-0.2-0.3-0.7-0.4-1-0.1l-2.1,1.6c-1-0.1-1.9-0.1-2.9,0
				c-6.3,0.7-11.2,5.7-11.8,12c0,0.2,0,0.4,0,0.6h-0.2c-0.3,0-0.6,0.2-0.7,0.6l-0.5,2.3L8.4,21c-0.3-0.2-0.7-0.2-0.9,0.1l-2.1,2.1
				c-0.2,0.2-0.3,0.6-0.1,0.9L6.7,26l-2.3,0.5c-0.3,0.1-0.6,0.4-0.6,0.7V30c0,0.3,0.2,0.6,0.6,0.7l2.3,0.5l-1.3,1.9
				c-0.2,0.3-0.2,0.7,0.1,0.9l2.1,2.1c0.2,0.2,0.6,0.3,0.9,0.1l1.9-1.3l0.5,2.3c0.1,0.3,0.4,0.6,0.7,0.6h2.8c0.3,0,0.6-0.2,0.7-0.6
				l0.5-2.3l1.9,1.3c0.3,0.2,0.7,0.2,0.9-0.1l1.1-1.1v2c0,1,0.5,1.9,1.4,2.4v3.9c0,1.6,1.3,2.8,2.8,2.8h2.8c1.6,0,2.8-1.3,2.8-2.8
				v-3.9c0.9-0.5,1.4-1.4,1.4-2.4v-2.8c0-1.2,0.6-2.3,1.6-2.9c0.6-0.4,1.1-0.8,1.7-1.3l-0.9-1c-0.5,0.4-1,0.8-1.5,1.1
				c-1.4,0.9-2.3,2.4-2.3,4.1V37c0,0.8-0.6,1.4-1.4,1.4h-5.6c-0.8,0-1.4-0.6-1.4-1.4v-2.8c0-1.6-0.9-3.1-2.2-4
				c-5.6-3.5-7.3-10.9-3.8-16.4c2.2-3.5,6-5.6,10.1-5.6c0,0,0,0.1,0,0.1c0,0.2,0,0.4,0.1,0.5l1.7,2.2c0.2,0.2,0.2,0.5,0,0.8
				c-0.1,0.2-0.4,0.4-0.7,0.3l-2.7-0.4c-0.4-0.1-0.7,0.2-0.8,0.6c0,0,0,0,0,0l-0.6,4.2c-0.1,0.4,0.2,0.7,0.6,0.8c0,0,0,0,0,0
				l2.7,0.4c0.4,0.1,0.7,0.4,0.6,0.8c0,0.2-0.1,0.4-0.3,0.5l-2.2,1.7c-0.3,0.2-0.4,0.7-0.1,1l2.5,3.4c0.2,0.3,0.7,0.4,1,0.1l2.2-1.7
				c0.3-0.2,0.8-0.2,1,0.1c0.1,0.1,0.2,0.3,0.1,0.5l-0.4,2.7c-0.1,0.4,0.2,0.7,0.6,0.8c0,0,0,0,0,0l4.2,0.6c0,0,0.1,0,0.1,0
				c0.4,0,0.6-0.3,0.7-0.6l0.4-2.7c0.1-0.4,0.4-0.7,0.8-0.6c0.2,0,0.4,0.1,0.5,0.3l1.7,2.2c0.2,0.3,0.7,0.4,1,0.1l3.4-2.5
				c0.3-0.2,0.4-0.7,0.1-1l-1.7-2.2c-0.2-0.2-0.2-0.5,0-0.8c0.1-0.2,0.4-0.4,0.7-0.3l2.7,0.4c0.4,0.1,0.7-0.2,0.8-0.6c0,0,0,0,0,0
				l0.6-4.2C46.2,15.3,46,15,45.6,14.9z M22.3,39.9h5.6v1.4h-5.6V39.9z M22.3,42.7h5.6v0.7c0,0.8-0.6,1.4-1.4,1.4h-2.8
				c-0.8,0-1.4-0.6-1.4-1.4V42.7z M16.7,30.5c0.4,0.3,0.8,0.6,1.2,0.9c0.7,0.4,1.2,1.1,1.4,1.8l-1.5,1.5l-1.5-1
				c-0.6-0.4-1.5-0.3-2,0.4c-0.1,0.2-0.2,0.3-0.2,0.5l-0.4,1.8h-1.7l-0.4-1.8c-0.2-0.8-0.9-1.2-1.7-1.1c-0.2,0-0.4,0.1-0.5,0.2
				l-1.5,1l-1.3-1.3l1-1.5c0.4-0.6,0.3-1.5-0.4-2c-0.2-0.1-0.3-0.2-0.5-0.2l-1.8-0.4v-1.7L7,27.4c0.8-0.2,1.2-0.9,1.1-1.7
				c0-0.2-0.1-0.4-0.2-0.5l-1-1.5l1.3-1.3l1.5,1c0.6,0.4,1.5,0.3,2-0.4c0.1-0.2,0.2-0.3,0.2-0.5l0.1-0.6c0.1,0.8,0.3,1.6,0.6,2.4
				c-2.3,0.3-4,2.4-3.7,4.7c0.3,2.3,2.4,4,4.7,3.7C14.8,32.6,16,31.8,16.7,30.5z M15.6,29.6c-0.5,1.5-2.1,2.2-3.6,1.7
				c-1.5-0.5-2.2-2.1-1.7-3.6c0.4-1.1,1.5-1.9,2.6-1.9c0,0,0,0,0,0C13.6,27.2,14.5,28.5,15.6,29.6z M44.3,19l-2-0.3
				c-1.2-0.2-2.2,0.6-2.4,1.8c-0.1,0.6,0.1,1.1,0.4,1.6l1.2,1.6l-2.3,1.7L38,23.8c-0.7-0.9-2-1.1-3-0.4c-0.4,0.3-0.7,0.8-0.8,1.4
				l-0.3,2l-2.8-0.4l0.3-2c0.2-1.2-0.6-2.2-1.8-2.4c-0.6-0.1-1.1,0.1-1.6,0.4l-1.6,1.2l-1.7-2.3l1.6-1.2c0.9-0.7,1.1-2,0.4-3
				c-0.3-0.4-0.8-0.7-1.4-0.8l-2-0.3l0.4-2.8l2,0.3c1.2,0.2,2.2-0.6,2.4-1.8c0.1-0.6-0.1-1.1-0.4-1.6l-1.2-1.6l2.3-1.7l1.2,1.6
				c0.7,0.9,2,1.1,3,0.4c0.4-0.3,0.7-0.8,0.8-1.4l0.3-2l2.8,0.4l-0.3,2c-0.2,1.2,0.6,2.2,1.8,2.4c0.6,0.1,1.1-0.1,1.6-0.4l1.6-1.2
				l1.7,2.3l-1.6,1.2c-0.9,0.7-1.1,2-0.4,3c0.3,0.4,0.8,0.7,1.4,0.8l2,0.3L44.3,19z"/>
		</g>
	</g>
	<g>
		<g>
			<path class="st0" d="M34.1,10.5c-3.1,0-5.6,2.5-5.6,5.6s2.5,5.6,5.6,5.6s5.6-2.5,5.6-5.6C39.7,13,37.2,10.5,34.1,10.5z
				 M34.1,20.3c-2.3,0-4.2-1.9-4.2-4.2s1.9-4.2,4.2-4.2s4.2,1.9,4.2,4.2C38.3,18.5,36.4,20.3,34.1,20.3z"/>
		</g>
	</g>
	<g>
		<g>
			<rect x="24.4" y="34.9" class="st0" width="1.4" height="2.1"/>
		</g>
	</g>
	<g>
		<g>
			<path class="st0" d="M22,28c-4.3-1.7-6.5-6.6-4.8-10.9c0.7-1.7,1.8-3.1,3.4-4.1l-0.8-1.2c-4.6,2.9-6,9-3.1,13.6
				c1.1,1.8,2.8,3.2,4.7,3.9c1.7,0.7,2.9,2.3,2.9,4.2h1.4C25.8,31.1,24.3,28.9,22,28z"/>
		</g>
	</g>
	<g>
		<g>
			<rect x="38.5" y="30" class="st0" width="4.9" height="1.4"/>
		</g>
	</g>
	<g>
		<g>
			
				<rect x="39.2" y="33.2" transform="matrix(0.6401 -0.7683 0.7683 0.6401 -13.3036 43.5806)" class="st0" width="1.4" height="5.5"/>
		</g>
	</g>
	<g>
		<g>
			<rect x="34.2" y="35.6" class="st0" width="1.4" height="4.9"/>
		</g>
	</g>
	<g>
		<g>
			<rect x="4.6" y="15.2" transform="matrix(0.9701 -0.2425 0.2425 0.9701 -3.6421 2.2961)" class="st0" width="5.8" height="1.4"/>
		</g>
	</g>
	<g>
		<g>
			<rect x="7.9" y="6.9" transform="matrix(0.5812 -0.8137 0.8137 0.5812 -4.5233 11.1388)" class="st0" width="1.4" height="6.1"/>
		</g>
	</g>
	<g>
		<g>
			<rect x="12.4" y="3.9" transform="matrix(0.9688 -0.2477 0.2477 0.9688 -1.2749 3.4613)" class="st0" width="1.4" height="5.8"/>
		</g>
	</g>
</g>
</svg>
