<?xml version="1.0" encoding="utf-8"?>
<!-- Generator: Adobe Illustrator 21.0.0, SVG Export Plug-In . SVG Version: 6.00 Build 0)  -->
<svg version="1.1" id="Capa_1" xmlns="http://www.w3.org/2000/svg" xmlns:xlink="http://www.w3.org/1999/xlink" x="0px" y="0px"
	 viewBox="0 0 50 50" style="enable-background:new 0 0 50 50;" xml:space="preserve">
<style type="text/css">
	.st0{fill:#10485F;}
</style>
<g>
	<path class="st0" d="M-112.6,75.3v4.1h2.8V78h-1.4v-2.8h-1.4V75.3z"/>
	<path class="st0" d="M-121.5,96h1.4v11.1h-1.4V96z"/>
	<path class="st0" d="M-88.6,94l-1.1-4.5l-3.6,3.6l-1.8-1.8l3.6-3.6l-4.5-1.1l-1.3,1.3c-0.7-0.1-1.5-0.2-2.2-0.1l-4.4-3.6v1.6
		l-1.9-1.3v-1.2l2.1-1.4v-2.4h0.7c1.5,0,2.8-1,3.3-2.4s0-3-1.2-3.9l0,0v-0.7c0-5.3-4.3-9.7-9.7-9.7s-9.7,4.3-9.7,9.7v0.7l0,0
		c-1.1,0.8-1.6,2.2-1.3,3.5s1.3,2.4,2.7,2.6v2.8h6.9v-1.4h-5.5v-1.4h1.4v-4.6l2.2-2.2l0.5,0.3c1.8,1.1,4,1.1,5.8,0l0.5-0.3l2.2,2.2
		V81l-3.7,2.4h-6.7v1l-3.2,2.2l-6.1,1.8c-1.5,0.4-2.5,1.8-2.5,3.3v15.1h1.4V92c0-0.9,0.6-1.7,1.5-2l5.5-1.7l2.5,7.6l2.6-2.6l2.4,0.5
		v7.7h1.4v-7.7l2.7-0.4c-1.1,2.5-1,5.4,0.3,7.9l-0.9,0.9c-1,1-1,2.7,0,3.7s2.7,1,3.7,0l0.8-0.8c3.2,1.9,7.2,1.7,10.3-0.5
		c3-2.2,4.4-6,3.5-9.6L-88.6,94z M-100.9,76c0,1.1-0.9,2.1-2.1,2.1h-0.7V74h0.7C-101.8,73.9-100.9,74.9-100.9,76z M-117.5,78.1h-0.7
		c-1.1,0-2.1-0.9-2.1-2.1c0-1.1,0.9-2.1,2.1-2.1h0.7V78.1z M-117.5,72.6h-0.7c-0.2,0-0.5,0-0.7,0.1v-0.1c0-4.6,3.7-8.3,8.3-8.3
		s8.3,3.7,8.3,8.3v0.1c-0.2,0-0.5-0.1-0.7-0.1h-0.7c0-3.8-3.1-6.9-6.9-6.9S-117.5,68.7-117.5,72.6z M-107,71l-1.4,0.9
		c-1.3,0.8-3,0.8-4.3,0l-1.4-0.9l-2,2v-0.4c0-3.1,2.5-5.5,5.5-5.5s5.5,2.5,5.5,5.5V73L-107,71z M-102.8,90.3l0.3-0.2v-3l2.6,2.1h0.3
		c0.3,0,0.6-0.1,0.9-0.1c0.1,0,0.1,0,0.2,0l-1.7,1.7l0.8,2.9l-6.5,6.5C-107.5,96.6-106.2,92.4-102.8,90.3L-102.8,90.3z M-114.1,91.8
		l-1.5,1.5l-1.9-5.6l2.1-1.5v2.5l2.9,3.3L-114.1,91.8z M-110.6,92.2l-3.5-3.9V85h5.7l1.2-0.8v4.1L-110.6,92.2z M-108.8,92.3l3-3.5
		v-2.7l1.9,1.3v1.9c-1,0.7-1.9,1.5-2.6,2.6L-108.8,92.3z M-98.7,105.1c-1.3,0-2.6-0.3-3.7-0.9l6.7-6.7l2.9,0.8l2-2
		c0,0.3,0.1,0.6,0.1,0.9C-90.7,101.5-94.3,105.1-98.7,105.1z M-93.2,96.7l-2.9-0.8l-9.1,9.1c-0.5,0.5-1.3,0.5-1.8,0s-0.5-1.3,0-1.8
		l9.1-9.1l-0.8-2.9l3.1-3.1l1.4,0.3l-2.8,2.8l3.7,3.7l2.8-2.8l0.3,1.4L-93.2,96.7z"/>
</g>
<g>
	<path class="st0" d="M12.2,10c-1.6,0-2.9,1.3-2.9,2.9s1.3,2.9,2.9,2.9s2.9-1.3,2.9-2.9S13.9,10,12.2,10z M12.2,14.6
		c-0.9,0-1.6-0.7-1.6-1.6s0.7-1.6,1.6-1.6s1.6,0.7,1.6,1.6S13.1,14.6,12.2,14.6z"/>
	<circle class="st0" cx="38.1" cy="11.9" r="0.7"/>
	<circle class="st0" cx="35.5" cy="11.9" r="0.7"/>
	<circle class="st0" cx="39.4" cy="13.9" r="0.7"/>
	<circle class="st0" cx="36.8" cy="13.9" r="0.7"/>
	<circle class="st0" cx="32.9" cy="11.9" r="0.7"/>
	<circle class="st0" cx="34.2" cy="13.9" r="0.7"/>
	<circle class="st0" cx="30.2" cy="11.9" r="0.7"/>
	<circle class="st0" cx="31.5" cy="13.9" r="0.7"/>
	<circle class="st0" cx="27.6" cy="11.9" r="0.7"/>
	<circle class="st0" cx="28.9" cy="13.9" r="0.7"/>
	<path class="st0" d="M44.6,16.8V9.1c0-1.7-1.4-3-3-3H8.4c-1.7,0-3,1.4-3,3v7.7c0,1,0.5,1.8,1.2,2.4c-0.7,0.6-1.2,1.4-1.2,2.4v7.7
		c0,1.7,1.4,3,3,3H25h16.6c1.7,0,3-1.4,3-3v-7.7c0-1-0.5-1.8-1.2-2.4C44.2,18.6,44.6,17.8,44.6,16.8z M43.3,21.5v7.7
		c0,0.9-0.8,1.7-1.7,1.7H8.4c-0.9,0-1.7-0.8-1.7-1.7v-7.7c0-0.9,0.8-1.7,1.7-1.7h33.3C42.6,19.8,43.3,20.6,43.3,21.5z M8.4,18.5
		c-0.9,0-1.7-0.8-1.7-1.7V9.1c0-0.9,0.8-1.7,1.7-1.7h33.3c0.9,0,1.7,0.8,1.7,1.7v7.7c0,0.9-0.8,1.7-1.7,1.7L8.4,18.5L8.4,18.5z"/>
	<path class="st0" d="M12.2,28.3c1.6,0,2.9-1.3,2.9-2.9c0-1.6-1.3-2.9-2.9-2.9s-2.9,1.3-2.9,2.9S10.6,28.3,12.2,28.3z M12.2,23.7
		c0.9,0,1.6,0.7,1.6,1.6S13.1,27,12.2,27s-1.6-0.7-1.6-1.6S11.3,23.7,12.2,23.7z"/>
	<path class="st0" d="M26,39c0.1,0.1,0.3,0.2,0.4,0.3c0.1,0.1,0.3,0.2,0.5,0.2c0.2,0,0.3-0.1,0.5-0.2c0.3-0.3,0.2-0.7,0-0.9
		c-0.2-0.2-0.4-0.4-0.7-0.5c-0.3-0.2-0.7-0.1-0.9,0.2C25.5,38.5,25.7,38.9,26,39z"/>
	<path class="st0" d="M26,42.5c-0.1,0.1-0.3,0.2-0.5,0.2c-0.3,0.1-0.6,0.5-0.5,0.8c0.1,0.3,0.3,0.5,0.6,0.5c0.1,0,0.1,0,0.2,0
		c0.3-0.1,0.5-0.2,0.8-0.3c0.3-0.2,0.4-0.6,0.2-0.9C26.7,42.4,26.3,42.3,26,42.5z"/>
	<path class="st0" d="M27.6,40.1c-0.4,0-0.7,0.3-0.7,0.7c0,0.2,0,0.3-0.1,0.5c-0.1,0.3,0.1,0.7,0.5,0.8c0.1,0,0.1,0,0.2,0
		c0.3,0,0.6-0.2,0.6-0.5c0.1-0.3,0.1-0.6,0.1-0.8v0C28.3,40.4,28,40.1,27.6,40.1z"/>
	<path class="st0" d="M24,42.5c-0.1-0.1-0.3-0.2-0.4-0.3c-0.3-0.3-0.7-0.3-0.9,0c-0.3,0.3-0.3,0.7,0,0.9c0.2,0.2,0.4,0.4,0.7,0.5
		c0.1,0.1,0.2,0.1,0.3,0.1c0.2,0,0.4-0.1,0.6-0.3C24.4,43,24.3,42.6,24,42.5z"/>
	<path class="st0" d="M24.1,37.6c-0.3,0.1-0.5,0.2-0.8,0.3c-0.3,0.2-0.4,0.6-0.2,0.9c0.1,0.2,0.3,0.3,0.6,0.3c0.1,0,0.2,0,0.3-0.1
		c0.1-0.1,0.3-0.2,0.5-0.2c0.3-0.1,0.6-0.5,0.5-0.8C24.8,37.7,24.5,37.5,24.1,37.6z"/>
	<path class="st0" d="M23,40.8c0-0.2,0-0.3,0.1-0.5c0.1-0.3-0.1-0.7-0.5-0.8c-0.4-0.1-0.7,0.1-0.8,0.5c-0.1,0.3-0.1,0.5-0.1,0.8
		l0.7,0h-0.7c0,0.4,0.3,0.6,0.7,0.6C22.7,41.4,23,41.1,23,40.8z"/>
	<circle class="st0" cx="38.1" cy="24.4" r="0.7"/>
	<circle class="st0" cx="35.5" cy="24.4" r="0.7"/>
	<circle class="st0" cx="39.4" cy="26.4" r="0.7"/>
	<circle class="st0" cx="36.8" cy="26.4" r="0.7"/>
	<circle class="st0" cx="32.9" cy="24.4" r="0.7"/>
	<circle class="st0" cx="34.2" cy="26.4" r="0.7"/>
	<circle class="st0" cx="30.2" cy="24.4" r="0.7"/>
	<circle class="st0" cx="31.5" cy="26.4" r="0.7"/>
	<circle class="st0" cx="27.6" cy="24.4" r="0.7"/>
	<circle class="st0" cx="28.9" cy="26.4" r="0.7"/>
	<path class="st0" d="M19.8,40.1h-0.7c-0.4,0-0.7,0.3-0.7,0.7c0,0.4,0.3,0.7,0.7,0.7h0.7c0.4,0,0.7-0.3,0.7-0.7
		C20.4,40.4,20.1,40.1,19.8,40.1z"/>
	<path class="st0" d="M14.5,40.1h-0.7c-0.4,0-0.7,0.3-0.7,0.7c0,0.4,0.3,0.7,0.7,0.7h0.7c0.4,0,0.7-0.3,0.7-0.7
		C15.2,40.4,14.9,40.1,14.5,40.1z"/>
	<path class="st0" d="M17.1,40.1h-0.7c-0.4,0-0.7,0.3-0.7,0.7c0,0.4,0.3,0.7,0.7,0.7h0.7c0.4,0,0.7-0.3,0.7-0.7
		C17.8,40.4,17.5,40.1,17.1,40.1z"/>
	<path class="st0" d="M6.7,40.1H6c-0.4,0-0.7,0.3-0.7,0.7c0,0.4,0.3,0.7,0.7,0.7h0.7c0.4,0,0.7-0.3,0.7-0.7
		C7.3,40.4,7,40.1,6.7,40.1z"/>
	<path class="st0" d="M9.3,40.1H8.6c-0.4,0-0.7,0.3-0.7,0.7c0,0.4,0.3,0.7,0.7,0.7h0.7c0.4,0,0.7-0.3,0.7-0.7
		C9.9,40.4,9.6,40.1,9.3,40.1z"/>
	<path class="st0" d="M11.9,40.1h-0.7c-0.4,0-0.7,0.3-0.7,0.7c0,0.4,0.3,0.7,0.7,0.7h0.7c0.4,0,0.7-0.3,0.7-0.7
		C12.6,40.4,12.3,40.1,11.9,40.1z"/>
	<path class="st0" d="M30.9,40.1h-0.7c-0.4,0-0.7,0.3-0.7,0.7c0,0.4,0.3,0.7,0.7,0.7h0.7c0.4,0,0.7-0.3,0.7-0.7
		C31.5,40.4,31.3,40.1,30.9,40.1z"/>
	<path class="st0" d="M36.1,40.1h-0.7c-0.4,0-0.7,0.3-0.7,0.7c0,0.4,0.3,0.7,0.7,0.7h0.7c0.4,0,0.7-0.3,0.7-0.7
		C36.8,40.4,36.5,40.1,36.1,40.1z"/>
	<path class="st0" d="M33.5,40.1h-0.7c-0.4,0-0.7,0.3-0.7,0.7c0,0.4,0.3,0.7,0.7,0.7h0.7c0.4,0,0.7-0.3,0.7-0.7
		C34.2,40.4,33.9,40.1,33.5,40.1z"/>
	<path class="st0" d="M44,40.1h-0.7c-0.4,0-0.7,0.3-0.7,0.7c0,0.4,0.3,0.7,0.7,0.7H44c0.4,0,0.7-0.3,0.7-0.7
		C44.6,40.4,44.4,40.1,44,40.1z"/>
	<path class="st0" d="M38.8,40.1h-0.7c-0.4,0-0.7,0.3-0.7,0.7c0,0.4,0.3,0.7,0.7,0.7h0.7c0.4,0,0.7-0.3,0.7-0.7
		C39.4,40.4,39.1,40.1,38.8,40.1z"/>
	<path class="st0" d="M41.4,40.1h-0.7c-0.4,0-0.7,0.3-0.7,0.7c0,0.4,0.3,0.7,0.7,0.7h0.7c0.4,0,0.7-0.3,0.7-0.7
		C42,40.4,41.7,40.1,41.4,40.1z"/>
	<path class="st0" d="M25.7,36.2v-0.7c0-0.4-0.3-0.7-0.7-0.7s-0.7,0.3-0.7,0.7v0.7c0,0.4,0.3,0.7,0.7,0.7S25.7,36.5,25.7,36.2z"/>
	<path class="st0" d="M24.3,32.9v0.7c0,0.4,0.3,0.7,0.7,0.7s0.7-0.3,0.7-0.7v-0.7c0-0.4-0.3-0.7-0.7-0.7S24.3,32.5,24.3,32.9z"/>
</g>
</svg>
