<?xml version="1.0" encoding="utf-8"?>
<!-- Generator: Adobe Illustrator 16.0.0, SVG Export Plug-In . SVG Version: 6.00 Build 0)  -->
<!DOCTYPE svg PUBLIC "-//W3C//DTD SVG 1.1//EN" "http://www.w3.org/Graphics/SVG/1.1/DTD/svg11.dtd">
<svg version="1.1" id="Layer_1" xmlns="http://www.w3.org/2000/svg" xmlns:xlink="http://www.w3.org/1999/xlink" x="0px" y="0px"
	 width="50px" height="50px" viewBox="0 0 50 50" enable-background="new 0 0 50 50" xml:space="preserve">
<g>
	<g>
		<path d="M38.75,33.861c-0.18,0-0.352-0.067-0.492-0.194l-8.238-7.731c-0.285-0.27-0.301-0.725-0.031-1.007
			c0.275-0.29,0.723-0.305,1.014-0.028l8.239,7.723c0.284,0.27,0.299,0.725,0.03,1.014C39.129,33.786,38.941,33.861,38.75,33.861
			L38.75,33.861z"/>
		<path d="M38.75,34.361c-0.303,0-0.598-0.115-0.827-0.323L29.677,26.3c-0.237-0.224-0.372-0.526-0.381-0.853
			c-0.009-0.324,0.108-0.63,0.33-0.863c0.45-0.474,1.243-0.497,1.72-0.045l8.236,7.72c0.484,0.459,0.509,1.229,0.057,1.72
			C39.4,34.227,39.087,34.361,38.75,34.361z M30.51,25.202c-0.059,0-0.115,0.025-0.158,0.071c-0.051,0.052-0.057,0.115-0.056,0.147
			c0.001,0.034,0.011,0.1,0.065,0.15l8.238,7.731c0.086,0.075,0.225,0.074,0.308-0.01c0.077-0.084,0.073-0.228-0.011-0.308
			l-8.237-7.72C30.604,25.212,30.547,25.202,30.51,25.202z"/>
	</g>
	<g>
		<path d="M11.25,33.861c-0.187,0-0.379-0.075-0.523-0.226c-0.267-0.29-0.252-0.745,0.031-1.014l8.238-7.723
			c0.292-0.27,0.747-0.262,1.016,0.028c0.275,0.283,0.259,0.738-0.031,1.007l-8.239,7.732C11.599,33.794,11.43,33.861,11.25,33.861
			L11.25,33.861z"/>
		<path d="M11.25,34.361c-0.331,0-0.652-0.139-0.883-0.379c-0.458-0.498-0.433-1.267,0.047-1.723l8.241-7.725
			c0.483-0.447,1.285-0.417,1.724,0.052c0.219,0.226,0.338,0.533,0.33,0.859c-0.009,0.328-0.146,0.632-0.387,0.855l-8.236,7.729
			C11.837,34.251,11.552,34.361,11.25,34.361z M19.495,25.205c-0.059,0-0.116,0.022-0.16,0.063l-8.235,7.72
			c-0.083,0.078-0.086,0.222-0.004,0.311c0.069,0.07,0.208,0.09,0.316-0.007l8.228-7.722c0.059-0.055,0.069-0.118,0.07-0.15
			c0.001-0.039-0.008-0.094-0.056-0.144C19.597,25.216,19.537,25.205,19.495,25.205z"/>
	</g>
	<g>
		<path d="M43.618,41.049H6.381c-1.976,0-3.579-1.609-3.579-3.578V13.065c0-1.975,1.603-3.579,3.579-3.579h37.237
			c1.978,0,3.579,1.604,3.579,3.579v24.406C47.197,39.438,45.596,41.049,43.618,41.049L43.618,41.049z M6.381,10.917
			c-1.186,0-2.147,0.963-2.147,2.147v24.407c0,1.178,0.961,2.146,2.147,2.146h37.237c1.187,0,2.147-0.971,2.147-2.146V13.065
			c0-1.184-0.961-2.147-2.147-2.147L6.381,10.917L6.381,10.917z"/>
		<path d="M43.618,41.549H6.381c-2.249,0-4.079-1.83-4.079-4.078V13.065c0-2.249,1.83-4.079,4.079-4.079h37.237
			c2.249,0,4.079,1.83,4.079,4.079v24.406C47.697,39.719,45.867,41.549,43.618,41.549z M6.381,9.986
			c-1.698,0-3.079,1.381-3.079,3.079v24.406c0,1.697,1.381,3.078,3.079,3.078h37.237c1.698,0,3.079-1.381,3.079-3.078V13.065
			c0-1.698-1.381-3.079-3.079-3.079H6.381z M43.618,40.117H6.381c-1.46,0-2.647-1.188-2.647-2.646V13.065
			c0-1.46,1.188-2.647,2.647-2.647h37.237c1.46,0,2.647,1.188,2.647,2.647v24.406C46.268,38.93,45.078,40.117,43.618,40.117z
			 M6.381,11.417c-0.908,0-1.647,0.739-1.647,1.647v24.407c0,0.907,0.739,1.646,1.647,1.646h37.237c0.909,0,1.647-0.739,1.647-1.646
			V13.065c0-0.908-0.738-1.647-1.647-1.647L6.381,11.417L6.381,11.417z"/>
	</g>
	<g>
		<path d="M25,28.857c-0.954,0-1.901-0.313-2.625-0.946L3.987,11.881c-0.298-0.262-0.328-0.716-0.067-1.015
			c0.262-0.297,0.716-0.32,1.015-0.067l18.38,16.031c0.91,0.798,2.46,0.798,3.371,0L45.05,10.82
			c0.291-0.251,0.746-0.224,1.009,0.077c0.258,0.297,0.229,0.745-0.067,1.005l-18.36,16.009C26.9,28.545,25.955,28.857,25,28.857
			L25,28.857z"/>
		<path d="M25,29.357c-1.118,0-2.167-0.381-2.954-1.07L3.659,12.258c-0.505-0.444-0.557-1.216-0.115-1.721
			c0.424-0.482,1.226-0.535,1.715-0.119l18.385,16.035c0.691,0.604,2.025,0.604,2.711,0l18.367-16.01
			c0.484-0.421,1.291-0.359,1.713,0.126c0.438,0.503,0.387,1.271-0.115,1.709L27.96,28.287C27.164,28.979,26.113,29.357,25,29.357z
			 M4.458,11.125c-0.037,0-0.108,0.009-0.164,0.072c-0.078,0.089-0.068,0.229,0.022,0.309l18.386,16.029
			c1.21,1.061,3.374,1.063,4.599-0.001L45.66,11.527c0.088-0.078,0.097-0.21,0.02-0.3c-0.137-0.155-0.24-0.082-0.305-0.027
			L27.014,27.206c-1.061,0.933-2.967,0.933-4.029-0.001L4.606,11.176C4.569,11.145,4.515,11.125,4.458,11.125z"/>
	</g>
</g>
</svg>
