<?xml version="1.0" encoding="utf-8"?>
<!-- Generator: Adobe Illustrator 16.0.0, SVG Export Plug-In . SVG Version: 6.00 Build 0)  -->
<!DOCTYPE svg PUBLIC "-//W3C//DTD SVG 1.1//EN" "http://www.w3.org/Graphics/SVG/1.1/DTD/svg11.dtd">
<svg version="1.1" id="Layer_1" xmlns="http://www.w3.org/2000/svg" xmlns:xlink="http://www.w3.org/1999/xlink" x="0px" y="0px"
	 width="50px" height="50px" viewBox="0 0 50 50" enable-background="new 0 0 50 50" xml:space="preserve">
<g>
	<g>
		<path d="M38.232,29.949c-0.903-0.94-1.994-1.443-3.147-1.443c-1.146,0-2.245,0.493-3.187,1.436l-2.943,2.934
			c-0.242-0.131-0.484-0.251-0.719-0.372c-0.334-0.169-0.651-0.326-0.922-0.494c-2.756-1.751-5.263-4.032-7.666-6.986
			c-1.165-1.472-1.947-2.71-2.516-3.968c0.764-0.699,1.472-1.425,2.161-2.124c0.261-0.261,0.521-0.531,0.783-0.792
			c1.956-1.956,1.956-4.49,0-6.446l-2.543-2.542c-0.289-0.289-0.586-0.587-0.866-0.885c-0.559-0.578-1.146-1.174-1.751-1.733
			c-0.903-0.895-1.984-1.369-3.121-1.369c-1.137,0-2.235,0.472-3.167,1.367C8.62,6.541,8.62,6.541,8.611,6.549L5.443,9.744
			c-1.192,1.193-1.873,2.646-2.021,4.332C3.198,16.796,4,19.33,4.614,20.988c1.509,4.07,3.764,7.843,7.126,11.886
			c4.08,4.873,8.989,8.719,14.596,11.431c2.143,1.016,5.002,2.217,8.197,2.422c0.195,0.01,0.4,0.019,0.588,0.019
			c2.15,0,3.958-0.772,5.374-2.312c0.01-0.018,0.028-0.026,0.037-0.045c0.483-0.588,1.043-1.117,1.631-1.687
			c0.399-0.382,0.81-0.783,1.211-1.202c0.922-0.959,1.405-2.077,1.405-3.225c0-1.153-0.493-2.264-1.434-3.193L38.232,29.949z
			 M41.566,39.758C41.559,39.758,41.559,39.768,41.566,39.758c-0.363,0.391-0.734,0.745-1.135,1.137
			c-0.605,0.578-1.222,1.185-1.8,1.863c-0.94,1.006-2.049,1.48-3.502,1.48c-0.14,0-0.289,0-0.429-0.01
			c-2.768-0.178-5.338-1.258-7.266-2.18c-5.272-2.553-9.902-6.176-13.75-10.77c-3.177-3.827-5.3-7.367-6.707-11.168
			c-0.866-2.319-1.183-4.127-1.043-5.831c0.093-1.09,0.512-1.994,1.286-2.767l3.177-3.176c0.456-0.429,0.94-0.662,1.415-0.662
			c0.587,0,1.063,0.354,1.361,0.652c0.009,0.009,0.019,0.018,0.027,0.028c0.568,0.531,1.109,1.08,1.677,1.667
			c0.289,0.298,0.587,0.596,0.885,0.904l2.543,2.543c0.987,0.987,0.987,1.9,0,2.888c-0.27,0.271-0.531,0.541-0.801,0.801
			c-0.783,0.801-1.528,1.546-2.339,2.272c-0.018,0.019-0.037,0.028-0.046,0.046c-0.801,0.802-0.653,1.584-0.484,2.115
			c0.009,0.027,0.018,0.056,0.028,0.084c0.662,1.602,1.593,3.111,3.008,4.908l0.01,0.01c2.571,3.167,5.282,5.636,8.271,7.527
			c0.382,0.241,0.772,0.437,1.146,0.623c0.336,0.168,0.652,0.327,0.922,0.493c0.037,0.02,0.074,0.048,0.112,0.065
			c0.316,0.158,0.614,0.232,0.923,0.232c0.771,0,1.256-0.483,1.414-0.644l3.188-3.186c0.316-0.316,0.82-0.698,1.406-0.698
			c0.576,0,1.053,0.363,1.34,0.681c0.011,0.008,0.011,0.008,0.021,0.019l5.132,5.132C42.518,37.793,42.518,38.771,41.566,39.758
			L41.566,39.758z"/>
		<path d="M27.203,13.107c2.439,0.41,4.658,1.565,6.428,3.335s2.916,3.987,3.335,6.427c0.103,0.615,0.634,1.043,1.239,1.043
			c0.074,0,0.139-0.01,0.214-0.019c0.688-0.111,1.146-0.763,1.034-1.453c-0.504-2.953-1.9-5.645-4.034-7.778
			c-2.133-2.133-4.823-3.53-7.778-4.034c-0.688-0.111-1.33,0.345-1.453,1.025C26.066,12.334,26.516,12.996,27.203,13.107
			L27.203,13.107z"/>
		<path d="M47.438,22.078c-0.83-4.863-3.121-9.288-6.644-12.809c-3.521-3.521-7.944-5.813-12.808-6.642
			c-0.68-0.121-1.323,0.345-1.444,1.025c-0.112,0.689,0.345,1.332,1.034,1.453c4.341,0.736,8.3,2.794,11.447,5.934
			c3.148,3.149,5.197,7.107,5.936,11.449c0.102,0.614,0.633,1.043,1.238,1.043c0.074,0,0.14-0.009,0.214-0.019
			C47.092,23.41,47.557,22.758,47.438,22.078L47.438,22.078z"/>
	</g>
</g>
</svg>
