<?xml version="1.0" encoding="utf-8"?>
<!-- Generator: Adobe Illustrator 21.0.0, SVG Export Plug-In . SVG Version: 6.00 Build 0)  -->
<svg version="1.1" id="Capa_1" xmlns="http://www.w3.org/2000/svg" xmlns:xlink="http://www.w3.org/1999/xlink" x="0px" y="0px"
	 viewBox="0 0 50 50" style="enable-background:new 0 0 50 50;" xml:space="preserve">
<style type="text/css">
	.st0{fill:#FFFFFF;}
	.st1{fill:#10485F;}
</style>
<g>
	<g>
		<g>
			<path class="st1" d="M44,44.3h-1.8v-26c0-1.2-1-2.2-2.2-2.2h-4c-1.2,0-2.2,1-2.2,2.2v26h-4.6V30.1c0-1.2-1-2.2-2.2-2.2h-4
				c-1.2,0-2.2,1-2.2,2.2v14.2h-4.6v-7.4c0-1.2-1-2.2-2.2-2.2h-4c-1.2,0-2.2,1-2.2,2.2v7.4H6c-0.5,0-0.8,0.4-0.8,0.8
				c0,0.5,0.4,0.8,0.8,0.8h38c0.5,0,0.8-0.4,0.8-0.8C44.8,44.7,44.5,44.3,44,44.3z M14.7,44.3H9.5v-7.4c0-0.3,0.3-0.6,0.6-0.6h4
				c0.3,0,0.6,0.3,0.6,0.6L14.7,44.3L14.7,44.3z M27.6,44.3h-5.1V30.1c0-0.3,0.3-0.6,0.6-0.6h4c0.3,0,0.6,0.3,0.6,0.6V44.3z
				 M40.6,44.3h-5.1v-26c0-0.3,0.3-0.6,0.6-0.6h4c0.3,0,0.6,0.3,0.6,0.6V44.3L40.6,44.3z"/>
		</g>
	</g>
	<g>
		<g>
			<path class="st1" d="M42.2,4.9c0-0.2-0.1-0.5-0.2-0.6c-0.2-0.2-0.4-0.2-0.6-0.2c0,0,0,0,0,0h-4.9c-0.5,0-0.8,0.4-0.8,0.8
				s0.4,0.8,0.8,0.8h3.1l-8.1,8.1l-3-3c-0.2-0.2-0.4-0.2-0.6-0.2s-0.4,0.1-0.6,0.2L12.4,25.4c-0.3,0.3-0.3,0.8,0,1.2
				c0.2,0.2,0.4,0.2,0.6,0.2c0.2,0,0.4-0.1,0.6-0.2l14.1-14.1l3,3c0.3,0.3,0.8,0.3,1.2,0l8.7-8.7v2.8c0,0.5,0.4,0.8,0.8,0.8
				c0.5,0,0.8-0.4,0.8-0.8L42.2,4.9C42.2,5,42.2,4.9,42.2,4.9z"/>
		</g>
	</g>
	<g>
		<g>
			<circle class="st1" cx="10.3" cy="28.9" r="0.8"/>
		</g>
	</g>
</g>
</svg>
