<?xml version="1.0" encoding="utf-8"?>
<!-- Generator: Adobe Illustrator 21.0.0, SVG Export Plug-In . SVG Version: 6.00 Build 0)  -->
<svg version="1.1" id="Capa_1" xmlns="http://www.w3.org/2000/svg" xmlns:xlink="http://www.w3.org/1999/xlink" x="0px" y="0px"
	 viewBox="0 0 50 50" style="enable-background:new 0 0 50 50;" xml:space="preserve">
<style type="text/css">
	.st0{fill:#10485F;}
</style>
<g>
	<path class="st0" d="M11.6,36.3c-0.6,0-1.1,0.1-1.6,0.4C7.4,33.4,6,29.2,6,25C6,14.5,14.5,6,25,6c1.3,0,2.5,0.1,3.8,0.4
		c0.4,0.1,0.9-0.2,0.9-0.6c0.1-0.4-0.2-0.9-0.6-0.9c-1.3-0.3-2.7-0.4-4.1-0.4c-5.5,0-10.7,2.1-14.6,6s-6,9.1-6,14.6
		c0,4.6,1.6,9.1,4.4,12.8c-0.4,0.6-0.6,1.2-0.6,1.9c0,0.9,0.4,1.8,1,2.4c0.6,0.6,1.5,1,2.4,1s1.8-0.4,2.4-1c0.6-0.6,1-1.5,1-2.4
		c0-0.9-0.4-1.8-1-2.4C13.4,36.6,12.5,36.3,11.6,36.3z M12.9,40.9c-0.3,0.3-0.8,0.5-1.3,0.5s-0.9-0.2-1.3-0.5
		c-0.3-0.3-0.5-0.8-0.5-1.3c0-0.5,0.2-0.9,0.5-1.3c0.3-0.3,0.8-0.5,1.3-0.5s0.9,0.2,1.3,0.5c0.3,0.3,0.5,0.8,0.5,1.3
		C13.4,40.1,13.2,40.6,12.9,40.9z"/>
	<path class="st0" d="M41.2,12.2c0.9-1.3,0.7-3.1-0.4-4.3c-0.6-0.6-1.5-1-2.4-1c-0.9,0-1.8,0.4-2.4,1c-0.6,0.6-1,1.5-1,2.4
		s0.4,1.8,1,2.4c0.6,0.6,1.5,1,2.4,1c0.6,0,1.1-0.1,1.6-0.4c2.6,3.3,4,7.5,4,11.7c0,10.5-8.5,19-19,19c-1.3,0-2.5-0.1-3.7-0.4
		c-0.4-0.1-0.9,0.2-0.9,0.6c-0.1,0.4,0.2,0.9,0.6,0.9c1.3,0.3,2.7,0.4,4.1,0.4c5.5,0,10.7-2.1,14.6-6s6-9.1,6-14.6
		C45.6,20.4,44,15.8,41.2,12.2z M37.1,11.6c-0.3-0.3-0.5-0.8-0.5-1.3c0-0.5,0.2-0.9,0.5-1.3c0.3-0.3,0.8-0.5,1.3-0.5
		c0.5,0,0.9,0.2,1.3,0.5c0.7,0.7,0.7,1.8,0,2.5c-0.3,0.3-0.8,0.5-1.3,0.5C37.9,12.1,37.4,11.9,37.1,11.6z"/>
	<path class="st0" d="M21.7,38.8c0,0.4,0.4,0.8,0.8,0.8h5c0.4,0,0.8-0.4,0.8-0.8v-1.6c1.1-0.3,2.1-0.7,3-1.3l1.1,1.1
		c0.2,0.2,0.4,0.2,0.6,0.2c0.2,0,0.4-0.1,0.6-0.2l3.6-3.6c0.3-0.3,0.3-0.8,0-1.1L36,31.3c0.5-1,1-2,1.3-3h1.6c0.4,0,0.8-0.4,0.8-0.8
		v-5c0-0.4-0.4-0.8-0.8-0.8h-1.6c-0.3-1.1-0.7-2.1-1.3-3l1.1-1.1c0.2-0.2,0.2-0.4,0.2-0.6c0-0.2-0.1-0.4-0.2-0.6l-3.6-3.6
		c-0.3-0.3-0.8-0.3-1.1,0L31.3,14c-1-0.5-2-1-3-1.3v-1.5c0-0.4-0.4-0.8-0.8-0.8h-5c-0.4,0-0.8,0.4-0.8,0.8v1.5
		c-1.1,0.3-2.1,0.7-3,1.3l-1.1-1.1c-0.3-0.3-0.8-0.3-1.1,0l-3.6,3.6c-0.2,0.2-0.2,0.4-0.2,0.6c0,0.2,0.1,0.4,0.2,0.6l1.1,1.1
		c-0.5,1-1,2-1.3,3h-1.6c-0.4,0-0.8,0.4-0.8,0.8l0,5c0,0.2,0.1,0.4,0.2,0.6c0.2,0.2,0.4,0.2,0.6,0.2h1.6c0.3,1.1,0.7,2.1,1.3,3
		l-1.1,1.1c-0.3,0.3-0.3,0.8,0,1.1l3.6,3.6c0.2,0.2,0.4,0.2,0.6,0.2h0c0.2,0,0.4-0.1,0.6-0.2l1.1-1.1c1,0.5,2,1,3,1.3V38.8z
		 M19,34.3c-0.3-0.2-0.7-0.2-1,0.1l-1,1L14.6,33l1-1c0.3-0.3,0.3-0.7,0.1-1c-0.7-1.1-1.2-2.4-1.5-3.7c-0.1-0.4-0.4-0.6-0.8-0.6H12
		l0-3.4h1.4c0.4,0,0.7-0.3,0.8-0.6c0.3-1.3,0.8-2.6,1.5-3.7c0.2-0.3,0.2-0.7-0.1-1l-1-1l2.4-2.4l1,1c0.3,0.3,0.7,0.3,1,0.1
		c1.1-0.7,2.4-1.2,3.7-1.5c0.4-0.1,0.6-0.4,0.6-0.8V12h3.4v1.4c0,0.4,0.3,0.7,0.6,0.8c1.3,0.3,2.6,0.8,3.7,1.5
		c0.3,0.2,0.7,0.2,1-0.1l1-1l2.4,2.4l-1,1c-0.3,0.3-0.3,0.7-0.1,1c0.7,1.1,1.2,2.4,1.5,3.7c0.1,0.4,0.4,0.6,0.8,0.6H38v3.4h-1.4
		c-0.4,0-0.7,0.3-0.8,0.6c-0.3,1.3-0.8,2.6-1.5,3.7c-0.2,0.3-0.2,0.7,0.1,1l1,1L33,35.4l-1-1c-0.3-0.3-0.7-0.3-1-0.1
		c-1.1,0.7-2.4,1.2-3.7,1.5c-0.4,0.1-0.6,0.4-0.6,0.8V38h-3.4v-1.4c0-0.4-0.3-0.7-0.6-0.8C21.3,35.6,20.1,35.1,19,34.3z"/>
	<path class="st0" d="M31.7,25c0-3.7-3-6.7-6.7-6.7s-6.7,3-6.7,6.7s3,6.7,6.7,6.7S31.7,28.7,31.7,25z M20,25c0-2.8,2.3-5,5-5
		s5,2.3,5,5s-2.3,5-5,5S20,27.8,20,25z"/>
	<path class="st0" d="M32.4,7.4c0.2,0,0.4-0.1,0.6-0.2c0.1-0.2,0.2-0.4,0.2-0.6c0-0.2-0.1-0.4-0.2-0.6c-0.1-0.1-0.4-0.2-0.6-0.2
		c-0.2,0-0.4,0.1-0.6,0.2c-0.2,0.2-0.2,0.4-0.2,0.6c0,0.2,0.1,0.4,0.2,0.6C32,7.3,32.2,7.4,32.4,7.4z"/>
	<path class="st0" d="M17.6,42.6c-0.2,0-0.4,0.1-0.6,0.2c-0.1,0.1-0.2,0.4-0.2,0.6c0,0.2,0.1,0.4,0.2,0.6c0.1,0.1,0.4,0.2,0.6,0.2
		s0.4-0.1,0.6-0.2c0.1-0.1,0.2-0.4,0.2-0.6c0-0.2-0.1-0.4-0.2-0.6S17.8,42.6,17.6,42.6z"/>
</g>
</svg>
