<?xml version="1.0" encoding="utf-8"?>
<!-- Generator: Adobe Illustrator 21.0.0, SVG Export Plug-In . SVG Version: 6.00 Build 0)  -->
<svg version="1.1" id="Capa_1" xmlns="http://www.w3.org/2000/svg" xmlns:xlink="http://www.w3.org/1999/xlink" x="0px" y="0px"
	 viewBox="0 0 50 50" style="enable-background:new 0 0 50 50;" xml:space="preserve">
<style type="text/css">
	.st0{fill:#10485F;}
</style>
<g>
	<path class="st0" d="M-112.6,75.3v4.1h2.8V78h-1.4v-2.8h-1.4V75.3z"/>
	<path class="st0" d="M-121.5,96h1.4v11.1h-1.4V96z"/>
	<path class="st0" d="M-88.6,94l-1.1-4.5l-3.6,3.6l-1.8-1.8l3.6-3.6l-4.5-1.1l-1.3,1.3c-0.7-0.1-1.5-0.2-2.2-0.1l-4.4-3.6v1.6
		l-1.9-1.3v-1.2l2.1-1.4v-2.4h0.7c1.5,0,2.8-1,3.3-2.4s0-3-1.2-3.9l0,0v-0.7c0-5.3-4.3-9.7-9.7-9.7s-9.7,4.3-9.7,9.7v0.7l0,0
		c-1.1,0.8-1.6,2.2-1.3,3.5s1.3,2.4,2.7,2.6v2.8h6.9v-1.4h-5.5v-1.4h1.4v-4.6l2.2-2.2l0.5,0.3c1.8,1.1,4,1.1,5.8,0l0.5-0.3l2.2,2.2
		V81l-3.7,2.4h-6.7v1l-3.2,2.2l-6.1,1.8c-1.5,0.4-2.5,1.8-2.5,3.3v15.1h1.4V92c0-0.9,0.6-1.7,1.5-2l5.5-1.7l2.5,7.6l2.6-2.6l2.4,0.5
		v7.7h1.4v-7.7l2.7-0.4c-1.1,2.5-1,5.4,0.3,7.9l-0.9,0.9c-1,1-1,2.7,0,3.7s2.7,1,3.7,0l0.8-0.8c3.2,1.9,7.2,1.7,10.3-0.5
		c3-2.2,4.4-6,3.5-9.6L-88.6,94z M-100.9,76c0,1.1-0.9,2.1-2.1,2.1h-0.7V74h0.7C-101.8,73.9-100.9,74.9-100.9,76z M-117.5,78.1h-0.7
		c-1.1,0-2.1-0.9-2.1-2.1c0-1.1,0.9-2.1,2.1-2.1h0.7V78.1z M-117.5,72.6h-0.7c-0.2,0-0.5,0-0.7,0.1v-0.1c0-4.6,3.7-8.3,8.3-8.3
		s8.3,3.7,8.3,8.3v0.1c-0.2,0-0.5-0.1-0.7-0.1h-0.7c0-3.8-3.1-6.9-6.9-6.9S-117.5,68.7-117.5,72.6z M-107,71l-1.4,0.9
		c-1.3,0.8-3,0.8-4.3,0l-1.4-0.9l-2,2v-0.4c0-3.1,2.5-5.5,5.5-5.5s5.5,2.5,5.5,5.5V73L-107,71z M-102.8,90.3l0.3-0.2v-3l2.6,2.1h0.3
		c0.3,0,0.6-0.1,0.9-0.1c0.1,0,0.1,0,0.2,0l-1.7,1.7l0.8,2.9l-6.5,6.5C-107.5,96.6-106.2,92.4-102.8,90.3L-102.8,90.3z M-114.1,91.8
		l-1.5,1.5l-1.9-5.6l2.1-1.5v2.5l2.9,3.3L-114.1,91.8z M-110.6,92.2l-3.5-3.9V85h5.7l1.2-0.8v4.1L-110.6,92.2z M-108.8,92.3l3-3.5
		v-2.7l1.9,1.3v1.9c-1,0.7-1.9,1.5-2.6,2.6L-108.8,92.3z M-98.7,105.1c-1.3,0-2.6-0.3-3.7-0.9l6.7-6.7l2.9,0.8l2-2
		c0,0.3,0.1,0.6,0.1,0.9C-90.7,101.5-94.3,105.1-98.7,105.1z M-93.2,96.7l-2.9-0.8l-9.1,9.1c-0.5,0.5-1.3,0.5-1.8,0s-0.5-1.3,0-1.8
		l9.1-9.1l-0.8-2.9l3.1-3.1l1.4,0.3l-2.8,2.8l3.7,3.7l2.8-2.8l0.3,1.4L-93.2,96.7z"/>
</g>
<g>
	<path class="st0" d="M27.5,29.4v-3c0-1.2-1-2.1-2.1-2.1s-2.1,1-2.1,2.1v2.7c0,3.3-1.2,6.4-3.4,8.8l-3,3.3c-0.3,0.3-0.2,0.7,0.1,1
		c0.3,0.3,0.7,0.2,1-0.1l3-3.3c2.4-2.7,3.7-6.1,3.7-9.7v-2.7c0-0.4,0.3-0.8,0.8-0.8s0.8,0.3,0.8,0.8v3c0,4-1.5,7.8-4.2,10.8
		l-2.9,3.2c-0.3,0.3-0.2,0.7,0,1c0.1,0.1,0.3,0.2,0.5,0.2c0.2,0,0.4-0.1,0.5-0.2l2.9-3.2C25.9,38,27.5,33.8,27.5,29.4z"/>
	<path class="st0" d="M30.5,26.5c0-2.8-2.3-5.1-5.1-5.1s-5.1,2.3-5.1,5.1v2.7c0,2.5-0.9,5-2.6,6.8l-2.1,2.4c-0.3,0.3-0.2,0.7,0.1,1
		c0.3,0.3,0.7,0.2,1-0.1l2.1-2.4c1.9-2.1,3-4.9,3-7.8v-2.7c0-2,1.7-3.7,3.7-3.7s3.7,1.7,3.7,3.7v3c0,4.7-1.8,9.3-4.9,12.8l-2.5,2.7
		c-0.3,0.3-0.2,0.7,0,1c0.1,0.1,0.3,0.2,0.5,0.2c0.2,0,0.4-0.1,0.5-0.2l2.5-2.7c3.4-3.8,5.3-8.6,5.3-13.7V26.5z"/>
	<path class="st0" d="M33.4,26.5c0-4.4-3.6-8-8-8s-8,3.6-8,8v2.7c0,1.8-0.7,3.6-1.9,4.9l-1.9,2.1c-0.3,0.3-0.2,0.7,0.1,1
		c0.3,0.3,0.7,0.2,1-0.1l1.9-2.1c1.4-1.6,2.2-3.7,2.2-5.8v-2.7c0-3.6,3-6.6,6.6-6.6s6.6,3,6.6,6.6v3c0,5.5-2,10.7-5.7,14.7l-0.7,0.8
		c-0.3,0.3-0.2,0.7,0,1c0.1,0.1,0.3,0.2,0.5,0.2c0.2,0,0.4-0.1,0.5-0.2l0.7-0.8c3.9-4.3,6-9.8,6-15.6L33.4,26.5L33.4,26.5z"/>
	<path class="st0" d="M14.5,26.5c0,0.4,0.3,0.7,0.7,0.7c0.4,0,0.7-0.3,0.7-0.7c0-2.3,0.8-4.5,2.4-6.3c1.5-1.7,3.6-2.8,5.8-3.2
		c0.4-0.1,0.6-0.4,0.6-0.8c-0.1-0.4-0.4-0.6-0.8-0.6c-2.6,0.4-4.9,1.7-6.6,3.6C15.5,21.3,14.5,23.8,14.5,26.5z"/>
	<path class="st0" d="M15.9,29.2c0-0.4-0.3-0.7-0.7-0.7c-0.4,0-0.7,0.3-0.7,0.7c0,1.1-0.4,2.1-1.1,3L11.7,34c-0.3,0.3-0.2,0.7,0.1,1
		c0.1,0.1,0.3,0.2,0.5,0.2c0.2,0,0.4-0.1,0.5-0.2l1.7-1.9C15.4,32,15.9,30.6,15.9,29.2z"/>
	<path class="st0" d="M34.9,35.3c-0.4-0.1-0.7,0.1-0.8,0.5c-0.3,1-0.6,1.9-0.9,2.8c-0.1,0.4,0,0.7,0.4,0.9c0.1,0,0.2,0,0.3,0
		c0.3,0,0.5-0.2,0.6-0.4c0.4-1,0.7-2,1-3C35.5,35.7,35.3,35.3,34.9,35.3z"/>
	<path class="st0" d="M32.7,18.4c-0.3-0.3-0.7-0.2-1,0.1c-0.3,0.3-0.2,0.7,0.1,1c2,1.8,3.2,4.4,3.2,7.1v3c0,1.1-0.1,2.3-0.2,3.4
		c-0.1,0.4,0.2,0.7,0.6,0.8c0,0,0.1,0,0.1,0c0.3,0,0.6-0.2,0.7-0.6c0.2-1.2,0.2-2.4,0.2-3.6v-3C36.3,23.4,35,20.4,32.7,18.4z"/>
	<path class="st0" d="M29.5,17.9c0.1,0,0.2,0.1,0.3,0.1c0.3,0,0.5-0.1,0.6-0.4c0.2-0.3,0-0.7-0.3-0.9c-1-0.5-2-0.8-3.1-0.9
		c-0.4-0.1-0.7,0.2-0.8,0.6c-0.1,0.4,0.2,0.7,0.6,0.8C27.7,17.2,28.6,17.5,29.5,17.9z"/>
	<path class="st0" d="M25.4,12.7c-0.3,0-0.5,0-0.8,0c-0.4,0-0.7,0.3-0.6,0.7c0,0.4,0.3,0.7,0.7,0.6c0.2,0,0.5,0,0.7,0
		c6.9,0,12.4,5.6,12.4,12.4v3c0,0.4,0.3,0.7,0.7,0.7s0.7-0.3,0.7-0.7v-3C39.2,18.9,33,12.7,25.4,12.7z"/>
	<path class="st0" d="M17.9,16.4c0.1,0,0.3,0,0.4-0.1c1.1-0.8,2.4-1.4,3.7-1.8c0.4-0.1,0.6-0.5,0.5-0.8c-0.1-0.4-0.5-0.6-0.8-0.5
		c-1.5,0.4-2.9,1.1-4.1,1.9c-0.3,0.2-0.4,0.6-0.2,1C17.5,16.3,17.7,16.4,17.9,16.4z"/>
	<path class="st0" d="M13,29.2v-2.7c0-3.2,1.2-6.2,3.4-8.5c0.3-0.3,0.2-0.7,0-1s-0.7-0.2-1,0c-2.4,2.6-3.8,5.9-3.8,9.5v2.7
		c0,0.4-0.1,0.7-0.4,1l-0.8,0.9c-0.3,0.3-0.2,0.7,0.1,1c0.1,0.1,0.3,0.2,0.5,0.2c0.2,0,0.4-0.1,0.5-0.2l0.8-0.9
		C12.7,30.5,13,29.9,13,29.2z"/>
	<path class="st0" d="M41.2,21.1c-0.7-2.2-1.9-4.2-3.5-6c-0.3-0.3-0.7-0.3-1,0s-0.3,0.7,0,1c1.5,1.6,2.6,3.4,3.2,5.5
		c0.1,0.3,0.4,0.5,0.6,0.5c0.1,0,0.1,0,0.2,0C41.2,21.9,41.4,21.5,41.2,21.1z"/>
	<path class="st0" d="M30.8,10.6c-0.4-0.1-0.7,0.1-0.9,0.4c-0.1,0.4,0.1,0.7,0.4,0.9c1.5,0.5,2.9,1.3,4.2,2.2
		c0.1,0.1,0.3,0.1,0.4,0.1c0.2,0,0.4-0.1,0.5-0.3c0.2-0.3,0.2-0.7-0.1-1C34,12,32.4,11.2,30.8,10.6z"/>
	<path class="st0" d="M14.8,15.4c2.9-2.8,6.6-4.3,10.6-4.3c0.7,0,1.5,0.1,2.2,0.2c0.4,0.1,0.7-0.2,0.8-0.6c0.1-0.4-0.2-0.7-0.6-0.8
		c-0.8-0.1-1.6-0.2-2.4-0.2c-4.3,0-8.4,1.7-11.6,4.6c-3.1,3-4.9,7-5.1,11.3c0,0.4,0.3,0.7,0.7,0.7c0,0,0,0,0,0
		c0.4,0,0.7-0.3,0.7-0.7C10.3,21.8,11.9,18.1,14.8,15.4z"/>
	<path class="st0" d="M25.4,6.8c-1.5,0-3,0.2-4.5,0.5c-0.4,0.1-0.6,0.5-0.5,0.8c0.1,0.4,0.5,0.6,0.8,0.5c1.4-0.3,2.8-0.5,4.2-0.5
		c5,0,9.7,2,13.2,5.6c0.1,0.1,0.3,0.2,0.5,0.2c0.2,0,0.3-0.1,0.5-0.2c0.3-0.3,0.3-0.7,0-1c-1.8-1.9-3.9-3.4-6.3-4.4
		C30.7,7.4,28.1,6.8,25.4,6.8z"/>
	<path class="st0" d="M10.1,15.3c0.1,0.1,0.3,0.1,0.4,0.1c0.2,0,0.4-0.1,0.5-0.3c1.9-2.5,4.5-4.4,7.4-5.6C18.8,9.4,19,9,18.8,8.7
		c-0.1-0.3-0.5-0.5-0.9-0.4c-3.1,1.3-5.9,3.4-8,6.1C9.7,14.7,9.8,15.1,10.1,15.3z"/>
	<path class="st0" d="M15.9,7.5c0.1,0,0.2,0,0.3-0.1c2.9-1.4,6-2.1,9.2-2.1c1.7,0,3.3,0.2,5,0.6c0.4,0.1,0.7-0.1,0.8-0.5
		S31,4.6,30.7,4.6c-1.7-0.4-3.5-0.6-5.3-0.6c-3.4,0-6.7,0.7-9.8,2.2c-0.3,0.2-0.5,0.6-0.3,0.9C15.4,7.3,15.7,7.5,15.9,7.5z"/>
	<path class="st0" d="M33.2,6.8c0.7,0.3,1.4,0.6,2.1,1c0.1,0.1,0.2,0.1,0.3,0.1c0.2,0,0.5-0.1,0.6-0.4c0.2-0.3,0-0.7-0.3-0.9
		c-0.7-0.4-1.5-0.7-2.2-1c-0.4-0.1-0.7,0-0.9,0.4C32.7,6.2,32.9,6.6,33.2,6.8z"/>
</g>
</svg>
