<?xml version="1.0" encoding="utf-8"?>
<!-- Generator: Adobe Illustrator 21.0.0, SVG Export Plug-In . SVG Version: 6.00 Build 0)  -->
<svg version="1.1" id="Capa_1" xmlns="http://www.w3.org/2000/svg" xmlns:xlink="http://www.w3.org/1999/xlink" x="0px" y="0px"
	 viewBox="0 0 50 50" style="enable-background:new 0 0 50 50;" xml:space="preserve">
<style type="text/css">
	.st0{fill:#10485F;}
</style>
<g>
	<path class="st0" d="M20.2,15.3v4.1H23v-1.4h-1.4v-2.8H20.2z"/>
	<path class="st0" d="M11.4,36.1h1.4v11.1h-1.4V36.1z"/>
	<path class="st0" d="M44.3,34l-1.1-4.5l-3.6,3.6l-1.8-1.8l3.6-3.6l-4.5-1.1l-1.3,1.3c-0.7-0.1-1.5-0.2-2.2-0.1l-4.4-3.6v1.6
		l-1.9-1.3v-1.2l2.1-1.4v-2.4h0.7c1.5,0,2.8-1,3.3-2.4c0.5-1.4,0-3-1.2-3.9h0v-0.7c0-5.3-4.3-9.7-9.7-9.7s-9.7,4.3-9.7,9.7v0.7h0
		c-1.1,0.8-1.6,2.2-1.3,3.5c0.3,1.3,1.3,2.4,2.7,2.6v2.8h6.9v-1.4h-5.5v-1.4h1.4v-4.6l2.2-2.2l0.5,0.3c1.8,1.1,4,1.1,5.8,0l0.5-0.3
		l2.2,2.2v6.3l-3.7,2.4h-6.7v1l-3.2,2.2l-6.1,1.8c-1.5,0.4-2.5,1.8-2.5,3.3v15.1h1.4V32c0-0.9,0.6-1.7,1.5-2l5.5-1.7l2.5,7.6
		l2.6-2.6l2.4,0.5v7.7H23v-7.7l2.7-0.4c-1.1,2.5-1,5.4,0.3,7.9L25,42.3c-1,1-1,2.7,0,3.7c1,1,2.7,1,3.7,0l0.8-0.8
		c3.2,1.9,7.2,1.7,10.3-0.5c3-2.2,4.4-6,3.5-9.6L44.3,34z M32,16c0,1.1-0.9,2.1-2.1,2.1h-0.7v-4.1h0.7C31,13.9,32,14.9,32,16z
		 M15.4,18.1h-0.7c-1.1,0-2.1-0.9-2.1-2.1s0.9-2.1,2.1-2.1h0.7V18.1z M15.4,12.6h-0.7c-0.2,0-0.5,0-0.7,0.1v-0.1
		c0-4.6,3.7-8.3,8.3-8.3s8.3,3.7,8.3,8.3v0.1c-0.2,0-0.5-0.1-0.7-0.1h-0.7c0-3.8-3.1-6.9-6.9-6.9S15.4,8.7,15.4,12.6z M25.8,11
		l-1.4,0.9c-1.3,0.8-3,0.8-4.3,0L18.7,11l-2,2v-0.4c0-3.1,2.5-5.5,5.5-5.5s5.5,2.5,5.5,5.5V13L25.8,11z M30.1,30.3l0.3-0.2v-3
		l2.6,2.1l0.3,0c0.3,0,0.6-0.1,0.9-0.1c0.1,0,0.1,0,0.2,0l-1.7,1.7l0.8,2.9l-6.5,6.5C25.3,36.6,26.7,32.4,30.1,30.3L30.1,30.3z
		 M18.8,31.8l-1.5,1.5l-1.9-5.6l2.1-1.5v2.5l2.9,3.3L18.8,31.8z M22.3,32.2l-3.5-3.9V25h5.7l1.2-0.8v4.1L22.3,32.2z M24.1,32.3
		l3-3.5v-2.7l1.9,1.3v1.9c-1,0.7-1.9,1.5-2.6,2.6L24.1,32.3z M34.2,45.1c-1.3,0-2.6-0.3-3.7-0.9l6.7-6.7l2.9,0.8l2-2
		c0,0.3,0.1,0.6,0.1,0.9C42.1,41.5,38.6,45.1,34.2,45.1z M39.6,36.7L36.8,36L27.7,45c-0.5,0.5-1.3,0.5-1.8,0c-0.5-0.5-0.5-1.3,0-1.8
		l9.1-9.1l-0.8-2.9l3.1-3.1l1.4,0.3l-2.8,2.8l3.7,3.7l2.8-2.8l0.3,1.4L39.6,36.7z"/>
</g>
</svg>
