<?xml version="1.0" encoding="utf-8"?>
<!-- Generator: Adobe Illustrator 21.0.0, SVG Export Plug-In . SVG Version: 6.00 Build 0)  -->
<svg version="1.1" id="Capa_1" xmlns="http://www.w3.org/2000/svg" xmlns:xlink="http://www.w3.org/1999/xlink" x="0px" y="0px"
	 viewBox="0 0 50 50" style="enable-background:new 0 0 50 50;" xml:space="preserve">
<style type="text/css">
	.st0{fill:#10485F;}
</style>
<g>
	<path class="st0" d="M-112.6,75.3v4.1h2.8v-1.4h-1.4v-2.8H-112.6z"/>
	<path class="st0" d="M-121.5,96h1.4v11.1h-1.4V96z"/>
	<path class="st0" d="M-88.6,94l-1.1-4.5l-3.6,3.6l-1.8-1.8l3.6-3.6l-4.5-1.1l-1.3,1.3c-0.7-0.1-1.5-0.2-2.2-0.1l-4.4-3.6v1.6
		l-1.9-1.3v-1.2l2.1-1.4v-2.4h0.7c1.5,0,2.8-1,3.3-2.4c0.5-1.4,0-3-1.2-3.9h0v-0.7c0-5.3-4.3-9.7-9.7-9.7s-9.7,4.3-9.7,9.7v0.7h0
		c-1.1,0.8-1.6,2.2-1.3,3.5s1.3,2.4,2.7,2.6v2.8h6.9v-1.4h-5.5v-1.4h1.4v-4.6l2.2-2.2l0.5,0.3c1.8,1.1,4,1.1,5.8,0l0.5-0.3l2.2,2.2
		v6.3l-3.7,2.4h-6.7v1l-3.2,2.2l-6.1,1.8c-1.5,0.4-2.5,1.8-2.5,3.3v15.1h1.4V92c0-0.9,0.6-1.7,1.5-2l5.5-1.7l2.5,7.6l2.6-2.6
		l2.4,0.5v7.7h1.4v-7.7l2.7-0.4c-1.1,2.5-1,5.4,0.3,7.9l-0.9,0.9c-1,1-1,2.7,0,3.7c1,1,2.7,1,3.7,0l0.8-0.8
		c3.2,1.9,7.2,1.7,10.3-0.5c3-2.2,4.4-6,3.5-9.6L-88.6,94z M-100.9,76c0,1.1-0.9,2.1-2.1,2.1h-0.7v-4.1h0.7
		C-101.8,73.9-100.9,74.9-100.9,76z M-117.5,78.1h-0.7c-1.1,0-2.1-0.9-2.1-2.1c0-1.1,0.9-2.1,2.1-2.1h0.7V78.1z M-117.5,72.6h-0.7
		c-0.2,0-0.5,0-0.7,0.1v-0.1c0-4.6,3.7-8.3,8.3-8.3s8.3,3.7,8.3,8.3v0.1c-0.2,0-0.5-0.1-0.7-0.1h-0.7c0-3.8-3.1-6.9-6.9-6.9
		S-117.5,68.7-117.5,72.6z M-107,71l-1.4,0.9c-1.3,0.8-3,0.8-4.3,0l-1.4-0.9l-2,2v-0.4c0-3.1,2.5-5.5,5.5-5.5s5.5,2.5,5.5,5.5V73
		L-107,71z M-102.8,90.3l0.3-0.2v-3l2.6,2.1l0.3,0c0.3,0,0.6-0.1,0.9-0.1c0.1,0,0.1,0,0.2,0l-1.7,1.7l0.8,2.9l-6.5,6.5
		C-107.5,96.6-106.2,92.4-102.8,90.3L-102.8,90.3z M-114.1,91.8l-1.5,1.5l-1.9-5.6l2.1-1.5v2.5l2.9,3.3L-114.1,91.8z M-110.6,92.2
		l-3.5-3.9V85h5.7l1.2-0.8v4.1L-110.6,92.2z M-108.8,92.3l3-3.5v-2.7l1.9,1.3v1.9c-1,0.7-1.9,1.5-2.6,2.6L-108.8,92.3z M-98.7,105.1
		c-1.3,0-2.6-0.3-3.7-0.9l6.7-6.7l2.9,0.8l2-2c0,0.3,0.1,0.6,0.1,0.9C-90.7,101.5-94.3,105.1-98.7,105.1z M-93.2,96.7l-2.9-0.8
		l-9.1,9.1c-0.5,0.5-1.3,0.5-1.8,0c-0.5-0.5-0.5-1.3,0-1.8l9.1-9.1l-0.8-2.9l3.1-3.1l1.4,0.3l-2.8,2.8l3.7,3.7l2.8-2.8l0.3,1.4
		L-93.2,96.7z"/>
</g>
<g>
	<g>
		<g>
			<path class="st0" d="M46.8,24.3H36.2v-1.5h2.9c0.4,0,0.7-0.3,0.7-0.7s-0.3-0.7-0.7-0.7h-2.9V20h2c0.7,0,1.4-0.3,2-0.8l4.3-4.3
				c0.3,0.1,0.6,0.2,0.9,0.2c0.6,0,1.1-0.2,1.5-0.6c0.4-0.4,0.6-0.9,0.6-1.5s-0.2-1.1-0.6-1.5c-0.4-0.4-0.9-0.6-1.5-0.6
				s-1.1,0.2-1.5,0.6c-0.4,0.4-0.6,0.9-0.6,1.5c0,0.3,0.1,0.6,0.2,0.9l-4.3,4.3c-0.3,0.3-0.6,0.4-1,0.4h-2v-1.5
				c0-1.9-1.6-3.5-3.5-3.5h-1.5V8c0.8-0.3,1.4-1,1.4-2c0-1.1-0.9-2.1-2.1-2.1c-1.1,0-2.1,0.9-2.1,2.1c0,0.9,0.6,1.7,1.4,2v5.8h-1.5
				v-2.9c0-0.4-0.3-0.7-0.7-0.7c-0.4,0-0.7,0.3-0.7,0.7v2.9h-1.5V3.2c0-0.4-0.3-0.7-0.7-0.7c-0.4,0-0.7,0.3-0.7,0.7v10.6h-1.5v-2.9
				c0-0.4-0.3-0.7-0.7-0.7c-0.4,0-0.7,0.3-0.7,0.7v2.9H20v-2c0-0.7-0.3-1.4-0.8-2l-4.3-4.3c0.4-0.8,0.3-1.7-0.4-2.4
				c-0.8-0.8-2.1-0.8-2.9,0c-0.8,0.8-0.8,2.1,0,2.9c0.4,0.4,0.9,0.6,1.5,0.6c0.3,0,0.6-0.1,0.9-0.2l4.3,4.3c0.3,0.3,0.4,0.6,0.4,1v2
				h-1.5c-0.3,0-0.6,0-0.9,0.1c-0.4,0.1-0.6,0.4-0.5,0.8s0.4,0.6,0.8,0.5c0.2,0,0.4-0.1,0.5-0.1h15.5c1.2,0,2.2,1,2.2,2.2v15.5
				c0,0.2,0,0.4-0.1,0.5c-0.1,0.4,0.1,0.7,0.5,0.8c0.1,0,0.1,0,0.2,0c0.3,0,0.6-0.2,0.6-0.5c0.1-0.3,0.1-0.6,0.1-0.9v-1.5H42
				c0.3,0.8,1,1.4,2,1.4c1.1,0,2.1-0.9,2.1-2.1c0-1.1-0.9-2.1-2.1-2.1c-0.9,0-1.7,0.6-2,1.4h-5.8v-1.5h2.9c0.4,0,0.7-0.3,0.7-0.7
				c0-0.4-0.3-0.7-0.7-0.7h-2.9v-1.5h10.6c0.4,0,0.7-0.3,0.7-0.7C47.4,24.6,47.1,24.3,46.8,24.3z M44.9,12.5
				c0.1-0.1,0.3-0.2,0.5-0.2s0.4,0.1,0.5,0.2s0.2,0.3,0.2,0.5c0,0.2-0.1,0.4-0.2,0.5c-0.1,0.1-0.3,0.2-0.5,0.2s-0.4-0.1-0.5-0.2
				c-0.1-0.1-0.2-0.3-0.2-0.5C44.6,12.9,44.7,12.7,44.9,12.5z M13.6,5.1c-0.3,0.3-0.8,0.3-1.1,0c-0.3-0.3-0.3-0.8,0-1.1
				c0.1-0.1,0.3-0.2,0.5-0.2c0.2,0,0.4,0.1,0.5,0.2C13.9,4.4,13.9,4.9,13.6,5.1z M30.6,6.8c-0.4,0-0.7-0.3-0.7-0.7
				c0-0.4,0.3-0.7,0.7-0.7c0.4,0,0.7,0.3,0.7,0.7C31.4,6.4,31,6.8,30.6,6.8z M44,29.9c0.4,0,0.7,0.3,0.7,0.7c0,0.4-0.3,0.7-0.7,0.7
				c-0.4,0-0.7-0.3-0.7-0.7C43.2,30.2,43.6,29.9,44,29.9z"/>
		</g>
	</g>
	<g>
		<g>
			<path class="st0" d="M38.4,43.9c-0.6-0.6-1.6-0.8-2.4-0.4l-4.3-4.3c-0.3-0.3-0.4-0.6-0.4-1v-2h1.5c0.3,0,0.6,0,0.9-0.1
				c0.4-0.1,0.6-0.4,0.5-0.8c-0.1-0.4-0.4-0.6-0.8-0.5c-0.2,0-0.4,0.1-0.5,0.1H17.3c-1.2,0-2.2-1-2.2-2.2V17.3c0-0.2,0-0.4,0.1-0.5
				c0.1-0.4-0.1-0.7-0.5-0.8c-0.4-0.1-0.7,0.1-0.8,0.5c-0.1,0.3-0.1,0.6-0.1,0.9v1.5H8c-0.3-0.8-1-1.4-2-1.4c-1.1,0-2.1,0.9-2.1,2.1
				c0,1.1,0.9,2.1,2.1,2.1c0.9,0,1.7-0.6,2-1.4h5.8v1.5h-2.9c-0.4,0-0.7,0.3-0.7,0.7c0,0.4,0.3,0.7,0.7,0.7h2.9v1.5H3.2
				c-0.4,0-0.7,0.3-0.7,0.7s0.3,0.7,0.7,0.7h10.6v1.5h-2.9c-0.4,0-0.7,0.3-0.7,0.7c0,0.4,0.3,0.7,0.7,0.7h2.9V30h-2
				c-0.7,0-1.4,0.3-2,0.8l-4.3,4.3c-0.3-0.1-0.6-0.2-0.9-0.2c-0.6,0-1.1,0.2-1.5,0.6c-0.4,0.4-0.6,0.9-0.6,1.5
				c0,0.6,0.2,1.1,0.6,1.5C3.6,38.8,4.1,39,4.6,39s1.1-0.2,1.5-0.6c0.4-0.4,0.6-0.9,0.6-1.5c0-0.3-0.1-0.6-0.2-0.9l4.3-4.3
				c0.3-0.3,0.6-0.4,1-0.4h2v1.5c0,1.9,1.6,3.5,3.5,3.5h1.5V42c-0.8,0.3-1.4,1-1.4,2c0,1.1,0.9,2.1,2.1,2.1s2.1-0.9,2.1-2.1
				c0-0.9-0.6-1.7-1.4-2v-5.8h1.5v2.9c0,0.4,0.3,0.7,0.7,0.7c0.4,0,0.7-0.3,0.7-0.7v-2.9h1.5v10.6c0,0.4,0.3,0.7,0.7,0.7
				c0.4,0,0.7-0.3,0.7-0.7V36.2h1.5v2.9c0,0.4,0.3,0.7,0.7,0.7c0.4,0,0.7-0.3,0.7-0.7v-2.9H30v2c0,0.7,0.3,1.4,0.8,2l4.3,4.3
				c-0.4,0.8-0.3,1.7,0.4,2.4c0.4,0.4,0.9,0.6,1.5,0.6c0.5,0,1.1-0.2,1.5-0.6C39.2,46,39.2,44.7,38.4,43.9z M6,20.1
				c-0.4,0-0.7-0.3-0.7-0.7c0-0.4,0.3-0.7,0.7-0.7c0.4,0,0.7,0.3,0.7,0.7C6.8,19.8,6.4,20.1,6,20.1z M5.1,37.5
				c-0.1,0.1-0.3,0.2-0.5,0.2s-0.4-0.1-0.5-0.2s-0.2-0.3-0.2-0.5c0-0.2,0.1-0.4,0.2-0.5c0.1-0.1,0.3-0.2,0.5-0.2
				c0.2,0,0.4,0.1,0.5,0.2c0.1,0.1,0.2,0.3,0.2,0.5C5.4,37.1,5.3,37.3,5.1,37.5z M20.1,44c0,0.4-0.3,0.7-0.7,0.7
				c-0.4,0-0.7-0.3-0.7-0.7c0-0.4,0.3-0.7,0.7-0.7S20.1,43.6,20.1,44z M37.5,45.9c-0.3,0.3-0.8,0.3-1.1,0c-0.3-0.3-0.3-0.8,0-1.1
				c0.1-0.1,0.3-0.2,0.5-0.2s0.4,0.1,0.5,0.2C37.8,45.1,37.8,45.6,37.5,45.9z"/>
		</g>
	</g>
	<g>
		<g>
			<path class="st0" d="M32,23.2c0-1.4-1-2.6-2.4-3c0-0.2,0.1-0.3,0.1-0.5c0-1.3-1.2-2.4-2.6-2.4c-0.8,0-1.5,0.3-2,0.8
				c-0.5-0.5-1.2-0.8-2-0.8c-1.5,0-2.6,1.1-2.6,2.4c0,0.2,0,0.4,0.1,0.5c-1.4,0.4-2.4,1.6-2.4,3c0,0.7,0.2,1.3,0.7,1.9
				c-0.4,0.6-0.7,1.3-0.7,2c0,1.1,0.6,2.2,1.6,2.8c0,0,0,0,0,0c0,1.5,1.4,2.8,3,2.8c1,0,1.8-0.4,2.4-1c0.6,0.6,1.4,1,2.4,1
				c1.6,0,2.9-1.1,3-2.6c1-0.6,1.6-1.6,1.6-2.6c0-0.8-0.3-1.5-0.9-2.1C31.6,24.8,32,24,32,23.2z M29.7,25.9c0.6,0.3,1,0.9,1,1.5
				c0,0.5-0.2,0.9-0.6,1.2c-0.3-0.6-1-1.1-1.7-1.4c-0.3-0.1-0.7,0.1-0.8,0.4c-0.1,0.3,0.1,0.7,0.4,0.8c0.7,0.2,1.1,0.8,1.1,1.4
				c0,0.8-0.8,1.5-1.7,1.5c-0.9,0-1.7-0.7-1.7-1.5v-4.2c0-0.8,0.8-1.5,1.7-1.5c0.4,0,0.7-0.3,0.7-0.7c0-0.4-0.3-0.7-0.7-0.7
				c-0.6,0-1.2,0.2-1.7,0.5v-0.8c0-0.4-0.3-0.7-0.7-0.7s-0.7,0.3-0.7,0.7v3.7c-0.2-0.1-0.5-0.3-0.7-0.3c-0.3-0.1-0.7,0.1-0.8,0.4
				c-0.1,0.3,0.1,0.7,0.4,0.8c0.7,0.2,1.1,0.8,1.1,1.4v1.4c0,0.8-0.8,1.5-1.7,1.5c-0.9,0-1.7-0.7-1.7-1.5c0-0.3,0.1-0.7,0.4-0.9
				c0.3-0.3,0.3-0.7,0-0.9c-0.3-0.3-0.7-0.3-0.9,0c-0.2,0.2-0.3,0.3-0.4,0.5c-0.4-0.4-0.7-0.9-0.7-1.4c0-1,0.8-1.8,1.9-2.1
				c0.4-0.1,0.6-0.4,0.5-0.8c-0.1-0.4-0.4-0.6-0.8-0.5c-0.4,0.1-0.8,0.3-1.2,0.5c-0.2-0.3-0.4-0.6-0.4-1c0-1,0.9-1.8,2.1-1.8
				c0,0,0,0,0,0c0.2,0,0.3-0.1,0.4-0.2c0.3-0.2,0.3-0.6,0.1-0.8c0,0,0,0,0,0c0,0,0,0,0,0c0,0,0,0,0,0c0,0,0,0,0,0
				c-0.1-0.1-0.2-0.3-0.2-0.6c0-0.6,0.6-1.1,1.3-1.1c0.7,0,1.3,0.5,1.3,1.1c0,0.4,0.3,0.7,0.7,0.7s0.7-0.3,0.7-0.7
				c0-0.6,0.6-1.1,1.3-1.1c0.7,0,1.3,0.5,1.3,1.1c0,0.2,0,0.3-0.1,0.4c-0.4,0-0.7,0.1-1.1,0.3c-0.3,0.1-0.5,0.5-0.4,0.9
				c0.1,0.3,0.5,0.5,0.9,0.4c0.3-0.1,0.6-0.2,0.9-0.2c0,0,0,0,0,0c0,0,0,0,0,0c1.2,0,2.1,0.8,2.1,1.8c0,0.6-0.4,1.2-1,1.5
				c-0.2,0.1-0.4,0.3-0.4,0.6C29.3,25.6,29.4,25.8,29.7,25.9z"/>
		</g>
	</g>
</g>
</svg>
