<?xml version="1.0" encoding="utf-8"?>
<!-- Generator: Adobe Illustrator 21.0.0, SVG Export Plug-In . SVG Version: 6.00 Build 0)  -->
<svg version="1.1" id="Capa_1" xmlns="http://www.w3.org/2000/svg" xmlns:xlink="http://www.w3.org/1999/xlink" x="0px" y="0px"
	 viewBox="0 0 50 50" style="enable-background:new 0 0 50 50;" xml:space="preserve">
<style type="text/css">
	.st0{fill:#10485F;}
</style>
<g>
	<path class="st0" d="M-112.6,75.3v4.1h2.8v-1.4h-1.4v-2.8H-112.6z"/>
	<path class="st0" d="M-121.5,96h1.4v11.1h-1.4V96z"/>
	<path class="st0" d="M-88.6,94l-1.1-4.5l-3.6,3.6l-1.8-1.8l3.6-3.6l-4.5-1.1l-1.3,1.3c-0.7-0.1-1.5-0.2-2.2-0.1l-4.4-3.6v1.6
		l-1.9-1.3v-1.2l2.1-1.4v-2.4h0.7c1.5,0,2.8-1,3.3-2.4c0.5-1.4,0-3-1.2-3.9h0v-0.7c0-5.3-4.3-9.7-9.7-9.7s-9.7,4.3-9.7,9.7v0.7h0
		c-1.1,0.8-1.6,2.2-1.3,3.5s1.3,2.4,2.7,2.6v2.8h6.9v-1.4h-5.5v-1.4h1.4v-4.6l2.2-2.2l0.5,0.3c1.8,1.1,4,1.1,5.8,0l0.5-0.3l2.2,2.2
		v6.3l-3.7,2.4h-6.7v1l-3.2,2.2l-6.1,1.8c-1.5,0.4-2.5,1.8-2.5,3.3v15.1h1.4V92c0-0.9,0.6-1.7,1.5-2l5.5-1.7l2.5,7.6l2.6-2.6
		l2.4,0.5v7.7h1.4v-7.7l2.7-0.4c-1.1,2.5-1,5.4,0.3,7.9l-0.9,0.9c-1,1-1,2.7,0,3.7c1,1,2.7,1,3.7,0l0.8-0.8
		c3.2,1.9,7.2,1.7,10.3-0.5c3-2.2,4.4-6,3.5-9.6L-88.6,94z M-100.9,76c0,1.1-0.9,2.1-2.1,2.1h-0.7v-4.1h0.7
		C-101.8,73.9-100.9,74.9-100.9,76z M-117.5,78.1h-0.7c-1.1,0-2.1-0.9-2.1-2.1c0-1.1,0.9-2.1,2.1-2.1h0.7V78.1z M-117.5,72.6h-0.7
		c-0.2,0-0.5,0-0.7,0.1v-0.1c0-4.6,3.7-8.3,8.3-8.3s8.3,3.7,8.3,8.3v0.1c-0.2,0-0.5-0.1-0.7-0.1h-0.7c0-3.8-3.1-6.9-6.9-6.9
		S-117.5,68.7-117.5,72.6z M-107,71l-1.4,0.9c-1.3,0.8-3,0.8-4.3,0l-1.4-0.9l-2,2v-0.4c0-3.1,2.5-5.5,5.5-5.5s5.5,2.5,5.5,5.5V73
		L-107,71z M-102.8,90.3l0.3-0.2v-3l2.6,2.1l0.3,0c0.3,0,0.6-0.1,0.9-0.1c0.1,0,0.1,0,0.2,0l-1.7,1.7l0.8,2.9l-6.5,6.5
		C-107.5,96.6-106.2,92.4-102.8,90.3L-102.8,90.3z M-114.1,91.8l-1.5,1.5l-1.9-5.6l2.1-1.5v2.5l2.9,3.3L-114.1,91.8z M-110.6,92.2
		l-3.5-3.9V85h5.7l1.2-0.8v4.1L-110.6,92.2z M-108.8,92.3l3-3.5v-2.7l1.9,1.3v1.9c-1,0.7-1.9,1.5-2.6,2.6L-108.8,92.3z M-98.7,105.1
		c-1.3,0-2.6-0.3-3.7-0.9l6.7-6.7l2.9,0.8l2-2c0,0.3,0.1,0.6,0.1,0.9C-90.7,101.5-94.3,105.1-98.7,105.1z M-93.2,96.7l-2.9-0.8
		l-9.1,9.1c-0.5,0.5-1.3,0.5-1.8,0c-0.5-0.5-0.5-1.3,0-1.8l9.1-9.1l-0.8-2.9l3.1-3.1l1.4,0.3l-2.8,2.8l3.7,3.7l2.8-2.8l0.3,1.4
		L-93.2,96.7z"/>
</g>
<g>
	<g>
		<g>
			<path class="st0" d="M-70.2,13.9c-0.6,0.5-1.4,0.5-2.2,0.6c-0.9,0-2,0.1-2.9,0.9s-1.2,1.8-1.4,2.7c-0.2,0.8-0.3,1.5-1,2
				c-0.1,0.1-0.1,0.2,0,0.4c1.9,2.3,3.4,3.6,5,4.2c1.6,0.6,3.1,0.5,5,0.2c0,0,0.1,0,0.1-0.1c0,0,0.1-0.1,0.1-0.1
				c0.7-1.8,1-3.3,0.8-5c-0.3-1.6-1.3-3.4-3.2-5.7C-69.9,13.8-70.1,13.8-70.2,13.9z M-67.8,24.2c-3.5,0.6-5.6,0.3-9.2-4
				c0.6-0.6,0.8-1.4,0.9-2.1c0.2-0.9,0.4-1.7,1.2-2.4c0.8-0.7,1.7-0.7,2.6-0.7c0.8,0,1.6-0.1,2.3-0.5
				C-66.5,18.8-66.6,20.9-67.8,24.2z"/>
			<path class="st0" d="M-75.7,19.4c-0.1-0.1-0.3,0-0.3,0.1c0,0,0,0.1,0,0.1c-0.1,0.1,0,0.3,0.1,0.3c0.1,0,0.2,0,0.3,0
				c0,0,0.1-0.1,0.1-0.1c0,0,0-0.1,0-0.1C-75.5,19.6-75.6,19.5-75.7,19.4z"/>
			<path class="st0" d="M-69.3,16.7C-69.3,16.7-69.3,16.7-69.3,16.7c0.1-0.1,0.1-0.2,0.1-0.4c0,0,0-0.1-0.1-0.1
				c-0.1-0.1-0.2-0.1-0.4-0.1c-0.1,0.1-0.1,0.2-0.1,0.4c0,0,0,0.1,0.1,0.1C-69.6,16.7-69.4,16.8-69.3,16.7z"/>
			<path class="st0" d="M-75.4,19c0,0,0.1-0.1,0.1-0.1c0-0.2,0.1-0.3,0.1-0.5c0.2-0.8,0.3-1.5,0.9-1.9c0.1-0.1,0.1-0.2,0-0.4
				c-0.1-0.1-0.2-0.1-0.4,0c-0.7,0.6-0.9,1.4-1.1,2.2c0,0.2-0.1,0.3-0.1,0.5c0,0.1,0,0.3,0.2,0.3C-75.5,19.1-75.4,19.1-75.4,19z"/>
			<path class="st0" d="M-68.6,23.3c-0.8,0.1-1.7,0.2-2.6,0c-0.1,0-0.3,0.1-0.3,0.2c0,0.1,0.1,0.3,0.2,0.3c1,0.2,2.1,0.1,2.9-0.1
				c0,0,0,0,0,0c0,0,0,0,0,0c0,0,0,0,0,0c0,0,0,0,0,0c0,0,0,0,0,0c0,0,0,0,0,0c0,0,0,0,0,0c0,0,0,0,0,0c0,0,0,0,0,0c0,0,0,0,0,0
				c0,0,0,0,0,0c0,0,0,0,0,0c0,0,0,0,0,0c0,0,0,0,0,0c0,0,0,0,0,0c0,0,0,0,0,0c0,0,0,0,0,0c0,0,0,0,0,0c0,0,0,0,0,0c0,0,0,0,0,0
				c0.3-0.8,0.6-1.8,0.6-2.8c0-1.2-0.4-2.4-1.3-3.8c-0.1-0.1-0.2-0.2-0.3-0.1c-0.1,0.1-0.2,0.2-0.1,0.3c0.8,1.3,1.2,2.5,1.2,3.6
				C-68.1,21.7-68.4,22.6-68.6,23.3z"/>
		</g>
	</g>
</g>
<g>
	<path class="st0" d="M-80.6,18.4c-0.5,0-0.9,0.4-0.9,0.9c0,0.5,0.4,0.9,0.9,0.9c0.5,0,0.9-0.4,0.9-0.9
		C-79.8,18.8-80.2,18.4-80.6,18.4z"/>
	<path class="st0" d="M-56.2,28.9c-0.2-0.2-0.4-0.3-0.6-0.3c0,0-0.3,0-0.6,0.3l-0.6,0.6l-2-2c4.4-6.2,3.8-14.8-1.7-20.2
		c-6.1-6.1-16.1-6.1-22.2,0c-6.1,6.1-6.1,16.1,0,22.2c5.4,5.4,14,6.1,20.2,1.7l2,2l-0.6,0.6c-0.3,0.3-0.3,0.9,0,1.2l11,11
		c1.7,1.7,4.5,1.7,6.2,0c1.7-1.7,1.7-4.5,0-6.2L-56.2,28.9z M-60.5,32l-1.9-1.9c0.2-0.2,0.4-0.4,0.6-0.6c0.2-0.2,0.4-0.4,0.6-0.6
		l1.9,1.9L-60.5,32z M-82.7,28.2c-5.5-5.5-5.5-14.3,0-19.8C-77.3,3-68.4,3-63,8.5c5.4,5.4,5.5,14.3,0,19.8
		C-68.5,33.8-77.3,33.6-82.7,28.2z M-56.8,30.7l2.5,2.5l-3.7,3.7l-2.5-2.5L-56.8,30.7z M-46.4,44.8c-1,1-2.7,1-3.7,0l-6.7-6.7
		l3.7-3.7l6.7,6.7C-45.3,42.2-45.3,43.8-46.4,44.8z"/>
	<path class="st0" d="M-64.2,9.7c-4.8-4.8-12.5-4.8-17.3,0c-4.8,4.8-4.8,12.5,0,17.3c4.8,4.8,12.5,4.8,17.3,0
		C-59.4,22.2-59.4,14.5-64.2,9.7z M-65.4,25.8c-4.1,4.1-10.7,4.1-14.8,0c-4.1-4.1-4.1-10.7,0-14.8c4.1-4.1,10.7-4.1,14.8,0
		C-61.3,15-61.3,21.7-65.4,25.8z"/>
	<path class="st0" d="M-72.8,9.6c-2.3,0-4.5,0.9-6.2,2.6c-1,1-1.7,2.1-2.1,3.4c-0.2,0.5,0.1,1,0.5,1.1c0.5,0.2,1-0.1,1.1-0.5
		c0.3-1,0.9-1.9,1.7-2.7c1.3-1.3,3.1-2,4.9-2c0.5,0,0.9-0.4,0.9-0.9S-72.4,9.6-72.8,9.6z"/>
</g>
<g>
	<path class="st0" d="M31.1,20.4L12.4,39.1c-0.2,0.2-0.2,0.6,0,0.8c0,0,0,0,0,0c3.5,3,8,4.6,12.5,4.6c10.8,0,19.5-8.8,19.5-19.5
		c0-4.6-1.6-9-4.6-12.5c-0.2-0.2-0.6-0.3-0.8-0.1c0,0,0,0,0,0L31.1,20.4L31.1,20.4z M32,22.2v5.5c-0.1,0.1,0,0.1,0,0.2
		c0,0.1-0.1,0.1,0,0.2v2.3c0,3.3-2.7,6-6,6h-0.4v-8.9l6.1-6C31.8,21.7,32,22,32,22.2z M24.1,36.5c-1.9,0-3.8-0.9-4.9-2.5l5.2-5.2
		v7.8H24.1z M39.5,13.7c2.5,3.2,3.9,7.2,3.9,11.3c0,10.1-8.2,18.4-18.4,18.4c-4.1,0-8.1-1.4-11.3-3.9l4.7-4.7
		c1.3,1.8,3.5,2.9,5.7,2.9h1.8c2.5,0,4.9-1.4,6.1-3.6h0.4c1,0,1.8,0.8,1.8,1.8v1c0,0.3,0.3,0.6,0.6,0.6s0.6-0.3,0.6-0.6v-1
		c0-1.5-1.2-2.8-2.7-2.9c0.3-0.8,0.5-1.6,0.5-2.5v-2H34c1,0,1.8,0.8,1.8,1.8V31c0,0.3,0.3,0.6,0.6,0.6s0.6-0.3,0.6-0.6v-0.8
		c0-1.6-1.3-2.9-2.9-2.9h-0.9v-2.6h1.3c1.6,0,2.9-1.3,2.9-2.8c0,0,0,0,0,0v-0.3c0-0.3-0.3-0.6-0.6-0.6s-0.6,0.3-0.6,0.6v0.3
		c0,1-0.8,1.7-1.7,1.7c0,0,0,0,0,0h-1.3v-1.3c0-0.6-0.2-1.1-0.7-1.5L39.5,13.7z"/>
	<path class="st0" d="M25,47.7c12.5,0,22.8-10.2,22.8-22.7S37.5,2.3,25,2.3S2.3,12.5,2.3,25S12.5,47.7,25,47.7z M25,3.4
		c11.9,0,21.6,9.7,21.6,21.6S36.9,46.6,25,46.6S3.4,36.9,3.4,25S13.1,3.4,25,3.4L25,3.4z"/>
	<path class="st0" d="M10.5,37.8C10.5,37.8,10.5,37.8,10.5,37.8c0.2,0,0.3-0.1,0.4-0.2l14.4-14.4c0,0,0.1-0.1,0.1-0.1l5-5l0,0
		c0.1,0,0.1-0.1,0.2-0.2l7-7c0.2-0.2,0.2-0.6,0-0.8c0,0,0,0,0,0c-3.5-3-8-4.6-12.6-4.6C14.2,5.5,5.5,14.2,5.5,25
		c0,4.6,1.6,9.1,4.6,12.6C10.2,37.7,10.4,37.8,10.5,37.8z M18.1,24.4c0-0.1,0-0.1,0-0.2s0-0.1,0-0.2v-1.8c0-0.5,0.4-0.9,0.9-1
		c0,0,0,0,0.1,0c0,0,0.1,0,0.1,0h5.3v1.3l-6.3,6.3V24.4z M25,15.3c1.7,0,3.4,0.8,4.4,2.2l-2.6,2.6h-7.2C19.9,17.4,22.3,15.3,25,15.3
		z M22.3,14.8c0.5-1.5,2.2-2.4,3.7-1.8c0.9,0.3,1.6,1,1.8,1.9C26.1,14,24.1,13.9,22.3,14.8z M25.7,21.3l-0.1,0.1v-0.1H25.7z M25,6.6
		c4.1,0,8.1,1.4,11.4,4L33,14c0,0,0,0,0,0c-0.2-0.2-0.6-0.2-0.8,0L30,16.4c-0.3-0.3-0.5-0.6-0.8-0.8c-0.1-2.2-1.9-4-4.2-4
		c-2.1,0.1-3.9,1.8-4,3.9c-0.3,0.2-0.5,0.4-0.8,0.7L18,13.7c-0.2-0.2-0.6-0.2-0.8,0c-0.2,0.2-0.2,0.5,0,0.8l2.4,2.7
		c-0.6,0.9-0.9,2-1,3.1c-0.9,0.3-1.5,1.1-1.5,2v1.3h-1.4c-1,0-1.7-0.7-1.8-1.7c0,0,0,0,0,0v-0.3c0-0.3-0.3-0.6-0.6-0.6
		c-0.3,0-0.6,0.3-0.6,0.6v0.3c0,1.6,1.3,2.9,2.9,2.9c0,0,0,0,0,0H17v2.5h-0.8c-1.6,0-2.9,1.3-2.9,2.9V31c0,0.3,0.3,0.6,0.6,0.6
		s0.6-0.3,0.6-0.6v-0.9c0-1,0.8-1.8,1.7-1.8H17V30l-6.4,6.4c-2.6-3.2-4-7.3-4-11.4C6.6,14.9,14.9,6.6,25,6.6z"/>
</g>
</svg>
